{
  "asset": {
    "generator": "glTF-Transform v4.5.0",
    "version": "2.0"
  },
  "accessors": [
    {
      "type": "SCALAR",
      "componentType": 5123,
      "count": 130986,
      "normalized": false,
      "byteOffset": 0,
      "bufferView": 0
    },
    {
      "type": "VEC4",
      "componentType": 5121,
      "count": 23614,
      "normalized": false,
      "byteOffset": 0,
      "bufferView": 1
    },
    {
      "type": "VEC4",
      "componentType": 5121,
      "count": 23614,
      "normalized": true,
      "byteOffset": 0,
      "bufferView": 2
    },
    {
      "type": "SCALAR",
      "componentType": 5123,
      "count": 4152,
      "normalized": false,
      "byteOffset": 261972,
      "bufferView": 0
    },
    {
      "type": "VEC4",
      "componentType": 5121,
      "count": 810,
      "normalized": false,
      "byteOffset": 0,
      "bufferView": 3
    },
    {
      "type": "VEC4",
      "componentType": 5121,
      "count": 810,
      "normalized": true,
      "byteOffset": 0,
      "bufferView": 4
    },
    {
      "type": "SCALAR",
      "componentType": 5123,
      "count": 42306,
      "normalized": false,
      "byteOffset": 270276,
      "bufferView": 0
    },
    {
      "type": "VEC4",
      "componentType": 5121,
      "count": 7530,
      "normalized": false,
      "byteOffset": 0,
      "bufferView": 5
    },
    {
      "type": "VEC4",
      "componentType": 5121,
      "count": 7530,
      "normalized": true,
      "byteOffset": 0,
      "bufferView": 6
    },
    {
      "type": "MAT4",
      "componentType": 5126,
      "count": 53,
      "normalized": false,
      "byteOffset": 0,
      "bufferView": 7
    },
    {
      "type": "VEC3",
      "componentType": 5122,
      "count": 23614,
      "max": [
        22998,
        32767,
        8008
      ],
      "min": [
        -22998,
        -32767,
        -8008
      ],
      "normalized": true,
      "byteOffset": 0,
      "bufferView": 8
    },
    {
      "type": "VEC3",
      "componentType": 5122,
      "count": 23614,
      "normalized": true,
      "byteOffset": 0,
      "bufferView": 9
    },
    {
      "type": "VEC2",
      "componentType": 5123,
      "count": 23614,
      "normalized": true,
      "byteOffset": 0,
      "bufferView": 10
    },
    {
      "type": "MAT4",
      "componentType": 5126,
      "count": 53,
      "normalized": false,
      "byteOffset": 3392,
      "bufferView": 7
    },
    {
      "type": "VEC3",
      "componentType": 5122,
      "count": 810,
      "max": [
        32767,
        11277,
        18670
      ],
      "min": [
        -32767,
        -11277,
        -18670
      ],
      "normalized": true,
      "byteOffset": 0,
      "bufferView": 11
    },
    {
      "type": "VEC3",
      "componentType": 5122,
      "count": 810,
      "normalized": true,
      "byteOffset": 0,
      "bufferView": 12
    },
    {
      "type": "VEC2",
      "componentType": 5123,
      "count": 810,
      "normalized": true,
      "byteOffset": 0,
      "bufferView": 13
    },
    {
      "type": "MAT4",
      "componentType": 5126,
      "count": 53,
      "normalized": false,
      "byteOffset": 6784,
      "bufferView": 7
    },
    {
      "type": "VEC3",
      "componentType": 5122,
      "count": 7530,
      "max": [
        13353,
        32767,
        10417
      ],
      "min": [
        -13353,
        -32767,
        -10417
      ],
      "normalized": true,
      "byteOffset": 0,
      "bufferView": 14
    },
    {
      "type": "VEC3",
      "componentType": 5122,
      "count": 7530,
      "normalized": true,
      "byteOffset": 0,
      "bufferView": 15
    },
    {
      "type": "VEC2",
      "componentType": 5123,
      "count": 7530,
      "normalized": true,
      "byteOffset": 0,
      "bufferView": 16
    }
  ],
  "bufferViews": [
    {
      "buffer": 1,
      "byteOffset": 0,
      "byteLength": 354888,
      "target": 34963,
      "extensions": {
        "EXT_meshopt_compression": {
          "buffer": 0,
          "byteOffset": 0,
          "byteLength": 66267,
          "mode": "TRIANGLES",
          "byteStride": 2,
          "count": 177444
        }
      }
    },
    {
      "buffer": 1,
      "byteOffset": 354888,
      "byteLength": 94456,
      "target": 34962,
      "byteStride": 4,
      "extensions": {
        "EXT_meshopt_compression": {
          "buffer": 0,
          "byteOffset": 66268,
          "byteLength": 15607,
          "mode": "ATTRIBUTES",
          "byteStride": 4,
          "count": 23614
        }
      }
    },
    {
      "buffer": 1,
      "byteOffset": 449344,
      "byteLength": 94456,
      "target": 34962,
      "byteStride": 4,
      "extensions": {
        "EXT_meshopt_compression": {
          "buffer": 0,
          "byteOffset": 81876,
          "byteLength": 40258,
          "mode": "ATTRIBUTES",
          "byteStride": 4,
          "count": 23614
        }
      }
    },
    {
      "buffer": 1,
      "byteOffset": 543800,
      "byteLength": 3240,
      "target": 34962,
      "byteStride": 4,
      "extensions": {
        "EXT_meshopt_compression": {
          "buffer": 0,
          "byteOffset": 122136,
          "byteLength": 526,
          "mode": "ATTRIBUTES",
          "byteStride": 4,
          "count": 810
        }
      }
    },
    {
      "buffer": 1,
      "byteOffset": 547040,
      "byteLength": 3240,
      "target": 34962,
      "byteStride": 4,
      "extensions": {
        "EXT_meshopt_compression": {
          "buffer": 0,
          "byteOffset": 122664,
          "byteLength": 1191,
          "mode": "ATTRIBUTES",
          "byteStride": 4,
          "count": 810
        }
      }
    },
    {
      "buffer": 1,
      "byteOffset": 550280,
      "byteLength": 30120,
      "target": 34962,
      "byteStride": 4,
      "extensions": {
        "EXT_meshopt_compression": {
          "buffer": 0,
          "byteOffset": 123856,
          "byteLength": 8069,
          "mode": "ATTRIBUTES",
          "byteStride": 4,
          "count": 7530
        }
      }
    },
    {
      "buffer": 1,
      "byteOffset": 580400,
      "byteLength": 30120,
      "target": 34962,
      "byteStride": 4,
      "extensions": {
        "EXT_meshopt_compression": {
          "buffer": 0,
          "byteOffset": 131928,
          "byteLength": 19267,
          "mode": "ATTRIBUTES",
          "byteStride": 4,
          "count": 7530
        }
      }
    },
    {
      "buffer": 1,
      "byteOffset": 610520,
      "byteLength": 10176,
      "extensions": {
        "EXT_meshopt_compression": {
          "buffer": 0,
          "byteOffset": 151196,
          "byteLength": 7011,
          "mode": "ATTRIBUTES",
          "byteStride": 64,
          "count": 159
        }
      }
    },
    {
      "buffer": 1,
      "byteOffset": 620696,
      "byteLength": 188912,
      "target": 34962,
      "byteStride": 8,
      "extensions": {
        "EXT_meshopt_compression": {
          "buffer": 0,
          "byteOffset": 158208,
          "byteLength": 95348,
          "mode": "ATTRIBUTES",
          "byteStride": 8,
          "count": 23614
        }
      }
    },
    {
      "buffer": 1,
      "byteOffset": 809608,
      "byteLength": 188912,
      "target": 34962,
      "byteStride": 8,
      "extensions": {
        "EXT_meshopt_compression": {
          "buffer": 0,
          "byteOffset": 253556,
          "byteLength": 132834,
          "mode": "ATTRIBUTES",
          "byteStride": 8,
          "count": 23614
        }
      }
    },
    {
      "buffer": 1,
      "byteOffset": 998520,
      "byteLength": 94456,
      "target": 34962,
      "byteStride": 4,
      "extensions": {
        "EXT_meshopt_compression": {
          "buffer": 0,
          "byteOffset": 386392,
          "byteLength": 64998,
          "mode": "ATTRIBUTES",
          "byteStride": 4,
          "count": 23614
        }
      }
    },
    {
      "buffer": 1,
      "byteOffset": 1092976,
      "byteLength": 6480,
      "target": 34962,
      "byteStride": 8,
      "extensions": {
        "EXT_meshopt_compression": {
          "buffer": 0,
          "byteOffset": 451392,
          "byteLength": 4350,
          "mode": "ATTRIBUTES",
          "byteStride": 8,
          "count": 810
        }
      }
    },
    {
      "buffer": 1,
      "byteOffset": 1099456,
      "byteLength": 6480,
      "target": 34962,
      "byteStride": 8,
      "extensions": {
        "EXT_meshopt_compression": {
          "buffer": 0,
          "byteOffset": 455744,
          "byteLength": 4929,
          "mode": "ATTRIBUTES",
          "byteStride": 8,
          "count": 810
        }
      }
    },
    {
      "buffer": 1,
      "byteOffset": 1105936,
      "byteLength": 3240,
      "target": 34962,
      "byteStride": 4,
      "extensions": {
        "EXT_meshopt_compression": {
          "buffer": 0,
          "byteOffset": 460676,
          "byteLength": 2948,
          "mode": "ATTRIBUTES",
          "byteStride": 4,
          "count": 810
        }
      }
    },
    {
      "buffer": 1,
      "byteOffset": 1109176,
      "byteLength": 60240,
      "target": 34962,
      "byteStride": 8,
      "extensions": {
        "EXT_meshopt_compression": {
          "buffer": 0,
          "byteOffset": 463624,
          "byteLength": 33784,
          "mode": "ATTRIBUTES",
          "byteStride": 8,
          "count": 7530
        }
      }
    },
    {
      "buffer": 1,
      "byteOffset": 1169416,
      "byteLength": 60240,
      "target": 34962,
      "byteStride": 8,
      "extensions": {
        "EXT_meshopt_compression": {
          "buffer": 0,
          "byteOffset": 497408,
          "byteLength": 39867,
          "mode": "ATTRIBUTES",
          "byteStride": 8,
          "count": 7530
        }
      }
    },
    {
      "buffer": 1,
      "byteOffset": 1229656,
      "byteLength": 30120,
      "target": 34962,
      "byteStride": 4,
      "extensions": {
        "EXT_meshopt_compression": {
          "buffer": 0,
          "byteOffset": 537276,
          "byteLength": 21950,
          "mode": "ATTRIBUTES",
          "byteStride": 4,
          "count": 7530
        }
      }
    }
  ],
  "samplers": [
    {
      "magFilter": 9729,
      "minFilter": 9987,
      "wrapS": 10497,
      "wrapT": 10497
    }
  ],
  "textures": [
    {
      "sampler": 0,
      "extensions": {
        "EXT_texture_webp": {
          "source": 0
        }
      }
    },
    {
      "sampler": 0,
      "extensions": {
        "EXT_texture_webp": {
          "source": 2
        }
      }
    },
    {
      "sampler": 0,
      "extensions": {
        "EXT_texture_webp": {
          "source": 1
        }
      }
    },
    {
      "sampler": 0,
      "extensions": {
        "EXT_texture_webp": {
          "source": 3
        }
      }
    },
    {
      "sampler": 0,
      "extensions": {
        "EXT_texture_webp": {
          "source": 4
        }
      }
    },
    {
      "sampler": 0,
      "extensions": {
        "EXT_texture_webp": {
          "source": 5
        }
      }
    },
    {
      "sampler": 0,
      "extensions": {
        "EXT_texture_webp": {
          "source": 6
        }
      }
    }
  ],
  "images": [
    {
      "name": "skin_body_albedo",
      "mimeType": "image/webp",
      "uri": "textures/5afffb1f9967fde8f1e0.webp"
    },
    {
      "name": "skin_body_orm",
      "mimeType": "image/webp",
      "uri": "textures/abc5d3f95e9d7e2dadfe.webp"
    },
    {
      "name": "skin_body_normal",
      "mimeType": "image/webp",
      "uri": "textures/3a2eba648e013d271139.webp"
    },
    {
      "mimeType": "image/webp",
      "uri": "textures/72d95498a19440b73bf5.webp"
    },
    {
      "name": "weave:leather:dressupdoc_balletflat1",
      "mimeType": "image/webp",
      "uri": "textures/92a2d3c7276201d987d5.webp"
    },
    {
      "mimeType": "image/webp",
      "uri": "textures/ef5f85d289794c3cc630.webp"
    },
    {
      "name": "weave:jersey:toigo_shift_dress:in",
      "mimeType": "image/webp",
      "uri": "textures/00a43b3e5a20a1ffda35.webp"
    }
  ],
  "buffers": [
    {
      "uri": "ines.dress-best.bin",
      "byteLength": 559228
    },
    {
      "byteLength": 1259776,
      "extensions": {
        "EXT_meshopt_compression": {
          "fallback": true
        }
      }
    }
  ],
  "materials": [
    {
      "name": "mh_skin_body",
      "extras": {
        "orm": "R occlusion, G roughness, B specular level (Unreal: F0 = 0.08·B; metallicFactor 0 keeps glTF from reading it as metal)"
      },
      "pbrMetallicRoughness": {
        "metallicFactor": 0,
        "baseColorTexture": {
          "index": 0
        },
        "metallicRoughnessTexture": {
          "index": 2
        }
      },
      "normalTexture": {
        "index": 1
      },
      "occlusionTexture": {
        "index": 2
      }
    },
    {
      "name": "clothes:dressupdoc_balletflat1",
      "extras": {
        "weave": {
          "kind": "leather:dressupdoc_balletflat1",
          "tile_m": null,
          "metres_per_uv": 0.5369
        }
      },
      "alphaMode": "BLEND",
      "doubleSided": true,
      "pbrMetallicRoughness": {
        "roughnessFactor": 0.8039000034332275,
        "metallicFactor": 0,
        "baseColorTexture": {
          "index": 3
        }
      },
      "normalTexture": {
        "index": 4,
        "extensions": {
          "KHR_texture_transform": {}
        }
      }
    },
    {
      "name": "clothes:toigo_shift_dress",
      "extras": {
        "weave": {
          "kind": "jersey:toigo_shift_dress:in",
          "tile_m": null,
          "metres_per_uv": 1.2186
        }
      },
      "alphaMode": "BLEND",
      "doubleSided": true,
      "pbrMetallicRoughness": {
        "roughnessFactor": 0.9803900122642517,
        "metallicFactor": 0,
        "baseColorTexture": {
          "index": 5
        }
      },
      "normalTexture": {
        "index": 6,
        "extensions": {
          "KHR_texture_transform": {}
        }
      }
    }
  ],
  "meshes": [
    {
      "name": "body",
      "primitives": [
        {
          "attributes": {
            "JOINTS_0": 1,
            "WEIGHTS_0": 2,
            "POSITION": 10,
            "NORMAL": 11,
            "TEXCOORD_0": 12
          },
          "mode": 4,
          "material": 0,
          "indices": 0
        }
      ]
    },
    {
      "name": "clothes:dressupdoc_balletflat1",
      "primitives": [
        {
          "attributes": {
            "JOINTS_0": 4,
            "WEIGHTS_0": 5,
            "POSITION": 14,
            "NORMAL": 15,
            "TEXCOORD_0": 16
          },
          "mode": 4,
          "material": 1,
          "indices": 3
        }
      ]
    },
    {
      "name": "clothes:toigo_shift_dress",
      "primitives": [
        {
          "attributes": {
            "JOINTS_0": 7,
            "WEIGHTS_0": 8,
            "POSITION": 18,
            "NORMAL": 19,
            "TEXCOORD_0": 20
          },
          "mode": 4,
          "material": 2,
          "indices": 6
        }
      ]
    }
  ],
  "nodes": [
    {
      "name": "Armature",
      "children": [
        1,
        54,
        55,
        56
      ]
    },
    {
      "name": "Root",
      "rotation": [
        -0.7071067811865475,
        0,
        0,
        0.7071067811865476
      ],
      "children": [
        2
      ]
    },
    {
      "name": "pelvis",
      "translation": [
        -0.000011094247456640005,
        -0.027628593444824278,
        0.9112965393066407
      ],
      "rotation": [
        0.7196603727148619,
        4.6227566671025095e-8,
        4.7914287651261356e-8,
        0.6943262546842813
      ],
      "children": [
        3,
        46,
        50
      ]
    },
    {
      "name": "spine_01",
      "translation": [
        4.947651179491261e-10,
        0.031638641357421636,
        -0.0016678130626678403
      ],
      "rotation": [
        0.09541208926457635,
        6.331867860884517e-8,
        -0.0000019100210710416925,
        0.995437860048791
      ],
      "children": [
        4
      ]
    },
    {
      "name": "spine_02",
      "translation": [
        -4.6434184881050054e-7,
        0.12351582723786726,
        -0.008473746958149654
      ],
      "rotation": [
        -0.14631611340851777,
        -4.6161133307014754e-7,
        -0.000003136484730578493,
        0.989237885923793
      ],
      "children": [
        5
      ]
    },
    {
      "name": "spine_03",
      "translation": [
        -8.056545630264158e-7,
        0.08153892517089827,
        1.9073486325071887e-8
      ],
      "rotation": [
        -0.07439452918320406,
        3.824911212434203e-8,
        -3.3761915526344403e-10,
        0.997228887481509
      ],
      "children": [
        6,
        25,
        44
      ]
    },
    {
      "name": "clavicle_l",
      "translation": [
        0.010216103536081284,
        0.22511155415761222,
        -0.005548416301774
      ],
      "rotation": [
        0.0622089284079442,
        0.0885296893171222,
        -0.7489476540921133,
        0.6537353858907055
      ],
      "children": [
        7
      ]
    },
    {
      "name": "upperarm_l",
      "translation": [
        -1.5612511283791264e-16,
        0.1528439712524414,
        1.734723475976807e-18
      ],
      "rotation": [
        0.011272261623845375,
        -0.025992919173209603,
        -0.3810917841186167,
        0.9241030009409277
      ],
      "children": [
        8
      ]
    },
    {
      "name": "lowerarm_l",
      "translation": [
        -7.629394516150967e-8,
        0.2526926422119141,
        8.583068847385525e-8
      ],
      "rotation": [
        0.4023865077983261,
        -0.010910775729772483,
        0.04767915305329757,
        0.9141623223908119
      ],
      "children": [
        9
      ]
    },
    {
      "name": "hand_l",
      "translation": [
        0.02206947129817477,
        0.22507280192492707,
        -0.04355292043037119
      ],
      "rotation": [
        -0.02259335841821616,
        0.7080849831550193,
        -0.09729370559930181,
        0.6990272753165633
      ],
      "children": [
        10,
        13,
        16,
        19,
        22
      ]
    },
    {
      "name": "index_01_l",
      "translation": [
        -0.023451769344670942,
        0.07735662169808111,
        0.002199646577888903
      ],
      "rotation": [
        0.15880253303134595,
        0.10687811535678127,
        0.010537875242799848,
        0.9814518720477221
      ],
      "children": [
        11
      ]
    },
    {
      "name": "index_02_l",
      "translation": [
        -0.0010131695475181363,
        0.03762215441081104,
        0.0007621102304590788
      ],
      "rotation": [
        0.10870042290848714,
        -0.013868331928239401,
        0.0352401320449617,
        0.9933529184144464
      ],
      "children": [
        12
      ]
    },
    {
      "name": "index_03_l",
      "translation": [
        -0.0002762566258182886,
        0.021210598437580275,
        -0.000191765909576036
      ],
      "rotation": [
        0.020017309725525418,
        -0.006730612985017296,
        0.001617381425674864,
        0.9997756699567769
      ]
    },
    {
      "name": "middle_01_l",
      "translation": [
        -0.0027840063060874803,
        0.07737945419313896,
        -0.002625404810411458
      ],
      "rotation": [
        0.15964636420287048,
        0.006735288624938423,
        -0.03345733065682257,
        0.9865841481137143
      ],
      "children": [
        14
      ]
    },
    {
      "name": "middle_02_l",
      "translation": [
        -0.00009371309980518846,
        0.04175306746219287,
        -0.000014394559567476595
      ],
      "rotation": [
        0.1816278838359249,
        0.013662603927544838,
        0.016158194413235606,
        0.9831396430927333
      ],
      "children": [
        15
      ]
    },
    {
      "name": "middle_03_l",
      "translation": [
        -0.000519269464617278,
        0.026917077646744135,
        -0.00028835158558571106
      ],
      "rotation": [
        0.027486247102150287,
        -0.012527061753014455,
        0.01003984577285103,
        0.9994932618286795
      ]
    },
    {
      "name": "pinky_01_l",
      "translation": [
        0.031729291187996236,
        0.06563833673645397,
        0.012823333276163307
      ],
      "rotation": [
        0.16863648681690427,
        -0.161495185817631,
        -0.19429072044585635,
        0.9527497867858125
      ],
      "children": [
        17
      ]
    },
    {
      "name": "pinky_02_l",
      "translation": [
        -0.000056231909135645575,
        0.026395639043826136,
        0.0017669794631095526
      ],
      "rotation": [
        0.17506704227747344,
        0.002500868518245224,
        -0.006589389197715136,
        0.9845312876261846
      ],
      "children": [
        18
      ]
    },
    {
      "name": "pinky_03_l",
      "translation": [
        0.0001767064069399249,
        0.015391010709230449,
        -0.0002196707139666132
      ],
      "rotation": [
        0.03227903120484967,
        0.002118739341340947,
        0.005150351052306491,
        0.9994633805058183
      ]
    },
    {
      "name": "ring_01_l",
      "translation": [
        0.01564512978919018,
        0.07117752227044155,
        0.002802294209055256
      ],
      "rotation": [
        0.14266540969467176,
        -0.05947578730637774,
        -0.12559953671214616,
        0.9799663096140766
      ],
      "children": [
        20
      ]
    },
    {
      "name": "ring_02_l",
      "translation": [
        0.0005341663355029475,
        0.036007108909792834,
        0.0012070482888170142
      ],
      "rotation": [
        0.2162067214753505,
        -0.03795002021258878,
        0.027662319599523207,
        0.9752175375930839
      ],
      "children": [
        21
      ]
    },
    {
      "name": "ring_03_l",
      "translation": [
        0.00006124585868672039,
        0.029273126574034313,
        0.00008023348746144521
      ],
      "rotation": [
        0.058985802884883566,
        0.014780325045871706,
        0.008318311358775853,
        0.9981147342593949
      ]
    },
    {
      "name": "thumb_01_l",
      "translation": [
        -0.02506047840362656,
        0.01789183509707415,
        0.011724790571272903
      ],
      "rotation": [
        -0.015600964950595,
        0.5660677147617339,
        0.3111584352014359,
        0.763219745813768
      ],
      "children": [
        23
      ]
    },
    {
      "name": "thumb_02_l",
      "translation": [
        -0.00036148456319101685,
        0.03894403762943907,
        -0.00016782662152920944
      ],
      "rotation": [
        0.15416313473310767,
        0.019253224314778026,
        -0.015551410695462576,
        0.9877353870688889
      ],
      "children": [
        24
      ]
    },
    {
      "name": "thumb_03_l",
      "translation": [
        0.00010484283713008136,
        0.023566515785537562,
        -0.0002327856253736757
      ],
      "rotation": [
        0.04899377981012497,
        0.009666506911702047,
        -0.00239899810162573,
        0.9987494245265683
      ]
    },
    {
      "name": "clavicle_r",
      "translation": [
        -0.010220390813391548,
        0.22511135655396458,
        -0.005548457137360728
      ],
      "rotation": [
        0.06220886136409722,
        -0.08853168601658404,
        0.7489540059601684,
        0.6537278448215739
      ],
      "children": [
        26
      ]
    },
    {
      "name": "upperarm_r",
      "translation": [
        1.5258789070812795e-7,
        0.15284399032592783,
        -1.192092894883312e-9
      ],
      "rotation": [
        0.01127335077759195,
        0.02599384729029891,
        0.38109173089909826,
        0.9241029834956834
      ],
      "children": [
        27
      ]
    },
    {
      "name": "lowerarm_r",
      "translation": [
        -1.525878906005751e-7,
        0.252790756225586,
        -1.0967254639328685e-7
      ],
      "rotation": [
        0.4026486055806209,
        0.010941382859507366,
        -0.04787890911196671,
        0.9140361024748155
      ],
      "children": [
        28
      ]
    },
    {
      "name": "hand_r",
      "translation": [
        -0.022336791325722416,
        0.22520885468133778,
        -0.043738541511011586
      ],
      "rotation": [
        -0.023263384002282124,
        -0.7081202417910646,
        0.09657164685427584,
        0.6990697069351381
      ],
      "children": [
        29,
        32,
        35,
        38,
        41
      ]
    },
    {
      "name": "index_01_r",
      "translation": [
        0.02342173597886625,
        0.0772559043668431,
        0.0022005557577577384
      ],
      "rotation": [
        0.1604505217637459,
        -0.10603405140516262,
        -0.009167404314305072,
        0.9812891361400509
      ],
      "children": [
        30
      ]
    },
    {
      "name": "index_02_r",
      "translation": [
        0.0010535026617641552,
        0.0375388586429094,
        0.0007333592758589358
      ],
      "rotation": [
        0.10942806474200828,
        0.01432105561336014,
        -0.03583438963634656,
        0.9932453385404476
      ],
      "children": [
        31
      ]
    },
    {
      "name": "index_03_r",
      "translation": [
        0.00025950493335549774,
        0.020976330025643836,
        -0.00021858616785774831
      ],
      "rotation": [
        0.018820786457290812,
        0.006734425734382439,
        -0.0016564227980780675,
        0.9997988206487699
      ]
    },
    {
      "name": "middle_01_r",
      "translation": [
        0.002745358901132436,
        0.07727992497300362,
        -0.0026191912775778703
      ],
      "rotation": [
        0.16098698641622827,
        -0.006497336962961178,
        0.03331882407897669,
        0.9863725618542951
      ],
      "children": [
        33
      ]
    },
    {
      "name": "middle_02_r",
      "translation": [
        0.0000269005272630074,
        0.04168736620775618,
        0.000004457056597351183
      ],
      "rotation": [
        0.18199093101762245,
        -0.013505458799642206,
        -0.016072033783713826,
        0.9830760872587663
      ],
      "children": [
        34
      ]
    },
    {
      "name": "middle_03_r",
      "translation": [
        0.0005353922529251843,
        0.02684502526766583,
        -0.00033186951023744804
      ],
      "rotation": [
        0.026796017474229737,
        0.01300951155534968,
        -0.009356524084065338,
        0.9995124719150213
      ]
    },
    {
      "name": "pinky_01_r",
      "translation": [
        -0.03171686149812445,
        0.06555086076689043,
        0.012776253680505611
      ],
      "rotation": [
        0.16979412530192636,
        0.1606182939596707,
        0.1949708902812841,
        0.9525534476350197
      ],
      "children": [
        36
      ]
    },
    {
      "name": "pinky_02_r",
      "translation": [
        0.000066910977391893,
        0.026353447524074397,
        0.0017833652682971435
      ],
      "rotation": [
        0.17758887867096695,
        -0.0015481928763309387,
        0.007319481977513102,
        0.984076327555331
      ],
      "children": [
        37
      ]
    },
    {
      "name": "pinky_03_r",
      "translation": [
        -0.00012448058926620154,
        0.01518329875331274,
        -0.0002908137942729816
      ],
      "rotation": [
        0.029845393284949197,
        -0.0025236001083343497,
        -0.005978278572515992,
        0.9995334632354583
      ]
    },
    {
      "name": "ring_01_r",
      "translation": [
        -0.01566232900727938,
        0.07108099083740893,
        0.0027804507332527817
      ],
      "rotation": [
        0.14417322089838489,
        0.059868798736957426,
        0.12580970032322972,
        0.9796947119476345
      ],
      "children": [
        39
      ]
    },
    {
      "name": "ring_02_r",
      "translation": [
        -0.0005434895186558902,
        0.03597389499909112,
        0.0012066734047579963
      ],
      "rotation": [
        0.21642038457037785,
        0.038048508350376244,
        -0.027922647427580174,
        0.97515888649766
      ],
      "children": [
        40
      ]
    },
    {
      "name": "ring_03_r",
      "translation": [
        -0.00007686704947368339,
        0.02923586017708194,
        0.000043046211950115154
      ],
      "rotation": [
        0.058048564927214615,
        -0.014710368828725352,
        -0.007692039296432022,
        0.9981757368771673
      ]
    },
    {
      "name": "thumb_01_r",
      "translation": [
        0.02512315050210049,
        0.01783818697545242,
        0.011658034224661995
      ],
      "rotation": [
        -0.014045202366081684,
        -0.5657519609113496,
        -0.31082284756818673,
        0.7636207229017966
      ],
      "children": [
        42
      ]
    },
    {
      "name": "thumb_02_r",
      "translation": [
        0.00037395858864980314,
        0.038879662570887374,
        -0.00021671177886384632
      ],
      "rotation": [
        0.15462930455434265,
        -0.01937375991355848,
        0.01580737954268491,
        0.9876560951828555
      ],
      "children": [
        43
      ]
    },
    {
      "name": "thumb_03_r",
      "translation": [
        -0.00012913645364165394,
        0.02352546178007331,
        -0.00026536676252413016
      ],
      "rotation": [
        0.04828476108374683,
        -0.010767712918274509,
        0.0024249687428446196,
        0.9987726256421886
      ]
    },
    {
      "name": "neck_01",
      "translation": [
        -0.000002729123703072761,
        0.28180956590852113,
        0.009506290526685302
      ],
      "rotation": [
        0.21377370329353176,
        8.506424976039164e-8,
        -3.8707287447401684e-8,
        0.976883208874101
      ],
      "children": [
        45
      ]
    },
    {
      "name": "head",
      "translation": [
        -9.755265870508264e-7,
        0.099520132216173,
        -0.0008334807968394514
      ],
      "rotation": [
        -0.1073944499548431,
        -2.491389399279488e-8,
        -6.893000121855998e-8,
        0.9942164915745922
      ]
    },
    {
      "name": "thigh_l",
      "translation": [
        0.0914224624633789,
        -0.013892059326171904,
        0.0015384721755981566
      ],
      "rotation": [
        0.9969521262232773,
        0.022744893301479493,
        -0.07404637818578266,
        0.009287719050385066
      ],
      "children": [
        47
      ]
    },
    {
      "name": "calf_l",
      "translation": [
        -9.53674307579977e-9,
        0.42106586456298806,
        -0.000002315044403081168
      ],
      "rotation": [
        -0.021751239318175762,
        0.0023083006247163504,
        -0.05793547171545262,
        0.9980806763250442
      ],
      "children": [
        48
      ]
    },
    {
      "name": "foot_l",
      "translation": [
        -0.047687314497190325,
        0.40432962278411183,
        0.018304842670273287
      ],
      "rotation": [
        -0.6854683552924141,
        -0.061175575555733414,
        0.04088799042186217,
        0.7243748029075827
      ],
      "children": [
        49
      ]
    },
    {
      "name": "ball_l",
      "translation": [
        -0.0016070248537762566,
        0.12138627874864488,
        0.06098677206954795
      ],
      "rotation": [
        -0.02872421350709724,
        0.016067983361167784,
        0.02132103026721038,
        0.9992307807195736
      ]
    },
    {
      "name": "thigh_r",
      "translation": [
        -0.09142246246337889,
        -0.013892059326171944,
        0.001538426876068099
      ],
      "rotation": [
        0.9969521257956953,
        -0.022744912019516908,
        0.07404638525455383,
        0.009287662752425515
      ],
      "children": [
        51
      ]
    },
    {
      "name": "calf_r",
      "translation": [
        -4.163336342344337e-17,
        0.42106025695800786,
        -0.0000023365020752064147
      ],
      "rotation": [
        -0.021701845265787625,
        -0.0023049867603171627,
        0.057922863971831766,
        0.9980824909682543
      ],
      "children": [
        52
      ]
    },
    {
      "name": "foot_r",
      "translation": [
        0.04768294182694589,
        0.4044004676206415,
        0.01825836798439902
      ],
      "rotation": [
        -0.685361703762034,
        0.06109662896796487,
        -0.040817856732476974,
        0.7244863280400258
      ],
      "children": [
        53
      ]
    },
    {
      "name": "ball_r",
      "translation": [
        0.0016046740754519784,
        0.1214288663236504,
        0.06103207998874109
      ],
      "rotation": [
        -0.028854026489875357,
        -0.015870866779761694,
        -0.02137994145124104,
        0.9992289321504468
      ]
    },
    {
      "name": "body",
      "mesh": 0,
      "skin": 0
    },
    {
      "name": "clothes:dressupdoc_balletflat1",
      "mesh": 1,
      "skin": 1
    },
    {
      "name": "clothes:toigo_shift_dress",
      "mesh": 2,
      "skin": 2
    }
  ],
  "skins": [
    {
      "inverseBindMatrices": 9,
      "skeleton": 1,
      "joints": [
        1,
        2,
        3,
        4,
        5,
        6,
        7,
        8,
        9,
        10,
        11,
        12,
        13,
        14,
        15,
        16,
        17,
        18,
        19,
        20,
        21,
        22,
        23,
        24,
        25,
        26,
        27,
        28,
        29,
        30,
        31,
        32,
        33,
        34,
        35,
        36,
        37,
        38,
        39,
        40,
        41,
        42,
        43,
        44,
        45,
        46,
        47,
        48,
        49,
        50,
        51,
        52,
        53
      ]
    },
    {
      "inverseBindMatrices": 13,
      "skeleton": 1,
      "joints": [
        1,
        2,
        3,
        4,
        5,
        6,
        7,
        8,
        9,
        10,
        11,
        12,
        13,
        14,
        15,
        16,
        17,
        18,
        19,
        20,
        21,
        22,
        23,
        24,
        25,
        26,
        27,
        28,
        29,
        30,
        31,
        32,
        33,
        34,
        35,
        36,
        37,
        38,
        39,
        40,
        41,
        42,
        43,
        44,
        45,
        46,
        47,
        48,
        49,
        50,
        51,
        52,
        53
      ]
    },
    {
      "inverseBindMatrices": 17,
      "skeleton": 1,
      "joints": [
        1,
        2,
        3,
        4,
        5,
        6,
        7,
        8,
        9,
        10,
        11,
        12,
        13,
        14,
        15,
        16,
        17,
        18,
        19,
        20,
        21,
        22,
        23,
        24,
        25,
        26,
        27,
        28,
        29,
        30,
        31,
        32,
        33,
        34,
        35,
        36,
        37,
        38,
        39,
        40,
        41,
        42,
        43,
        44,
        45,
        46,
        47,
        48,
        49,
        50,
        51,
        52,
        53
      ]
    }
  ],
  "scenes": [
    {
      "nodes": [
        0
      ]
    }
  ],
  "scene": 0,
  "extensionsUsed": [
    "EXT_meshopt_compression",
    "EXT_texture_webp",
    "KHR_mesh_quantization",
    "KHR_texture_transform"
  ],
  "extensionsRequired": [
    "EXT_meshopt_compression",
    "EXT_texture_webp",
    "KHR_mesh_quantization"
  ]
}