{
  "asset": {
    "generator": "glTF-Transform v4.5.0",
    "version": "2.0"
  },
  "accessors": [
    {
      "type": "SCALAR",
      "componentType": 5123,
      "count": 94290,
      "normalized": false,
      "byteOffset": 0,
      "bufferView": 0
    },
    {
      "type": "VEC4",
      "componentType": 5121,
      "count": 17088,
      "normalized": false,
      "byteOffset": 0,
      "bufferView": 1
    },
    {
      "type": "VEC4",
      "componentType": 5121,
      "count": 17088,
      "normalized": true,
      "byteOffset": 0,
      "bufferView": 2
    },
    {
      "type": "SCALAR",
      "componentType": 5123,
      "count": 28992,
      "normalized": false,
      "byteOffset": 188580,
      "bufferView": 0
    },
    {
      "type": "VEC4",
      "componentType": 5121,
      "count": 5084,
      "normalized": false,
      "byteOffset": 0,
      "bufferView": 3
    },
    {
      "type": "VEC4",
      "componentType": 5121,
      "count": 5084,
      "normalized": true,
      "byteOffset": 0,
      "bufferView": 4
    },
    {
      "type": "SCALAR",
      "componentType": 5123,
      "count": 4668,
      "normalized": false,
      "byteOffset": 246564,
      "bufferView": 0
    },
    {
      "type": "VEC4",
      "componentType": 5121,
      "count": 1020,
      "normalized": false,
      "byteOffset": 0,
      "bufferView": 5
    },
    {
      "type": "VEC4",
      "componentType": 5121,
      "count": 1020,
      "normalized": true,
      "byteOffset": 0,
      "bufferView": 6
    },
    {
      "type": "SCALAR",
      "componentType": 5123,
      "count": 61056,
      "normalized": false,
      "byteOffset": 255900,
      "bufferView": 0
    },
    {
      "type": "VEC4",
      "componentType": 5121,
      "count": 11133,
      "normalized": false,
      "byteOffset": 0,
      "bufferView": 7
    },
    {
      "type": "VEC4",
      "componentType": 5121,
      "count": 11133,
      "normalized": true,
      "byteOffset": 0,
      "bufferView": 8
    },
    {
      "type": "MAT4",
      "componentType": 5126,
      "count": 53,
      "normalized": false,
      "byteOffset": 0,
      "bufferView": 9
    },
    {
      "type": "VEC3",
      "componentType": 5122,
      "count": 17088,
      "max": [
        27155,
        32767,
        9141
      ],
      "min": [
        -27155,
        -32767,
        -9141
      ],
      "normalized": true,
      "byteOffset": 0,
      "bufferView": 10
    },
    {
      "type": "VEC3",
      "componentType": 5122,
      "count": 17088,
      "normalized": true,
      "byteOffset": 0,
      "bufferView": 11
    },
    {
      "type": "VEC2",
      "componentType": 5123,
      "count": 17088,
      "normalized": true,
      "byteOffset": 0,
      "bufferView": 12
    },
    {
      "type": "MAT4",
      "componentType": 5126,
      "count": 53,
      "normalized": false,
      "byteOffset": 3392,
      "bufferView": 9
    },
    {
      "type": "VEC3",
      "componentType": 5122,
      "count": 5084,
      "max": [
        32767,
        29095,
        14929
      ],
      "min": [
        -32767,
        -29095,
        -14929
      ],
      "normalized": true,
      "byteOffset": 0,
      "bufferView": 13
    },
    {
      "type": "VEC3",
      "componentType": 5122,
      "count": 5084,
      "normalized": true,
      "byteOffset": 0,
      "bufferView": 14
    },
    {
      "type": "VEC2",
      "componentType": 5123,
      "count": 5084,
      "normalized": true,
      "byteOffset": 0,
      "bufferView": 15
    },
    {
      "type": "MAT4",
      "componentType": 5126,
      "count": 53,
      "normalized": false,
      "byteOffset": 6784,
      "bufferView": 9
    },
    {
      "type": "VEC3",
      "componentType": 5122,
      "count": 1020,
      "max": [
        32767,
        7372,
        20682
      ],
      "min": [
        -32767,
        -7372,
        -20682
      ],
      "normalized": true,
      "byteOffset": 0,
      "bufferView": 16
    },
    {
      "type": "VEC3",
      "componentType": 5122,
      "count": 1020,
      "normalized": true,
      "byteOffset": 0,
      "bufferView": 17
    },
    {
      "type": "VEC2",
      "componentType": 5123,
      "count": 1020,
      "normalized": true,
      "byteOffset": 0,
      "bufferView": 18
    },
    {
      "type": "MAT4",
      "componentType": 5126,
      "count": 53,
      "normalized": false,
      "byteOffset": 10176,
      "bufferView": 9
    },
    {
      "type": "VEC3",
      "componentType": 5122,
      "count": 11133,
      "max": [
        12685,
        32767,
        8124
      ],
      "min": [
        -12685,
        -32767,
        -8124
      ],
      "normalized": true,
      "byteOffset": 0,
      "bufferView": 19
    },
    {
      "type": "VEC3",
      "componentType": 5122,
      "count": 11133,
      "normalized": true,
      "byteOffset": 0,
      "bufferView": 20
    },
    {
      "type": "VEC2",
      "componentType": 5123,
      "count": 11133,
      "normalized": true,
      "byteOffset": 0,
      "bufferView": 21
    }
  ],
  "bufferViews": [
    {
      "buffer": 1,
      "byteOffset": 0,
      "byteLength": 378012,
      "target": 34963,
      "extensions": {
        "EXT_meshopt_compression": {
          "buffer": 0,
          "byteOffset": 0,
          "byteLength": 70607,
          "mode": "TRIANGLES",
          "byteStride": 2,
          "count": 189006
        }
      }
    },
    {
      "buffer": 1,
      "byteOffset": 378012,
      "byteLength": 68352,
      "target": 34962,
      "byteStride": 4,
      "extensions": {
        "EXT_meshopt_compression": {
          "buffer": 0,
          "byteOffset": 70608,
          "byteLength": 13566,
          "mode": "ATTRIBUTES",
          "byteStride": 4,
          "count": 17088
        }
      }
    },
    {
      "buffer": 1,
      "byteOffset": 446364,
      "byteLength": 68352,
      "target": 34962,
      "byteStride": 4,
      "extensions": {
        "EXT_meshopt_compression": {
          "buffer": 0,
          "byteOffset": 84176,
          "byteLength": 32470,
          "mode": "ATTRIBUTES",
          "byteStride": 4,
          "count": 17088
        }
      }
    },
    {
      "buffer": 1,
      "byteOffset": 514716,
      "byteLength": 20336,
      "target": 34962,
      "byteStride": 4,
      "extensions": {
        "EXT_meshopt_compression": {
          "buffer": 0,
          "byteOffset": 116648,
          "byteLength": 6596,
          "mode": "ATTRIBUTES",
          "byteStride": 4,
          "count": 5084
        }
      }
    },
    {
      "buffer": 1,
      "byteOffset": 535052,
      "byteLength": 20336,
      "target": 34962,
      "byteStride": 4,
      "extensions": {
        "EXT_meshopt_compression": {
          "buffer": 0,
          "byteOffset": 123244,
          "byteLength": 14385,
          "mode": "ATTRIBUTES",
          "byteStride": 4,
          "count": 5084
        }
      }
    },
    {
      "buffer": 1,
      "byteOffset": 555388,
      "byteLength": 4080,
      "target": 34962,
      "byteStride": 4,
      "extensions": {
        "EXT_meshopt_compression": {
          "buffer": 0,
          "byteOffset": 137632,
          "byteLength": 551,
          "mode": "ATTRIBUTES",
          "byteStride": 4,
          "count": 1020
        }
      }
    },
    {
      "buffer": 1,
      "byteOffset": 559468,
      "byteLength": 4080,
      "target": 34962,
      "byteStride": 4,
      "extensions": {
        "EXT_meshopt_compression": {
          "buffer": 0,
          "byteOffset": 138184,
          "byteLength": 1277,
          "mode": "ATTRIBUTES",
          "byteStride": 4,
          "count": 1020
        }
      }
    },
    {
      "buffer": 1,
      "byteOffset": 563548,
      "byteLength": 44532,
      "target": 34962,
      "byteStride": 4,
      "extensions": {
        "EXT_meshopt_compression": {
          "buffer": 0,
          "byteOffset": 139464,
          "byteLength": 6800,
          "mode": "ATTRIBUTES",
          "byteStride": 4,
          "count": 11133
        }
      }
    },
    {
      "buffer": 1,
      "byteOffset": 608080,
      "byteLength": 44532,
      "target": 34962,
      "byteStride": 4,
      "extensions": {
        "EXT_meshopt_compression": {
          "buffer": 0,
          "byteOffset": 146264,
          "byteLength": 19917,
          "mode": "ATTRIBUTES",
          "byteStride": 4,
          "count": 11133
        }
      }
    },
    {
      "buffer": 1,
      "byteOffset": 652612,
      "byteLength": 13568,
      "extensions": {
        "EXT_meshopt_compression": {
          "buffer": 0,
          "byteOffset": 166184,
          "byteLength": 9474,
          "mode": "ATTRIBUTES",
          "byteStride": 64,
          "count": 212
        }
      }
    },
    {
      "buffer": 1,
      "byteOffset": 666180,
      "byteLength": 136704,
      "target": 34962,
      "byteStride": 8,
      "extensions": {
        "EXT_meshopt_compression": {
          "buffer": 0,
          "byteOffset": 175660,
          "byteLength": 68331,
          "mode": "ATTRIBUTES",
          "byteStride": 8,
          "count": 17088
        }
      }
    },
    {
      "buffer": 1,
      "byteOffset": 802884,
      "byteLength": 136704,
      "target": 34962,
      "byteStride": 8,
      "extensions": {
        "EXT_meshopt_compression": {
          "buffer": 0,
          "byteOffset": 243992,
          "byteLength": 96423,
          "mode": "ATTRIBUTES",
          "byteStride": 8,
          "count": 17088
        }
      }
    },
    {
      "buffer": 1,
      "byteOffset": 939588,
      "byteLength": 68352,
      "target": 34962,
      "byteStride": 4,
      "extensions": {
        "EXT_meshopt_compression": {
          "buffer": 0,
          "byteOffset": 340416,
          "byteLength": 45876,
          "mode": "ATTRIBUTES",
          "byteStride": 4,
          "count": 17088
        }
      }
    },
    {
      "buffer": 1,
      "byteOffset": 1007940,
      "byteLength": 40672,
      "target": 34962,
      "byteStride": 8,
      "extensions": {
        "EXT_meshopt_compression": {
          "buffer": 0,
          "byteOffset": 386292,
          "byteLength": 23761,
          "mode": "ATTRIBUTES",
          "byteStride": 8,
          "count": 5084
        }
      }
    },
    {
      "buffer": 1,
      "byteOffset": 1048612,
      "byteLength": 40672,
      "target": 34962,
      "byteStride": 8,
      "extensions": {
        "EXT_meshopt_compression": {
          "buffer": 0,
          "byteOffset": 410056,
          "byteLength": 28070,
          "mode": "ATTRIBUTES",
          "byteStride": 8,
          "count": 5084
        }
      }
    },
    {
      "buffer": 1,
      "byteOffset": 1089284,
      "byteLength": 20336,
      "target": 34962,
      "byteStride": 4,
      "extensions": {
        "EXT_meshopt_compression": {
          "buffer": 0,
          "byteOffset": 438128,
          "byteLength": 15398,
          "mode": "ATTRIBUTES",
          "byteStride": 4,
          "count": 5084
        }
      }
    },
    {
      "buffer": 1,
      "byteOffset": 1109620,
      "byteLength": 8160,
      "target": 34962,
      "byteStride": 8,
      "extensions": {
        "EXT_meshopt_compression": {
          "buffer": 0,
          "byteOffset": 453528,
          "byteLength": 5311,
          "mode": "ATTRIBUTES",
          "byteStride": 8,
          "count": 1020
        }
      }
    },
    {
      "buffer": 1,
      "byteOffset": 1117780,
      "byteLength": 8160,
      "target": 34962,
      "byteStride": 8,
      "extensions": {
        "EXT_meshopt_compression": {
          "buffer": 0,
          "byteOffset": 458840,
          "byteLength": 6240,
          "mode": "ATTRIBUTES",
          "byteStride": 8,
          "count": 1020
        }
      }
    },
    {
      "buffer": 1,
      "byteOffset": 1125940,
      "byteLength": 4080,
      "target": 34962,
      "byteStride": 4,
      "extensions": {
        "EXT_meshopt_compression": {
          "buffer": 0,
          "byteOffset": 465080,
          "byteLength": 3558,
          "mode": "ATTRIBUTES",
          "byteStride": 4,
          "count": 1020
        }
      }
    },
    {
      "buffer": 1,
      "byteOffset": 1130020,
      "byteLength": 89064,
      "target": 34962,
      "byteStride": 8,
      "extensions": {
        "EXT_meshopt_compression": {
          "buffer": 0,
          "byteOffset": 468640,
          "byteLength": 48799,
          "mode": "ATTRIBUTES",
          "byteStride": 8,
          "count": 11133
        }
      }
    },
    {
      "buffer": 1,
      "byteOffset": 1219084,
      "byteLength": 89064,
      "target": 34962,
      "byteStride": 8,
      "extensions": {
        "EXT_meshopt_compression": {
          "buffer": 0,
          "byteOffset": 517440,
          "byteLength": 63471,
          "mode": "ATTRIBUTES",
          "byteStride": 8,
          "count": 11133
        }
      }
    },
    {
      "buffer": 1,
      "byteOffset": 1308148,
      "byteLength": 44532,
      "target": 34962,
      "byteStride": 4,
      "extensions": {
        "EXT_meshopt_compression": {
          "buffer": 0,
          "byteOffset": 580912,
          "byteLength": 32500,
          "mode": "ATTRIBUTES",
          "byteStride": 4,
          "count": 11133
        }
      }
    }
  ],
  "samplers": [
    {
      "magFilter": 9729,
      "minFilter": 9987,
      "wrapS": 10497,
      "wrapT": 10497
    }
  ],
  "textures": [
    {
      "sampler": 0,
      "extensions": {
        "EXT_texture_webp": {
          "source": 0
        }
      }
    },
    {
      "sampler": 0,
      "extensions": {
        "EXT_texture_webp": {
          "source": 2
        }
      }
    },
    {
      "sampler": 0,
      "extensions": {
        "EXT_texture_webp": {
          "source": 1
        }
      }
    },
    {
      "sampler": 0,
      "extensions": {
        "EXT_texture_webp": {
          "source": 3
        }
      }
    },
    {
      "sampler": 0,
      "extensions": {
        "EXT_texture_webp": {
          "source": 4
        }
      }
    },
    {
      "sampler": 0,
      "extensions": {
        "EXT_texture_webp": {
          "source": 5
        }
      }
    },
    {
      "sampler": 0,
      "extensions": {
        "EXT_texture_webp": {
          "source": 6
        }
      }
    },
    {
      "sampler": 0,
      "extensions": {
        "EXT_texture_webp": {
          "source": 7
        }
      }
    },
    {
      "sampler": 0,
      "extensions": {
        "EXT_texture_webp": {
          "source": 8
        }
      }
    }
  ],
  "images": [
    {
      "name": "skin_body_albedo",
      "mimeType": "image/webp",
      "uri": "textures/e7f465e53dca98566965.webp"
    },
    {
      "name": "skin_body_orm",
      "mimeType": "image/webp",
      "uri": "textures/7c9bca28323a9caaccbd.webp"
    },
    {
      "name": "skin_body_normal",
      "mimeType": "image/webp",
      "uri": "textures/3a2eba648e013d271139.webp"
    },
    {
      "mimeType": "image/webp",
      "uri": "textures/ee3ea996cb4dfbcd5901.webp"
    },
    {
      "name": "weave:jersey:elvs_crude_t-shirt_male:in",
      "mimeType": "image/webp",
      "uri": "textures/48587a370d6bab5e87d4.webp"
    },
    {
      "mimeType": "image/webp",
      "uri": "textures/2e0f423cdae28fb40cd2.webp"
    },
    {
      "name": "weave:leather:punkduck_comfortable_sneakers",
      "mimeType": "image/webp",
      "uri": "textures/97da4b13b231681c62d7.webp"
    },
    {
      "mimeType": "image/webp",
      "uri": "textures/8c79b39071e1709854fb.webp"
    },
    {
      "name": "weave:denim:punkduck_male_classic_jeans:in",
      "mimeType": "image/webp",
      "uri": "textures/64e56246eb811be3c8d9.webp"
    }
  ],
  "buffers": [
    {
      "uri": "kojo.dress-light.bin",
      "byteLength": 613412
    },
    {
      "byteLength": 1352680,
      "extensions": {
        "EXT_meshopt_compression": {
          "fallback": true
        }
      }
    }
  ],
  "materials": [
    {
      "name": "mh_skin_body",
      "extras": {
        "orm": "R occlusion, G roughness, B specular level (Unreal: F0 = 0.08·B; metallicFactor 0 keeps glTF from reading it as metal)"
      },
      "pbrMetallicRoughness": {
        "metallicFactor": 0,
        "baseColorTexture": {
          "index": 0
        },
        "metallicRoughnessTexture": {
          "index": 2
        }
      },
      "normalTexture": {
        "index": 1
      },
      "occlusionTexture": {
        "index": 2
      }
    },
    {
      "name": "clothes:elvs_crude_t-shirt_male",
      "extras": {
        "weave": {
          "kind": "jersey:elvs_crude_t-shirt_male:in",
          "tile_m": null,
          "metres_per_uv": 1.1876
        }
      },
      "alphaMode": "BLEND",
      "doubleSided": true,
      "pbrMetallicRoughness": {
        "roughnessFactor": 0.8039000034332275,
        "metallicFactor": 0,
        "baseColorTexture": {
          "index": 3
        }
      },
      "normalTexture": {
        "index": 4,
        "extensions": {
          "KHR_texture_transform": {}
        }
      }
    },
    {
      "name": "clothes:punkduck_comfortable_sneakers",
      "extras": {
        "weave": {
          "kind": "leather:punkduck_comfortable_sneakers",
          "tile_m": null,
          "metres_per_uv": 0.5729
        }
      },
      "alphaMode": "BLEND",
      "doubleSided": true,
      "pbrMetallicRoughness": {
        "roughnessFactor": 0.8999999761581421,
        "metallicFactor": 0,
        "baseColorTexture": {
          "index": 5
        }
      },
      "normalTexture": {
        "index": 6,
        "extensions": {
          "KHR_texture_transform": {}
        }
      }
    },
    {
      "name": "clothes:punkduck_male_classic_jeans",
      "extras": {
        "weave": {
          "kind": "denim:punkduck_male_classic_jeans:in",
          "tile_m": null,
          "metres_per_uv": 1.3174
        }
      },
      "alphaMode": "BLEND",
      "doubleSided": true,
      "pbrMetallicRoughness": {
        "roughnessFactor": 0.8039000034332275,
        "metallicFactor": 0,
        "baseColorTexture": {
          "index": 7
        }
      },
      "normalTexture": {
        "index": 8,
        "extensions": {
          "KHR_texture_transform": {}
        }
      }
    }
  ],
  "meshes": [
    {
      "name": "body",
      "primitives": [
        {
          "attributes": {
            "JOINTS_0": 1,
            "WEIGHTS_0": 2,
            "POSITION": 13,
            "NORMAL": 14,
            "TEXCOORD_0": 15
          },
          "mode": 4,
          "material": 0,
          "indices": 0
        }
      ]
    },
    {
      "name": "clothes:elvs_crude_t-shirt_male",
      "primitives": [
        {
          "attributes": {
            "JOINTS_0": 4,
            "WEIGHTS_0": 5,
            "POSITION": 17,
            "NORMAL": 18,
            "TEXCOORD_0": 19
          },
          "mode": 4,
          "material": 1,
          "indices": 3
        }
      ]
    },
    {
      "name": "clothes:punkduck_comfortable_sneakers",
      "primitives": [
        {
          "attributes": {
            "JOINTS_0": 7,
            "WEIGHTS_0": 8,
            "POSITION": 21,
            "NORMAL": 22,
            "TEXCOORD_0": 23
          },
          "mode": 4,
          "material": 2,
          "indices": 6
        }
      ]
    },
    {
      "name": "clothes:punkduck_male_classic_jeans",
      "primitives": [
        {
          "attributes": {
            "JOINTS_0": 10,
            "WEIGHTS_0": 11,
            "POSITION": 25,
            "NORMAL": 26,
            "TEXCOORD_0": 27
          },
          "mode": 4,
          "material": 3,
          "indices": 9
        }
      ]
    }
  ],
  "nodes": [
    {
      "name": "Armature",
      "children": [
        1,
        54,
        55,
        56,
        57
      ]
    },
    {
      "name": "Root",
      "rotation": [
        -0.7071067811865475,
        0,
        0,
        0.7071067811865476
      ],
      "children": [
        2
      ]
    },
    {
      "name": "pelvis",
      "translation": [
        0.000004717885749414563,
        -0.031138739585876526,
        0.9799300384521484
      ],
      "rotation": [
        0.7196603727148619,
        4.6227566671025095e-8,
        4.7914287651261356e-8,
        0.6943262546842813
      ],
      "children": [
        3,
        46,
        50
      ]
    },
    {
      "name": "spine_01",
      "translation": [
        5.858601072923907e-10,
        0.021133346557617345,
        -0.0021657711267471375
      ],
      "rotation": [
        0.09541208926457635,
        6.331867860884517e-8,
        -0.0000019100210710416925,
        0.995437860048791
      ],
      "children": [
        4
      ]
    },
    {
      "name": "spine_02",
      "translation": [
        -3.767186411967686e-7,
        0.10036642730487409,
        -0.007433611164170621
      ],
      "rotation": [
        -0.14631611340851777,
        -4.6161133307014754e-7,
        -0.000003136484730578493,
        0.989237885923793
      ],
      "children": [
        5
      ]
    },
    {
      "name": "spine_03",
      "translation": [
        -8.076801896262444e-7,
        0.08174400329589812,
        9.536743138249815e-9
      ],
      "rotation": [
        -0.07439452918320406,
        3.824911212434203e-8,
        -3.3761915526344403e-10,
        0.997228887481509
      ],
      "children": [
        6,
        25,
        44
      ]
    },
    {
      "name": "clavicle_l",
      "translation": [
        0.013624251479464741,
        0.2437610258263905,
        -0.008316995868415247
      ],
      "rotation": [
        0.06221399724509858,
        0.08852603769681418,
        -0.7489104461763004,
        0.6537780225768558
      ],
      "children": [
        7
      ]
    },
    {
      "name": "upperarm_l",
      "translation": [
        -1.5258789045832777e-7,
        0.18600975036621095,
        -2.384185793236071e-9
      ],
      "rotation": [
        0.011270685609237005,
        -0.02599355508634939,
        -0.38114440881474176,
        0.9240812985712521
      ],
      "children": [
        8
      ]
    },
    {
      "name": "lowerarm_l",
      "translation": [
        7.629394532804312e-8,
        0.26530929565429684,
        8.583068847583392e-8
      ],
      "rotation": [
        0.4441522545914066,
        -0.013069063000823713,
        0.07263343988827671,
        0.8929066903902373
      ],
      "children": [
        9
      ]
    },
    {
      "name": "hand_l",
      "translation": [
        0.040966046893140096,
        0.26360166052378287,
        -0.07785893218005493
      ],
      "rotation": [
        -0.04708507326263629,
        0.696175644460482,
        -0.1466070184058974,
        0.7011624990613929
      ],
      "children": [
        10,
        13,
        16,
        19,
        22
      ]
    },
    {
      "name": "index_01_l",
      "translation": [
        -0.03008162387453711,
        0.08841814251930336,
        0.002419906810017025
      ],
      "rotation": [
        0.15596852191832916,
        0.10510577625595362,
        0.020192170549890354,
        0.9819464711565133
      ],
      "children": [
        11
      ]
    },
    {
      "name": "index_02_l",
      "translation": [
        -0.0009006965765512021,
        0.04322073672422039,
        0.0012608244696742377
      ],
      "rotation": [
        0.12309922618303304,
        -0.032583765957618804,
        0.01951315471684897,
        0.9916673411493161
      ],
      "children": [
        12
      ]
    },
    {
      "name": "index_03_l",
      "translation": [
        -0.00003299524099094342,
        0.02698597705995412,
        -0.00012856580220310665
      ],
      "rotation": [
        0.02267330785510463,
        -0.011881727670477451,
        -0.003840527513607664,
        0.99966494187147
      ]
    },
    {
      "name": "middle_01_l",
      "translation": [
        -0.004887704389454722,
        0.09001887679476789,
        -0.003049373733236438
      ],
      "rotation": [
        0.1566777055117341,
        -0.006191444823327904,
        -0.03321675423047692,
        0.9870716335935149
      ],
      "children": [
        14
      ]
    },
    {
      "name": "middle_02_l",
      "translation": [
        -0.00013463679552874405,
        0.04887875306982031,
        0.0007404051964390312
      ],
      "rotation": [
        0.1859733770121689,
        0.013636434884650096,
        0.006945290634338398,
        0.9824356027874454
      ],
      "children": [
        15
      ]
    },
    {
      "name": "middle_03_l",
      "translation": [
        -0.0006776163703894125,
        0.032430444300084,
        -0.00015177913886965655
      ],
      "rotation": [
        0.03923227985664409,
        -0.011923384013497212,
        0.010933121600448509,
        0.9990991582335492
      ]
    },
    {
      "name": "pinky_01_l",
      "translation": [
        0.038110962640362726,
        0.07367882510086504,
        0.01556472630817074
      ],
      "rotation": [
        0.15441226467639635,
        -0.17148795628769353,
        -0.18883127154234078,
        0.9545111231690699
      ],
      "children": [
        17
      ]
    },
    {
      "name": "pinky_02_l",
      "translation": [
        0.00022986599816088304,
        0.03180446981748555,
        0.002966946111116475
      ],
      "rotation": [
        0.18065846228303614,
        0.016986930166107417,
        -0.017503366332389254,
        0.9832434064747624
      ],
      "children": [
        18
      ]
    },
    {
      "name": "pinky_03_l",
      "translation": [
        0.0003752602596350241,
        0.019932275698531975,
        -0.00004947415993872273
      ],
      "rotation": [
        0.039253284733438296,
        0.004508095354417161,
        0.0007632317201918048,
        0.9992188319838915
      ]
    },
    {
      "name": "ring_01_l",
      "translation": [
        0.018548386515390224,
        0.08209576585548778,
        0.0036938199591300402
      ],
      "rotation": [
        0.1336875915008205,
        -0.052721998989024965,
        -0.11046247044421652,
        0.9834358450476939
      ],
      "children": [
        20
      ]
    },
    {
      "name": "ring_02_l",
      "translation": [
        0.000721276558377601,
        0.04280685472692691,
        0.002263676896408384
      ],
      "rotation": [
        0.2174033917191676,
        -0.039013166990469174,
        0.010636306456653088,
        0.9752438705551223
      ],
      "children": [
        21
      ]
    },
    {
      "name": "ring_03_l",
      "translation": [
        0.000449951910240165,
        0.034141347779835886,
        0.0005834190217673951
      ],
      "rotation": [
        0.07102849960672405,
        0.0029375525773151674,
        0.006213245219646597,
        0.9974506096104778
      ]
    },
    {
      "name": "thumb_01_l",
      "translation": [
        -0.028816592874656315,
        0.016920964249426573,
        0.013970409935842365
      ],
      "rotation": [
        -0.01673221633998274,
        0.5810983879170315,
        0.3345459030768506,
        0.7417032662939229
      ],
      "children": [
        23
      ]
    },
    {
      "name": "thumb_02_l",
      "translation": [
        0.0015289707159543697,
        0.0479142891417062,
        0.0007616204076120736
      ],
      "rotation": [
        0.1474767905968886,
        0.026450798773508283,
        -0.025951108922862877,
        0.9883711304085924
      ],
      "children": [
        24
      ]
    },
    {
      "name": "thumb_03_l",
      "translation": [
        -0.00015024436629829108,
        0.029552169855052074,
        0.0005773088223891519
      ],
      "rotation": [
        0.04863850526323826,
        0.015247631131673196,
        -0.0014141814524629994,
        0.9986990565938519
      ]
    },
    {
      "name": "clavicle_r",
      "translation": [
        -0.013628887538278922,
        0.24376076411912456,
        -0.008317076410522529
      ],
      "rotation": [
        0.06221400029933812,
        -0.08852808264252947,
        0.7489165288335757,
        0.6537707775591223
      ],
      "children": [
        26
      ]
    },
    {
      "name": "upperarm_r",
      "translation": [
        -2.0816681711721685e-17,
        0.18600971221923826,
        0
      ],
      "rotation": [
        0.01127181914899442,
        0.02599453798033056,
        0.38114469815258456,
        0.9240811377570894
      ],
      "children": [
        27
      ]
    },
    {
      "name": "lowerarm_r",
      "translation": [
        -1.5258789087813085e-7,
        0.2656349945068359,
        -1.2874603271591928e-7
      ],
      "rotation": [
        0.4445244507158361,
        0.013068536969293216,
        -0.07280986518378996,
        0.8927070905897325
      ],
      "children": [
        28
      ]
    },
    {
      "name": "hand_r",
      "translation": [
        -0.04115759523025975,
        0.26360840664643276,
        -0.07808323265352929
      ],
      "rotation": [
        -0.04740144013006052,
        -0.6962890821514238,
        0.1464796650868887,
        0.7010551513728126
      ],
      "children": [
        29,
        32,
        35,
        38,
        41
      ]
    },
    {
      "name": "index_01_r",
      "translation": [
        0.030026341496924836,
        0.0883074696004767,
        0.0024110892972820097
      ],
      "rotation": [
        0.1572207441603627,
        -0.10418892060644139,
        -0.018460576729363704,
        0.9818785635379489
      ],
      "children": [
        30
      ]
    },
    {
      "name": "index_02_r",
      "translation": [
        0.0009687856442291282,
        0.04306069796031592,
        0.0011938115220418988
      ],
      "rotation": [
        0.12321117319231296,
        0.032515231839074364,
        -0.020883858430458944,
        0.9916277683466119
      ],
      "children": [
        31
      ]
    },
    {
      "name": "index_03_r",
      "translation": [
        -0.000025146751517005073,
        0.02677450964184594,
        -0.00016101434882098697
      ],
      "rotation": [
        0.02191811354055972,
        0.012287207699853513,
        0.004203239329414771,
        0.9996754241277034
      ]
    },
    {
      "name": "middle_01_r",
      "translation": [
        0.004835756357972683,
        0.08982786695785738,
        -0.0030670328153222237
      ],
      "rotation": [
        0.15725117238817152,
        0.00657925629382471,
        0.03305732926727366,
        0.986983280076659
      ],
      "children": [
        33
      ]
    },
    {
      "name": "middle_02_r",
      "translation": [
        0.000022760860680790668,
        0.04878768683621598,
        0.0007601280534047516
      ],
      "rotation": [
        0.18652659277645417,
        -0.0139691134242895,
        -0.006669768213803059,
        0.9823279535111074
      ],
      "children": [
        34
      ]
    },
    {
      "name": "middle_03_r",
      "translation": [
        0.000734023738569272,
        0.03235877958033563,
        -0.00021495314839414803
      ],
      "rotation": [
        0.03850501105382456,
        0.012457634661114393,
        -0.010565617043129558,
        0.9991248866877919
      ]
    },
    {
      "name": "pinky_01_r",
      "translation": [
        -0.03810998878611818,
        0.07353882992872263,
        0.015461193654004557
      ],
      "rotation": [
        0.15541567052812844,
        0.17101640222754305,
        0.18899191736456972,
        0.9544010764318652
      ],
      "children": [
        36
      ]
    },
    {
      "name": "pinky_02_r",
      "translation": [
        -0.0002246174908966947,
        0.031732875391940446,
        0.0030160807252792576
      ],
      "rotation": [
        0.18198723968211433,
        -0.01544602682110797,
        0.01807930871859623,
        0.9830133282130941
      ],
      "children": [
        37
      ]
    },
    {
      "name": "pinky_03_r",
      "translation": [
        -0.00030327531570437105,
        0.0196908454070746,
        -0.00017927388395910793
      ],
      "rotation": [
        0.03771418936533,
        -0.005663240324670916,
        -0.001183866313262371,
        0.9992718179204763
      ]
    },
    {
      "name": "ring_01_r",
      "translation": [
        -0.01856919681673163,
        0.0819418071261786,
        0.003595289627524756
      ],
      "rotation": [
        0.13512689608608544,
        0.05372658649887276,
        0.11082333820711711,
        0.983144121462337
      ],
      "children": [
        39
      ]
    },
    {
      "name": "ring_02_r",
      "translation": [
        -0.0007221503361159592,
        0.042764598726421965,
        0.0022736174716366797
      ],
      "rotation": [
        0.21717518047682832,
        0.03905770408815894,
        -0.01109533019524015,
        0.9752878192534127
      ],
      "children": [
        40
      ]
    },
    {
      "name": "ring_03_r",
      "translation": [
        -0.0004696210723241223,
        0.03408487286446453,
        0.0005190339304025349
      ],
      "rotation": [
        0.070207469874205,
        -0.0030954424053631874,
        -0.005769956833789715,
        0.9975109207463916
      ]
    },
    {
      "name": "thumb_01_r",
      "translation": [
        0.028959991586895596,
        0.016941965900241218,
        0.013966389037334048
      ],
      "rotation": [
        -0.014989292546687188,
        -0.5810264738202177,
        -0.33281810863871714,
        0.7425736760693452
      ],
      "children": [
        42
      ]
    },
    {
      "name": "thumb_02_r",
      "translation": [
        -0.0014951788780720454,
        0.04775898461655412,
        0.000671624253319611
      ],
      "rotation": [
        0.14735243393995914,
        -0.025864468622627222,
        0.025937897345068378,
        0.9884055417469875
      ],
      "children": [
        43
      ]
    },
    {
      "name": "thumb_03_r",
      "translation": [
        0.00011242207377171187,
        0.02946441023480109,
        0.0005149226502114777
      ],
      "rotation": [
        0.04737426162137357,
        -0.01746055174324019,
        0.0014287112291728348,
        0.9987235689883738
      ]
    },
    {
      "name": "neck_01",
      "translation": [
        -0.0000029443694480470606,
        0.3033052098262125,
        0.011091950073917374
      ],
      "rotation": [
        0.21377358540871436,
        7.201278528799954e-8,
        -3.605810832152168e-8,
        0.9768832346711129
      ],
      "children": [
        45
      ]
    },
    {
      "name": "head",
      "translation": [
        -0.0000010670776162010158,
        0.10879837650613242,
        -0.0009099520677373256
      ],
      "rotation": [
        -0.10739444995484311,
        -2.4913893714328682e-8,
        -6.893000104130708e-8,
        0.9942164915745924
      ]
    },
    {
      "name": "thigh_l",
      "translation": [
        0.09097437858581543,
        -0.029277114868164058,
        -0.0006613272428512493
      ],
      "rotation": [
        0.9969521262232773,
        0.022744893301479493,
        -0.07404637818578266,
        0.009287719050385066
      ],
      "children": [
        47
      ]
    },
    {
      "name": "calf_l",
      "translation": [
        -1.907348627649963e-8,
        0.42272701263427725,
        9.417533874400696e-7
      ],
      "rotation": [
        -0.012446808740092404,
        0.002914506010832516,
        -0.09541391374232183,
        0.9953555986034706
      ],
      "children": [
        48
      ]
    },
    {
      "name": "foot_l",
      "translation": [
        -0.0880304731749484,
        0.4463930578600842,
        0.007587989531939288
      ],
      "rotation": [
        -0.6905168777532354,
        -0.09372048853349747,
        0.0612527100935517,
        0.714598500609371
      ],
      "children": [
        49
      ]
    },
    {
      "name": "ball_l",
      "translation": [
        -0.0013913093341338945,
        0.13825119569605904,
        0.06350817540061228
      ],
      "rotation": [
        -0.02359686304484163,
        0.02263098274243668,
        0.026352358724809826,
        0.9991179008826703
      ]
    },
    {
      "name": "thigh_r",
      "translation": [
        -0.0909743881225586,
        -0.029277114868164002,
        -0.0006613725423812999
      ],
      "rotation": [
        0.9969521257956953,
        -0.022744912019516908,
        0.07404638525455383,
        0.009287662752425515
      ],
      "children": [
        51
      ]
    },
    {
      "name": "calf_r",
      "translation": [
        1.907348627649963e-8,
        0.4227498245239259,
        9.155273437422284e-7
      ],
      "rotation": [
        -0.01248591091143545,
        -0.00291863458490755,
        0.09542396471247133,
        0.99535413324074
      ],
      "children": [
        52
      ]
    },
    {
      "name": "foot_r",
      "translation": [
        0.0880484789418239,
        0.44629647077053414,
        0.007607641500335598
      ],
      "rotation": [
        -0.6906282384898709,
        0.09381047830433091,
        -0.061176021506080355,
        0.7144856364919999
      ],
      "children": [
        53
      ]
    },
    {
      "name": "ball_r",
      "translation": [
        0.0014081799748474344,
        0.13822058749501934,
        0.0634584181749379
      ],
      "rotation": [
        -0.023451347593788047,
        -0.022802758313925205,
        -0.026298435243597797,
        0.9991188421869794
      ]
    },
    {
      "name": "body",
      "mesh": 0,
      "skin": 0
    },
    {
      "name": "clothes:elvs_crude_t-shirt_male",
      "mesh": 1,
      "skin": 1
    },
    {
      "name": "clothes:punkduck_comfortable_sneakers",
      "mesh": 2,
      "skin": 2
    },
    {
      "name": "clothes:punkduck_male_classic_jeans",
      "mesh": 3,
      "skin": 3
    }
  ],
  "skins": [
    {
      "inverseBindMatrices": 12,
      "skeleton": 1,
      "joints": [
        1,
        2,
        3,
        4,
        5,
        6,
        7,
        8,
        9,
        10,
        11,
        12,
        13,
        14,
        15,
        16,
        17,
        18,
        19,
        20,
        21,
        22,
        23,
        24,
        25,
        26,
        27,
        28,
        29,
        30,
        31,
        32,
        33,
        34,
        35,
        36,
        37,
        38,
        39,
        40,
        41,
        42,
        43,
        44,
        45,
        46,
        47,
        48,
        49,
        50,
        51,
        52,
        53
      ]
    },
    {
      "inverseBindMatrices": 16,
      "skeleton": 1,
      "joints": [
        1,
        2,
        3,
        4,
        5,
        6,
        7,
        8,
        9,
        10,
        11,
        12,
        13,
        14,
        15,
        16,
        17,
        18,
        19,
        20,
        21,
        22,
        23,
        24,
        25,
        26,
        27,
        28,
        29,
        30,
        31,
        32,
        33,
        34,
        35,
        36,
        37,
        38,
        39,
        40,
        41,
        42,
        43,
        44,
        45,
        46,
        47,
        48,
        49,
        50,
        51,
        52,
        53
      ]
    },
    {
      "inverseBindMatrices": 20,
      "skeleton": 1,
      "joints": [
        1,
        2,
        3,
        4,
        5,
        6,
        7,
        8,
        9,
        10,
        11,
        12,
        13,
        14,
        15,
        16,
        17,
        18,
        19,
        20,
        21,
        22,
        23,
        24,
        25,
        26,
        27,
        28,
        29,
        30,
        31,
        32,
        33,
        34,
        35,
        36,
        37,
        38,
        39,
        40,
        41,
        42,
        43,
        44,
        45,
        46,
        47,
        48,
        49,
        50,
        51,
        52,
        53
      ]
    },
    {
      "inverseBindMatrices": 24,
      "skeleton": 1,
      "joints": [
        1,
        2,
        3,
        4,
        5,
        6,
        7,
        8,
        9,
        10,
        11,
        12,
        13,
        14,
        15,
        16,
        17,
        18,
        19,
        20,
        21,
        22,
        23,
        24,
        25,
        26,
        27,
        28,
        29,
        30,
        31,
        32,
        33,
        34,
        35,
        36,
        37,
        38,
        39,
        40,
        41,
        42,
        43,
        44,
        45,
        46,
        47,
        48,
        49,
        50,
        51,
        52,
        53
      ]
    }
  ],
  "scenes": [
    {
      "nodes": [
        0
      ]
    }
  ],
  "scene": 0,
  "extensionsUsed": [
    "EXT_meshopt_compression",
    "EXT_texture_webp",
    "KHR_mesh_quantization",
    "KHR_texture_transform"
  ],
  "extensionsRequired": [
    "EXT_meshopt_compression",
    "EXT_texture_webp",
    "KHR_mesh_quantization"
  ]
}