{
  "asset": {
    "generator": "glTF-Transform v4.5.0",
    "version": "2.0"
  },
  "accessors": [
    {
      "type": "SCALAR",
      "componentType": 5123,
      "count": 46470,
      "normalized": false,
      "byteOffset": 0,
      "bufferView": 0
    },
    {
      "type": "VEC4",
      "componentType": 5121,
      "count": 17494,
      "normalized": false,
      "byteOffset": 0,
      "bufferView": 1
    },
    {
      "type": "VEC4",
      "componentType": 5121,
      "count": 17494,
      "normalized": true,
      "byteOffset": 0,
      "bufferView": 2
    },
    {
      "type": "VEC4",
      "componentType": 5121,
      "count": 17494,
      "normalized": true,
      "byteOffset": 0,
      "bufferView": 3
    },
    {
      "type": "MAT4",
      "componentType": 5126,
      "count": 53,
      "normalized": false,
      "byteOffset": 0,
      "bufferView": 4
    },
    {
      "type": "VEC3",
      "componentType": 5122,
      "count": 17494,
      "max": [
        5952,
        32767,
        7772
      ],
      "min": [
        -5952,
        24907,
        -7772
      ],
      "normalized": true,
      "byteOffset": 0,
      "bufferView": 5
    },
    {
      "type": "VEC3",
      "componentType": 5122,
      "count": 17494,
      "normalized": true,
      "byteOffset": 0,
      "bufferView": 6
    },
    {
      "type": "VEC2",
      "componentType": 5123,
      "count": 17494,
      "normalized": true,
      "byteOffset": 0,
      "bufferView": 7
    },
    {
      "type": "VEC4",
      "componentType": 5122,
      "count": 17494,
      "normalized": true,
      "byteOffset": 0,
      "bufferView": 8
    },
    {
      "type": "VEC3",
      "componentType": 5122,
      "count": 17494,
      "max": [
        0,
        0,
        128
      ],
      "min": [
        -40,
        -216,
        0
      ],
      "normalized": true,
      "byteOffset": 0,
      "bufferView": 9
    },
    {
      "type": "VEC3",
      "componentType": 5122,
      "count": 17494,
      "max": [
        48,
        0,
        136
      ],
      "min": [
        0,
        -200,
        0
      ],
      "normalized": true,
      "byteOffset": 0,
      "bufferView": 10
    },
    {
      "type": "VEC3",
      "componentType": 5122,
      "count": 17494,
      "max": [
        24,
        32,
        260
      ],
      "min": [
        -24,
        -216,
        0
      ],
      "normalized": true,
      "byteOffset": 0,
      "bufferView": 11
    },
    {
      "type": "VEC3",
      "componentType": 5122,
      "count": 17494,
      "max": [
        72,
        16,
        176
      ],
      "min": [
        0,
        -120,
        0
      ],
      "normalized": true,
      "byteOffset": 0,
      "bufferView": 12
    },
    {
      "type": "VEC3",
      "componentType": 5122,
      "count": 17494,
      "max": [
        8,
        24,
        168
      ],
      "min": [
        -72,
        -128,
        0
      ],
      "normalized": true,
      "byteOffset": 0,
      "bufferView": 13
    }
  ],
  "bufferViews": [
    {
      "buffer": 1,
      "byteOffset": 0,
      "byteLength": 92940,
      "target": 34963,
      "extensions": {
        "EXT_meshopt_compression": {
          "buffer": 0,
          "byteOffset": 0,
          "byteLength": 15513,
          "mode": "TRIANGLES",
          "byteStride": 2,
          "count": 46470
        }
      }
    },
    {
      "buffer": 1,
      "byteOffset": 92940,
      "byteLength": 69976,
      "target": 34962,
      "byteStride": 4,
      "extensions": {
        "EXT_meshopt_compression": {
          "buffer": 0,
          "byteOffset": 15516,
          "byteLength": 1129,
          "mode": "ATTRIBUTES",
          "byteStride": 4,
          "count": 17494
        }
      }
    },
    {
      "buffer": 1,
      "byteOffset": 162916,
      "byteLength": 69976,
      "target": 34962,
      "byteStride": 4,
      "extensions": {
        "EXT_meshopt_compression": {
          "buffer": 0,
          "byteOffset": 16648,
          "byteLength": 1129,
          "mode": "ATTRIBUTES",
          "byteStride": 4,
          "count": 17494
        }
      }
    },
    {
      "buffer": 1,
      "byteOffset": 232892,
      "byteLength": 69976,
      "target": 34962,
      "byteStride": 4,
      "extensions": {
        "EXT_meshopt_compression": {
          "buffer": 0,
          "byteOffset": 17780,
          "byteLength": 69396,
          "mode": "ATTRIBUTES",
          "byteStride": 4,
          "count": 17494
        }
      }
    },
    {
      "buffer": 1,
      "byteOffset": 302868,
      "byteLength": 3392,
      "extensions": {
        "EXT_meshopt_compression": {
          "buffer": 0,
          "byteOffset": 87176,
          "byteLength": 2526,
          "mode": "ATTRIBUTES",
          "byteStride": 64,
          "count": 53
        }
      }
    },
    {
      "buffer": 1,
      "byteOffset": 306260,
      "byteLength": 139952,
      "target": 34962,
      "byteStride": 8,
      "extensions": {
        "EXT_meshopt_compression": {
          "buffer": 0,
          "byteOffset": 89704,
          "byteLength": 81341,
          "mode": "ATTRIBUTES",
          "byteStride": 8,
          "count": 17494
        }
      }
    },
    {
      "buffer": 1,
      "byteOffset": 446212,
      "byteLength": 139952,
      "target": 34962,
      "byteStride": 8,
      "extensions": {
        "EXT_meshopt_compression": {
          "buffer": 0,
          "byteOffset": 171048,
          "byteLength": 102376,
          "mode": "ATTRIBUTES",
          "byteStride": 8,
          "count": 17494
        }
      }
    },
    {
      "buffer": 1,
      "byteOffset": 586164,
      "byteLength": 69976,
      "target": 34962,
      "byteStride": 4,
      "extensions": {
        "EXT_meshopt_compression": {
          "buffer": 0,
          "byteOffset": 273424,
          "byteLength": 52061,
          "mode": "ATTRIBUTES",
          "byteStride": 4,
          "count": 17494
        }
      }
    },
    {
      "buffer": 1,
      "byteOffset": 656140,
      "byteLength": 139952,
      "target": 34962,
      "byteStride": 8,
      "extensions": {
        "EXT_meshopt_compression": {
          "buffer": 0,
          "byteOffset": 325488,
          "byteLength": 103108,
          "mode": "ATTRIBUTES",
          "byteStride": 8,
          "count": 17494
        }
      }
    },
    {
      "buffer": 1,
      "byteOffset": 796092,
      "byteLength": 139952,
      "target": 34962,
      "byteStride": 8,
      "extensions": {
        "EXT_meshopt_compression": {
          "buffer": 0,
          "byteOffset": 428596,
          "byteLength": 21886,
          "mode": "ATTRIBUTES",
          "byteStride": 8,
          "count": 17494
        }
      }
    },
    {
      "buffer": 1,
      "byteOffset": 936044,
      "byteLength": 139952,
      "target": 34962,
      "byteStride": 8,
      "extensions": {
        "EXT_meshopt_compression": {
          "buffer": 0,
          "byteOffset": 450484,
          "byteLength": 19806,
          "mode": "ATTRIBUTES",
          "byteStride": 8,
          "count": 17494
        }
      }
    },
    {
      "buffer": 1,
      "byteOffset": 1075996,
      "byteLength": 139952,
      "target": 34962,
      "byteStride": 8,
      "extensions": {
        "EXT_meshopt_compression": {
          "buffer": 0,
          "byteOffset": 470292,
          "byteLength": 49631,
          "mode": "ATTRIBUTES",
          "byteStride": 8,
          "count": 17494
        }
      }
    },
    {
      "buffer": 1,
      "byteOffset": 1215948,
      "byteLength": 139952,
      "target": 34962,
      "byteStride": 8,
      "extensions": {
        "EXT_meshopt_compression": {
          "buffer": 0,
          "byteOffset": 519924,
          "byteLength": 39131,
          "mode": "ATTRIBUTES",
          "byteStride": 8,
          "count": 17494
        }
      }
    },
    {
      "buffer": 1,
      "byteOffset": 1355900,
      "byteLength": 139952,
      "target": 34962,
      "byteStride": 8,
      "extensions": {
        "EXT_meshopt_compression": {
          "buffer": 0,
          "byteOffset": 559056,
          "byteLength": 39452,
          "mode": "ATTRIBUTES",
          "byteStride": 8,
          "count": 17494
        }
      }
    }
  ],
  "samplers": [
    {
      "magFilter": 9729,
      "minFilter": 9987,
      "wrapS": 10497,
      "wrapT": 10497
    }
  ],
  "textures": [
    {
      "sampler": 0,
      "extensions": {
        "EXT_texture_webp": {
          "source": 0
        }
      }
    },
    {
      "sampler": 0,
      "extensions": {
        "EXT_texture_webp": {
          "source": 2
        }
      }
    },
    {
      "sampler": 0,
      "extensions": {
        "EXT_texture_webp": {
          "source": 1
        }
      }
    }
  ],
  "images": [
    {
      "name": "mh_hair:Hair_S_PulledBack.base",
      "mimeType": "image/webp",
      "uri": "textures/8e352dc1a9edff4a0172.webp"
    },
    {
      "name": "mh_hair:Hair_S_PulledBack.attribute",
      "mimeType": "image/webp",
      "uri": "textures/fe20474d154e30ee8de5.webp"
    },
    {
      "name": "mh_hair:Hair_S_PulledBack.tangent",
      "mimeType": "image/webp",
      "uri": "textures/5a2106124a99a13c0732.webp"
    }
  ],
  "buffers": [
    {
      "uri": "mara.hair-Hair_S_PulledBack.bin",
      "byteLength": 598508
    },
    {
      "byteLength": 1495852,
      "extensions": {
        "EXT_meshopt_compression": {
          "fallback": true
        }
      }
    }
  ],
  "materials": [
    {
      "name": "mh_hair:Hair_S_PulledBack",
      "extras": {
        "groom": {
          "groom": "Hair_S_PulledBack",
          "slot": "Hair",
          "lod": 0,
          "layout": "Card Compact (EHairTextureLayout::Layout2)",
          "colour": {
            "melanin": 0.302,
            "redness": 0.104,
            "whiteness": 0.7,
            "white_seed_below": 0.5725,
            "white_share": 0.731,
            "fibre_linear": [
              0.325,
              0.2313,
              0.1245
            ],
            "fibre_white_linear": [
              0.2594,
              0.25,
              0.2392
            ],
            "swatch_linear": [
              0.3233,
              0.2308,
              0.1222
            ],
            "white_linear": [
              0.2594,
              0.25,
              0.2392
            ],
            "mean_linear": [
              0.2766,
              0.2449,
              0.2078
            ],
            "white_model": "absorption",
            "swatch_white_linear": [
              0.7758,
              0.7529,
              0.7084
            ],
            "model": "M_hair_v4: fibre = HairColor(melanin^2.2, redness) (GetHairColorFromMelanin, HairShadingCommon.ush), white strands where seed < 1.08·whiteness (soft 0.05) with fibre_white; swatch = T_HairColorImage at (melanin, redness) (= fibre to 0.001) for plain PBR, white_linear = fibre_white (white_model 'absorption', Phase 17) or #E4E1DB ('swatch', Phase 16); mean = the swatch and white mixed by white_share",
            "white_seed_below_unreal": 0.756,
            "white_calibrated": "coverage-weighted seed quantile at white_share in the atlas"
          },
          "channels": {
            "baseColorTexture": "sRGB, for plain PBR: RGB the mean colour (flat); A opacity = (2 coverage)^0.5 as M_hair_v4, at 2048 px (process-person.mjs keeps it; the runtime keeps only A, skin.ts coverageOf)",
            "occlusionTexture": "linear: Unreal's Coverage | Depth | Seed atlas: R coverage, G depth, B seed",
            "emissiveTexture": "linear data (emissiveFactor 0): Unreal's Tangent | CoordU atlas: RGB (t+1)/2 with t = (U·s, V·s, N·s), U = +u, V = +v = TANGENT.w·TANGENT.xyz, N = normal (t.y is about -1 here: stored tip → root); A CoordU (root 0 → tip 1)",
            "TANGENT": "xyz strand direction on the card, root → tip; w = +1 when xyz runs along +v of TEXCOORD_0, -1 along -v (some cards are mapped upside down)"
          },
          "shadow": true
        }
      },
      "alphaMode": "MASK",
      "alphaCutoff": 0.5,
      "doubleSided": true,
      "pbrMetallicRoughness": {
        "roughnessFactor": 0.5,
        "metallicFactor": 0,
        "baseColorTexture": {
          "index": 0
        }
      },
      "emissiveTexture": {
        "index": 1
      },
      "occlusionTexture": {
        "index": 2,
        "strength": 0
      }
    }
  ],
  "meshes": [
    {
      "name": "mh_hair:Hair_S_PulledBack",
      "extras": {
        "targetNames": [
          "browDownLeft",
          "browDownRight",
          "browInnerUp",
          "browOuterUpLeft",
          "browOuterUpRight"
        ]
      },
      "primitives": [
        {
          "attributes": {
            "JOINTS_0": 1,
            "WEIGHTS_0": 2,
            "COLOR_0": 3,
            "POSITION": 5,
            "NORMAL": 6,
            "TEXCOORD_0": 7,
            "TANGENT": 8
          },
          "mode": 4,
          "material": 0,
          "indices": 0,
          "targets": [
            {
              "POSITION": 9
            },
            {
              "POSITION": 10
            },
            {
              "POSITION": 11
            },
            {
              "POSITION": 12
            },
            {
              "POSITION": 13
            }
          ]
        }
      ],
      "weights": [
        0,
        0,
        0,
        0,
        0
      ]
    }
  ],
  "nodes": [
    {
      "name": "Armature",
      "children": [
        1,
        54
      ]
    },
    {
      "name": "Root",
      "rotation": [
        -0.7071067811865475,
        0,
        0,
        0.7071067811865476
      ],
      "children": [
        2
      ]
    },
    {
      "name": "pelvis",
      "translation": [
        0.00006160243880003691,
        -0.02878994703292852,
        0.890966796875
      ],
      "rotation": [
        0.7196603727148619,
        4.6227566671025095e-8,
        4.7914287651261356e-8,
        0.6943262546842813
      ],
      "children": [
        3,
        46,
        50
      ]
    },
    {
      "name": "spine_01",
      "translation": [
        4.982575775987165e-10,
        0.030014877319335782,
        -0.001675523817539215
      ],
      "rotation": [
        0.09541208926457635,
        6.331867860884517e-8,
        -0.0000019100210710416925,
        0.995437860048791
      ],
      "children": [
        4
      ]
    },
    {
      "name": "spine_02",
      "translation": [
        -4.473312333519761e-7,
        0.118992980389256,
        -0.008224350327982063
      ],
      "rotation": [
        -0.14631611340851777,
        -4.6161133307014754e-7,
        -0.000003136484730578493,
        0.989237885923793
      ],
      "children": [
        5
      ]
    },
    {
      "name": "spine_03",
      "translation": [
        -7.499242201602718e-7,
        0.07589874267578121,
        9.536743179883178e-9
      ],
      "rotation": [
        -0.07439452918320406,
        3.824911212434203e-8,
        -3.3761915526344403e-10,
        0.997228887481509
      ],
      "children": [
        6,
        25,
        44
      ]
    },
    {
      "name": "clavicle_l",
      "translation": [
        0.00993650598902564,
        0.21979981768126142,
        -0.005391308143668866
      ],
      "rotation": [
        0.06220904020360023,
        0.0885295678135379,
        -0.7489465976282113,
        0.6537366020354234
      ],
      "children": [
        7
      ]
    },
    {
      "name": "upperarm_l",
      "translation": [
        3.434752482434078e-16,
        0.14699093818664558,
        -1.734723475976807e-18
      ],
      "rotation": [
        0.0112722492537972,
        -0.025992911589149167,
        -0.3810933252692573,
        0.9241023657469443
      ],
      "children": [
        8
      ]
    },
    {
      "name": "lowerarm_l",
      "translation": [
        7.629394530028755e-8,
        0.2467310333251953,
        9.059906004669355e-8
      ],
      "rotation": [
        0.43147545757593253,
        -0.01229614427937482,
        0.06308771925884764,
        0.8998320254493154
      ],
      "children": [
        9
      ]
    },
    {
      "name": "hand_l",
      "translation": [
        0.028605983010259073,
        0.2175106387218091,
        -0.057166363207012905
      ],
      "rotation": [
        -0.034292013914278933,
        0.7009196956244685,
        -0.1306320950509811,
        0.7003362719508371
      ],
      "children": [
        10,
        13,
        16,
        19,
        22
      ]
    },
    {
      "name": "index_01_l",
      "translation": [
        -0.023282212508149783,
        0.07700627626491002,
        0.0021601890712016902
      ],
      "rotation": [
        0.15915082171199055,
        0.10822622117097337,
        0.011823143162024548,
        0.9812330580882506
      ],
      "children": [
        11
      ]
    },
    {
      "name": "index_02_l",
      "translation": [
        -0.0009596506409234873,
        0.037507685665846224,
        0.0007538674610136908
      ],
      "rotation": [
        0.10903084396173483,
        -0.014166085338617046,
        0.032168709788800307,
        0.9934167157853219
      ],
      "children": [
        12
      ]
    },
    {
      "name": "index_03_l",
      "translation": [
        -0.0003253580698455716,
        0.02109260438541638,
        -0.0002244448418672329
      ],
      "rotation": [
        0.020137786208552586,
        -0.005956197929026197,
        0.0014475116177934462,
        0.9997784244436191
      ]
    },
    {
      "name": "middle_01_l",
      "translation": [
        -0.0027915951509328817,
        0.07702868147507563,
        -0.002724353475265562
      ],
      "rotation": [
        0.15970015975953247,
        0.009616411504065286,
        -0.03187682546348397,
        0.9866038980264242
      ],
      "children": [
        14
      ]
    },
    {
      "name": "middle_02_l",
      "translation": [
        -0.0000683357848519363,
        0.041461995501417215,
        -0.00003974250195837303
      ],
      "rotation": [
        0.18207110895418957,
        0.012469079848974442,
        0.014310550546185732,
        0.9831021521057599
      ],
      "children": [
        15
      ]
    },
    {
      "name": "middle_03_l",
      "translation": [
        -0.0004938281691588475,
        0.026822031574648873,
        -0.0003147426445262447
      ],
      "rotation": [
        0.026795239770396162,
        -0.013389699824315336,
        0.007841951297867373,
        0.9995205024731127
      ]
    },
    {
      "name": "pinky_01_l",
      "translation": [
        0.03149885422370536,
        0.0657687827385171,
        0.012716816140651954
      ],
      "rotation": [
        0.17051211583045217,
        -0.15419992568674915,
        -0.19289487617482629,
        0.953907525926241
      ],
      "children": [
        17
      ]
    },
    {
      "name": "pinky_02_l",
      "translation": [
        -0.00010465169516460371,
        0.02614773912200649,
        0.001746781121087837
      ],
      "rotation": [
        0.17406228034653018,
        0.005644607111225693,
        -0.008350943061621293,
        0.9846830569889519
      ],
      "children": [
        18
      ]
    },
    {
      "name": "pinky_03_l",
      "translation": [
        0.00011323083648093202,
        0.015189662360295052,
        -0.0001849448032045231
      ],
      "rotation": [
        0.030935209037980676,
        0.0003675454822640969,
        0.007014711512041156,
        0.9994967091364022
      ]
    },
    {
      "name": "ring_01_l",
      "translation": [
        0.015553278891358512,
        0.07102877820481529,
        0.002704394172980462
      ],
      "rotation": [
        0.1425622444055295,
        -0.05511985538694242,
        -0.12357772802848169,
        0.9804929133591427
      ],
      "children": [
        20
      ]
    },
    {
      "name": "ring_02_l",
      "translation": [
        0.0005723859635430872,
        0.035632781398428154,
        0.0011482097499385668
      ],
      "rotation": [
        0.2166792885863806,
        -0.0356326930992797,
        0.02630674712432413,
        0.9752375875323559
      ],
      "children": [
        21
      ]
    },
    {
      "name": "ring_03_l",
      "translation": [
        0.00005250517870290794,
        0.029227602714743957,
        0.00006268344586352059
      ],
      "rotation": [
        0.0580729369868085,
        0.01635843012407495,
        0.007919537668453625,
        0.9981468913324931
      ]
    },
    {
      "name": "thumb_01_l",
      "translation": [
        -0.025026619662705894,
        0.018004095273084053,
        0.011732426389170436
      ],
      "rotation": [
        -0.012660516166249169,
        0.5661330788700404,
        0.30884584503939905,
        0.7641644406418244
      ],
      "children": [
        23
      ]
    },
    {
      "name": "thumb_02_l",
      "translation": [
        -0.00042162755353414294,
        0.03865835969392137,
        -0.00025186892769205223
      ],
      "rotation": [
        0.15606364053541188,
        0.020780851652015056,
        -0.017110790605925498,
        0.9873801279913886
      ],
      "children": [
        24
      ]
    },
    {
      "name": "thumb_03_l",
      "translation": [
        0.0001920389564596947,
        0.023657899832108337,
        -0.0003779309655425264
      ],
      "rotation": [
        0.04531498905538192,
        0.011348258434084723,
        0.0002750513156802374,
        0.9989082506137376
      ]
    },
    {
      "name": "clavicle_r",
      "translation": [
        -0.009940690560409885,
        0.21979962552385504,
        -0.005391348776324589
      ],
      "rotation": [
        0.06220896134216298,
        -0.08853151928300648,
        0.7489529101974436,
        0.6537291132640125
      ],
      "children": [
        26
      ]
    },
    {
      "name": "upperarm_r",
      "translation": [
        1.1796119636642288e-16,
        0.1469909954071045,
        0
      ],
      "rotation": [
        0.011273288906885,
        0.02599395585603234,
        0.38109327340301735,
        0.9241023450804298
      ],
      "children": [
        27
      ]
    },
    {
      "name": "lowerarm_r",
      "translation": [
        -7.6293945466821e-8,
        0.24674003601074215,
        -1.0490417482562561e-7
      ],
      "rotation": [
        0.4315337297545519,
        0.012359396448444526,
        -0.0634397230048258,
        0.899778465483936
      ],
      "children": [
        28
      ]
    },
    {
      "name": "hand_r",
      "translation": [
        -0.028935547089601055,
        0.2176684751149453,
        -0.05727433185261259
      ],
      "rotation": [
        -0.034606195826658366,
        -0.700925536317211,
        0.12995566523539304,
        0.7004408103630626
      ],
      "children": [
        29,
        32,
        35,
        38,
        41
      ]
    },
    {
      "name": "index_01_r",
      "translation": [
        0.023267116778429787,
        0.07694095798290218,
        0.0021512471212105644
      ],
      "rotation": [
        0.16066284924601856,
        -0.10753909522396085,
        -0.010483961711189923,
        0.9810774069447331
      ],
      "children": [
        30
      ]
    },
    {
      "name": "index_02_r",
      "translation": [
        0.0010034391367992612,
        0.03744682741905353,
        0.0007254395604568975
      ],
      "rotation": [
        0.10966708403086228,
        0.014683311069506197,
        -0.0327864403221477,
        0.9933189721268824
      ],
      "children": [
        31
      ]
    },
    {
      "name": "index_03_r",
      "translation": [
        0.00031181552738479557,
        0.02086944709344718,
        -0.0002451139345338582
      ],
      "rotation": [
        0.018919490700784525,
        0.005904133491157919,
        -0.0014025207356440665,
        0.999802594022904
      ]
    },
    {
      "name": "middle_01_r",
      "translation": [
        0.0027606308914971643,
        0.07696174997174088,
        -0.0027213319169796524
      ],
      "rotation": [
        0.16072493310901373,
        -0.009310733119940027,
        0.03188132509488659,
        0.9864402603483227
      ],
      "children": [
        33
      ]
    },
    {
      "name": "middle_02_r",
      "translation": [
        0.000008105924021515015,
        0.04142831858140478,
        -0.000015226226911801977
      ],
      "rotation": [
        0.18271111489521916,
        -0.012311794608476147,
        -0.014389852997984091,
        0.9829842319884694
      ],
      "children": [
        34
      ]
    },
    {
      "name": "middle_03_r",
      "translation": [
        0.0005046676831545038,
        0.026761667391785107,
        -0.00036040128403180827
      ],
      "rotation": [
        0.02595641816792097,
        0.013716218938272488,
        -0.0070346510932358525,
        0.9995442178202651
      ]
    },
    {
      "name": "pinky_01_r",
      "translation": [
        -0.03149759966580499,
        0.06569740731638268,
        0.012681825748812103
      ],
      "rotation": [
        0.17115294927172853,
        0.15356374162679404,
        0.1934437260818242,
        0.9537842366346535
      ],
      "children": [
        36
      ]
    },
    {
      "name": "pinky_02_r",
      "translation": [
        0.00010934114378904902,
        0.0261308034643776,
        0.0017673993721095682
      ],
      "rotation": [
        0.1767038383459432,
        -0.004842757081869573,
        0.009364905616971042,
        0.9842075999302393
      ],
      "children": [
        37
      ]
    },
    {
      "name": "pinky_03_r",
      "translation": [
        -0.00006840588600015574,
        0.014995829820087129,
        -0.00024999130406383463
      ],
      "rotation": [
        0.028612405119779694,
        -0.0008291999638808927,
        -0.007736918043661561,
        0.9995602947295713
      ]
    },
    {
      "name": "ring_01_r",
      "translation": [
        -0.015573318698396864,
        0.07095974255834553,
        0.002689633416601278
      ],
      "rotation": [
        0.14371924462891866,
        0.05540008541525481,
        0.12369963363147908,
        0.9802928184469748
      ],
      "children": [
        39
      ]
    },
    {
      "name": "ring_02_r",
      "translation": [
        -0.0005821341430701787,
        0.03562398959002491,
        0.001147002452004886
      ],
      "rotation": [
        0.21704558748421934,
        0.03570188171317307,
        -0.026388816770540998,
        0.9751513825787356
      ],
      "children": [
        40
      ]
    },
    {
      "name": "ring_03_r",
      "translation": [
        -0.00006903511700531717,
        0.029199152712386704,
        0.000031754555257113015
      ],
      "rotation": [
        0.05704766382299834,
        -0.01624380955403549,
        -0.007272359383835881,
        0.9982128107234963
      ]
    },
    {
      "name": "thumb_01_r",
      "translation": [
        0.025067576867710068,
        0.017957340256975873,
        0.01168061420183708
      ],
      "rotation": [
        -0.011555113432419927,
        -0.5659426604710034,
        -0.3086720486950782,
        0.7643931912091773
      ],
      "children": [
        42
      ]
    },
    {
      "name": "thumb_02_r",
      "translation": [
        0.0004340646899723688,
        0.03862263515367528,
        -0.0002862166946070682
      ],
      "rotation": [
        0.1566328168875618,
        -0.021055403013483492,
        0.01726891971490883,
        0.9872814264887634
      ],
      "children": [
        43
      ]
    },
    {
      "name": "thumb_03_r",
      "translation": [
        -0.00020877990418766146,
        0.023628722615212622,
        -0.0003999126384852114
      ],
      "rotation": [
        0.04474131149323954,
        -0.012236311343184678,
        -0.00021358707484817364,
        0.9989236417820629
      ]
    },
    {
      "name": "neck_01",
      "translation": [
        -0.0000026669806495671297,
        0.2754711647177042,
        0.009240133974682353
      ],
      "rotation": [
        0.21377358744113253,
        8.823940921467748e-8,
        -3.935738891490421e-8,
        0.9768832342263527
      ],
      "children": [
        45
      ]
    },
    {
      "name": "head",
      "translation": [
        -9.71125905145916e-7,
        0.09906438463711509,
        -0.0008295225928828167
      ],
      "rotation": [
        -0.1073944499548431,
        -2.4913893729867032e-8,
        -6.893000101961319e-8,
        0.9942164915745924
      ]
    },
    {
      "name": "thigh_l",
      "translation": [
        0.09075581550598144,
        -0.015284271240234475,
        0.0012639674544334505
      ],
      "rotation": [
        0.9969521262232773,
        0.022744893301479493,
        -0.07404637818578266,
        0.009287719050385066
      ],
      "children": [
        47
      ]
    },
    {
      "name": "calf_l",
      "translation": [
        -1.907348627649963e-8,
        0.4085289764404296,
        -6.437301635769943e-7
      ],
      "rotation": [
        -0.01797726520452126,
        0.002317916806858746,
        -0.06427381839452749,
        0.9977676690825525
      ],
      "children": [
        48
      ]
    },
    {
      "name": "foot_l",
      "translation": [
        -0.05156012050965955,
        0.3956875491804684,
        0.015666922387177405
      ],
      "rotation": [
        -0.6868203817004384,
        -0.06574523023749161,
        0.04582818129605068,
        0.7223953943519987
      ],
      "children": [
        49
      ]
    },
    {
      "name": "ball_l",
      "translation": [
        -0.0016155503219698747,
        0.11974420786985829,
        0.06058780108120737
      ],
      "rotation": [
        -0.029919498769940326,
        0.01533706456625073,
        0.020089534295220857,
        0.9992327099608216
      ]
    },
    {
      "name": "thigh_r",
      "translation": [
        -0.09075582504272461,
        -0.015284271240234263,
        0.0012639269232749724
      ],
      "rotation": [
        0.9969521257956953,
        -0.022744912019516908,
        0.07404638525455383,
        0.009287662752425515
      ],
      "children": [
        51
      ]
    },
    {
      "name": "calf_r",
      "translation": [
        9.536743172944284e-9,
        0.4087994766235353,
        -7.128715515183903e-7
      ],
      "rotation": [
        -0.017972244505217175,
        -0.002325048995549262,
        0.06447829013199663,
        0.9977545503159918
      ],
      "children": [
        52
      ]
    },
    {
      "name": "foot_r",
      "translation": [
        0.05168596754356557,
        0.3954083783010105,
        0.0156314621762053
      ],
      "rotation": [
        -0.6867612107172787,
        0.06591976189173704,
        -0.04592523556896059,
        0.7224295793945661
      ],
      "children": [
        53
      ]
    },
    {
      "name": "ball_r",
      "translation": [
        0.001617702304778007,
        0.1197651610613243,
        0.06061608855027516
      ],
      "rotation": [
        -0.029970292152590335,
        -0.015368726015274281,
        -0.020250978715976736,
        0.9992274424324028
      ]
    },
    {
      "name": "mh_hair:Hair_S_PulledBack",
      "mesh": 0,
      "skin": 0
    }
  ],
  "skins": [
    {
      "inverseBindMatrices": 4,
      "skeleton": 1,
      "joints": [
        1,
        2,
        3,
        4,
        5,
        6,
        7,
        8,
        9,
        10,
        11,
        12,
        13,
        14,
        15,
        16,
        17,
        18,
        19,
        20,
        21,
        22,
        23,
        24,
        25,
        26,
        27,
        28,
        29,
        30,
        31,
        32,
        33,
        34,
        35,
        36,
        37,
        38,
        39,
        40,
        41,
        42,
        43,
        44,
        45,
        46,
        47,
        48,
        49,
        50,
        51,
        52,
        53
      ]
    }
  ],
  "scenes": [
    {
      "nodes": [
        0
      ]
    }
  ],
  "scene": 0,
  "extensionsUsed": [
    "EXT_meshopt_compression",
    "EXT_texture_webp",
    "KHR_mesh_quantization"
  ],
  "extensionsRequired": [
    "EXT_meshopt_compression",
    "EXT_texture_webp",
    "KHR_mesh_quantization"
  ]
}