{
  "asset": {
    "generator": "glTF-Transform v4.5.0",
    "version": "2.0"
  },
  "accessors": [
    {
      "type": "SCALAR",
      "componentType": 5123,
      "count": 104985,
      "normalized": false,
      "byteOffset": 0,
      "bufferView": 0
    },
    {
      "type": "VEC4",
      "componentType": 5121,
      "count": 32584,
      "normalized": false,
      "byteOffset": 0,
      "bufferView": 1
    },
    {
      "type": "VEC4",
      "componentType": 5121,
      "count": 32584,
      "normalized": true,
      "byteOffset": 0,
      "bufferView": 2
    },
    {
      "type": "VEC4",
      "componentType": 5121,
      "count": 32584,
      "normalized": true,
      "byteOffset": 0,
      "bufferView": 3
    },
    {
      "type": "MAT4",
      "componentType": 5126,
      "count": 53,
      "normalized": false,
      "byteOffset": 0,
      "bufferView": 4
    },
    {
      "type": "VEC3",
      "componentType": 5122,
      "count": 32584,
      "max": [
        11909,
        32767,
        11281
      ],
      "min": [
        -11909,
        8004,
        -11281
      ],
      "normalized": true,
      "byteOffset": 0,
      "bufferView": 5
    },
    {
      "type": "VEC3",
      "componentType": 5122,
      "count": 32584,
      "normalized": true,
      "byteOffset": 0,
      "bufferView": 6
    },
    {
      "type": "VEC2",
      "componentType": 5123,
      "count": 32584,
      "normalized": true,
      "byteOffset": 0,
      "bufferView": 7
    },
    {
      "type": "VEC4",
      "componentType": 5122,
      "count": 32584,
      "normalized": true,
      "byteOffset": 0,
      "bufferView": 8
    },
    {
      "type": "VEC3",
      "componentType": 5122,
      "count": 32584,
      "max": [
        0,
        8,
        112
      ],
      "min": [
        -32,
        -112,
        0
      ],
      "normalized": true,
      "byteOffset": 0,
      "bufferView": 9
    },
    {
      "type": "VEC3",
      "componentType": 5122,
      "count": 32584,
      "max": [
        48,
        8,
        128
      ],
      "min": [
        0,
        -152,
        0
      ],
      "normalized": true,
      "byteOffset": 0,
      "bufferView": 10
    },
    {
      "type": "VEC3",
      "componentType": 5122,
      "count": 32584,
      "max": [
        64,
        32,
        236
      ],
      "min": [
        -32,
        -220,
        0
      ],
      "normalized": true,
      "byteOffset": 0,
      "bufferView": 11
    },
    {
      "type": "VEC3",
      "componentType": 5122,
      "count": 32584,
      "max": [
        56,
        48,
        168
      ],
      "min": [
        -8,
        -120,
        -24
      ],
      "normalized": true,
      "byteOffset": 0,
      "bufferView": 12
    },
    {
      "type": "VEC3",
      "componentType": 5122,
      "count": 32584,
      "max": [
        8,
        96,
        152
      ],
      "min": [
        -80,
        -128,
        -72
      ],
      "normalized": true,
      "byteOffset": 0,
      "bufferView": 13
    }
  ],
  "bufferViews": [
    {
      "buffer": 1,
      "byteOffset": 0,
      "byteLength": 209970,
      "target": 34963,
      "extensions": {
        "EXT_meshopt_compression": {
          "buffer": 0,
          "byteOffset": 0,
          "byteLength": 36685,
          "mode": "TRIANGLES",
          "byteStride": 2,
          "count": 104985
        }
      }
    },
    {
      "buffer": 1,
      "byteOffset": 209972,
      "byteLength": 130336,
      "target": 34962,
      "byteStride": 4,
      "extensions": {
        "EXT_meshopt_compression": {
          "buffer": 0,
          "byteOffset": 36688,
          "byteLength": 13325,
          "mode": "ATTRIBUTES",
          "byteStride": 4,
          "count": 32584
        }
      }
    },
    {
      "buffer": 1,
      "byteOffset": 340308,
      "byteLength": 130336,
      "target": 34962,
      "byteStride": 4,
      "extensions": {
        "EXT_meshopt_compression": {
          "buffer": 0,
          "byteOffset": 50016,
          "byteLength": 25072,
          "mode": "ATTRIBUTES",
          "byteStride": 4,
          "count": 32584
        }
      }
    },
    {
      "buffer": 1,
      "byteOffset": 470644,
      "byteLength": 130336,
      "target": 34962,
      "byteStride": 4,
      "extensions": {
        "EXT_meshopt_compression": {
          "buffer": 0,
          "byteOffset": 75088,
          "byteLength": 109363,
          "mode": "ATTRIBUTES",
          "byteStride": 4,
          "count": 32584
        }
      }
    },
    {
      "buffer": 1,
      "byteOffset": 600980,
      "byteLength": 3392,
      "extensions": {
        "EXT_meshopt_compression": {
          "buffer": 0,
          "byteOffset": 184452,
          "byteLength": 2520,
          "mode": "ATTRIBUTES",
          "byteStride": 64,
          "count": 53
        }
      }
    },
    {
      "buffer": 1,
      "byteOffset": 604372,
      "byteLength": 260672,
      "target": 34962,
      "byteStride": 8,
      "extensions": {
        "EXT_meshopt_compression": {
          "buffer": 0,
          "byteOffset": 186972,
          "byteLength": 161864,
          "mode": "ATTRIBUTES",
          "byteStride": 8,
          "count": 32584
        }
      }
    },
    {
      "buffer": 1,
      "byteOffset": 865044,
      "byteLength": 260672,
      "target": 34962,
      "byteStride": 8,
      "extensions": {
        "EXT_meshopt_compression": {
          "buffer": 0,
          "byteOffset": 348836,
          "byteLength": 196154,
          "mode": "ATTRIBUTES",
          "byteStride": 8,
          "count": 32584
        }
      }
    },
    {
      "buffer": 1,
      "byteOffset": 1125716,
      "byteLength": 130336,
      "target": 34962,
      "byteStride": 4,
      "extensions": {
        "EXT_meshopt_compression": {
          "buffer": 0,
          "byteOffset": 544992,
          "byteLength": 114637,
          "mode": "ATTRIBUTES",
          "byteStride": 4,
          "count": 32584
        }
      }
    },
    {
      "buffer": 1,
      "byteOffset": 1256052,
      "byteLength": 260672,
      "target": 34962,
      "byteStride": 8,
      "extensions": {
        "EXT_meshopt_compression": {
          "buffer": 0,
          "byteOffset": 659632,
          "byteLength": 196135,
          "mode": "ATTRIBUTES",
          "byteStride": 8,
          "count": 32584
        }
      }
    },
    {
      "buffer": 1,
      "byteOffset": 1516724,
      "byteLength": 260672,
      "target": 34962,
      "byteStride": 8,
      "extensions": {
        "EXT_meshopt_compression": {
          "buffer": 0,
          "byteOffset": 855768,
          "byteLength": 18340,
          "mode": "ATTRIBUTES",
          "byteStride": 8,
          "count": 32584
        }
      }
    },
    {
      "buffer": 1,
      "byteOffset": 1777396,
      "byteLength": 260672,
      "target": 34962,
      "byteStride": 8,
      "extensions": {
        "EXT_meshopt_compression": {
          "buffer": 0,
          "byteOffset": 874108,
          "byteLength": 19028,
          "mode": "ATTRIBUTES",
          "byteStride": 8,
          "count": 32584
        }
      }
    },
    {
      "buffer": 1,
      "byteOffset": 2038068,
      "byteLength": 260672,
      "target": 34962,
      "byteStride": 8,
      "extensions": {
        "EXT_meshopt_compression": {
          "buffer": 0,
          "byteOffset": 893136,
          "byteLength": 44248,
          "mode": "ATTRIBUTES",
          "byteStride": 8,
          "count": 32584
        }
      }
    },
    {
      "buffer": 1,
      "byteOffset": 2298740,
      "byteLength": 260672,
      "target": 34962,
      "byteStride": 8,
      "extensions": {
        "EXT_meshopt_compression": {
          "buffer": 0,
          "byteOffset": 937384,
          "byteLength": 32845,
          "mode": "ATTRIBUTES",
          "byteStride": 8,
          "count": 32584
        }
      }
    },
    {
      "buffer": 1,
      "byteOffset": 2559412,
      "byteLength": 260672,
      "target": 34962,
      "byteStride": 8,
      "extensions": {
        "EXT_meshopt_compression": {
          "buffer": 0,
          "byteOffset": 970232,
          "byteLength": 36884,
          "mode": "ATTRIBUTES",
          "byteStride": 8,
          "count": 32584
        }
      }
    }
  ],
  "samplers": [
    {
      "magFilter": 9729,
      "minFilter": 9987,
      "wrapS": 10497,
      "wrapT": 10497
    }
  ],
  "textures": [
    {
      "sampler": 0,
      "extensions": {
        "EXT_texture_webp": {
          "source": 0
        }
      }
    },
    {
      "sampler": 0,
      "extensions": {
        "EXT_texture_webp": {
          "source": 2
        }
      }
    },
    {
      "sampler": 0,
      "extensions": {
        "EXT_texture_webp": {
          "source": 1
        }
      }
    }
  ],
  "images": [
    {
      "name": "mh_hair:Hair_L_AfroCurly.base",
      "mimeType": "image/webp",
      "uri": "textures/fde253857d1515af4273.webp"
    },
    {
      "name": "mh_hair:Hair_L_AfroCurly.attribute",
      "mimeType": "image/webp",
      "uri": "textures/566da7b458b11e7249dd.webp"
    },
    {
      "name": "mh_hair:Hair_L_AfroCurly.tangent",
      "mimeType": "image/webp",
      "uri": "textures/fede1f3e101038f2de31.webp"
    }
  ],
  "buffers": [
    {
      "uri": "nadia.hair-Hair_L_AfroCurly.bin",
      "byteLength": 1007116
    },
    {
      "byteLength": 2820084,
      "extensions": {
        "EXT_meshopt_compression": {
          "fallback": true
        }
      }
    }
  ],
  "materials": [
    {
      "name": "mh_hair:Hair_L_AfroCurly",
      "extras": {
        "groom": {
          "groom": "Hair_L_AfroCurly",
          "slot": "Hair",
          "lod": 0,
          "layout": "Card Compact (EHairTextureLayout::Layout2)",
          "colour": {
            "melanin": 0.906,
            "redness": 0.062,
            "whiteness": 0,
            "white_seed_below": 0,
            "white_share": 0,
            "fibre_linear": [
              0.005,
              0.001,
              0.0001
            ],
            "fibre_white_linear": [
              0.1643,
              0.1563,
              0.1484
            ],
            "swatch_linear": [
              0.0052,
              0.0012,
              0
            ],
            "white_linear": [
              0.1643,
              0.1563,
              0.1484
            ],
            "mean_linear": [
              0.0052,
              0.0012,
              0
            ],
            "white_model": "absorption",
            "swatch_white_linear": [
              0.7758,
              0.7529,
              0.7084
            ],
            "model": "M_hair_v4: fibre = HairColor(melanin^2.2, redness) (GetHairColorFromMelanin, HairShadingCommon.ush), white strands where seed < 1.08·whiteness (soft 0.05) with fibre_white; swatch = T_HairColorImage at (melanin, redness) (= fibre to 0.001) for plain PBR, white_linear = fibre_white (white_model 'absorption', Phase 17) or #E4E1DB ('swatch', Phase 16); mean = the swatch and white mixed by white_share"
          },
          "channels": {
            "baseColorTexture": "sRGB, for plain PBR: RGB the mean colour (flat); A opacity = (2 coverage)^0.5 as M_hair_v4, at 2048 px (process-person.mjs keeps it; the runtime keeps only A, skin.ts coverageOf)",
            "occlusionTexture": "linear: Unreal's Coverage | Depth | Seed atlas: R coverage, G depth, B seed",
            "emissiveTexture": "linear data (emissiveFactor 0): Unreal's Tangent | CoordU atlas: RGB (t+1)/2 with t = (U·s, V·s, N·s), U = +u, V = +v = TANGENT.w·TANGENT.xyz, N = normal (t.y is about -1 here: stored tip → root); A CoordU (root 0 → tip 1)",
            "TANGENT": "xyz strand direction on the card, root → tip; w = +1 when xyz runs along +v of TEXCOORD_0, -1 along -v (some cards are mapped upside down)"
          },
          "shadow": true
        }
      },
      "alphaMode": "MASK",
      "alphaCutoff": 0.5,
      "doubleSided": true,
      "pbrMetallicRoughness": {
        "roughnessFactor": 0.5,
        "metallicFactor": 0,
        "baseColorTexture": {
          "index": 0
        }
      },
      "emissiveTexture": {
        "index": 1
      },
      "occlusionTexture": {
        "index": 2,
        "strength": 0
      }
    }
  ],
  "meshes": [
    {
      "name": "mh_hair:Hair_L_AfroCurly",
      "extras": {
        "targetNames": [
          "browDownLeft",
          "browDownRight",
          "browInnerUp",
          "browOuterUpLeft",
          "browOuterUpRight"
        ]
      },
      "primitives": [
        {
          "attributes": {
            "JOINTS_0": 1,
            "WEIGHTS_0": 2,
            "COLOR_0": 3,
            "POSITION": 5,
            "NORMAL": 6,
            "TEXCOORD_0": 7,
            "TANGENT": 8
          },
          "mode": 4,
          "material": 0,
          "indices": 0,
          "targets": [
            {
              "POSITION": 9
            },
            {
              "POSITION": 10
            },
            {
              "POSITION": 11
            },
            {
              "POSITION": 12
            },
            {
              "POSITION": 13
            }
          ]
        }
      ],
      "weights": [
        0,
        0,
        0,
        0,
        0
      ]
    }
  ],
  "nodes": [
    {
      "name": "Armature",
      "children": [
        1,
        54
      ]
    },
    {
      "name": "Root",
      "rotation": [
        -0.7071067811865475,
        0,
        0,
        0.7071067811865476
      ],
      "children": [
        2
      ]
    },
    {
      "name": "pelvis",
      "translation": [
        -0.000008788967970758677,
        -0.029015405178070126,
        0.9186760711669922
      ],
      "rotation": [
        0.7196603727148619,
        4.6227566671025095e-8,
        4.7914287651261356e-8,
        0.6943262546842813
      ],
      "children": [
        3,
        46,
        50
      ]
    },
    {
      "name": "spine_01",
      "translation": [
        4.947651179508202e-10,
        0.032628784179687495,
        -0.0016458961367607147
      ],
      "rotation": [
        0.09541208926457635,
        6.331867860884517e-8,
        -0.0000019100210710416925,
        0.995437860048791
      ],
      "children": [
        4
      ]
    },
    {
      "name": "spine_02",
      "translation": [
        -4.748170599423998e-7,
        0.12628458014721866,
        -0.008635235451976975
      ],
      "rotation": [
        -0.14631611340851777,
        -4.6161133307014754e-7,
        -0.000003136484730578493,
        0.989237885923793
      ],
      "children": [
        5
      ]
    },
    {
      "name": "spine_03",
      "translation": [
        -8.154194802214646e-7,
        0.08252731323242184,
        1.9073486318132993e-8
      ],
      "rotation": [
        -0.07439452918320406,
        3.824911212434203e-8,
        -3.3761915526344403e-10,
        0.997228887481509
      ],
      "children": [
        6,
        25,
        44
      ]
    },
    {
      "name": "clavicle_l",
      "translation": [
        0.010797960816766424,
        0.22958832719170905,
        -0.0059983984839570865
      ],
      "rotation": [
        0.06220375972670596,
        0.08853324444086155,
        -0.748985546330712,
        0.6536919827352343
      ],
      "children": [
        7
      ]
    },
    {
      "name": "upperarm_l",
      "translation": [
        1.7694179454963432e-16,
        0.15637614250183107,
        -1.734723475976807e-18
      ],
      "rotation": [
        0.011273717820286735,
        -0.02599230337705305,
        -0.3810381363460869,
        0.9241251225356687
      ],
      "children": [
        8
      ]
    },
    {
      "name": "lowerarm_l",
      "translation": [
        -1.1102230246251565e-16,
        0.254673385620117,
        9.059906007119652e-8
      ],
      "rotation": [
        0.4093403845140093,
        -0.010367370847097428,
        0.046942692286138246,
        0.911114345660615
      ],
      "children": [
        9
      ]
    },
    {
      "name": "hand_l",
      "translation": [
        0.0220883783387279,
        0.22767640024782815,
        -0.047832215773426
      ],
      "rotation": [
        -0.028701074228496642,
        0.7068512045404558,
        -0.1018385654733257,
        0.6994044105953094
      ],
      "children": [
        10,
        13,
        16,
        19,
        22
      ]
    },
    {
      "name": "index_01_l",
      "translation": [
        -0.02408410063090767,
        0.07850080129858494,
        0.0022687692587676778
      ],
      "rotation": [
        0.1578135282826196,
        0.1087758269778028,
        0.010687923599737777,
        0.9814012828835167
      ],
      "children": [
        11
      ]
    },
    {
      "name": "index_02_l",
      "translation": [
        -0.0010395505518118464,
        0.038125316585542746,
        0.0008229344401237126
      ],
      "rotation": [
        0.109739507746298,
        -0.0156767753407714,
        0.034504886562845234,
        0.9932375808223329
      ],
      "children": [
        12
      ]
    },
    {
      "name": "index_03_l",
      "translation": [
        -0.00027669081571467247,
        0.021768846981152695,
        -0.0001933308018341462
      ],
      "rotation": [
        0.02097004508397935,
        -0.007216129261982638,
        0.0016268564542154423,
        0.9997527384437253
      ]
    },
    {
      "name": "middle_01_l",
      "translation": [
        -0.002974509968285584,
        0.07858891262798984,
        -0.0027328189919089696
      ],
      "rotation": [
        0.15931122681324714,
        0.007711605603254539,
        -0.033479986457811826,
        0.9866304042837231
      ],
      "children": [
        14
      ]
    },
    {
      "name": "middle_02_l",
      "translation": [
        -0.0000996940846593789,
        0.04226817068906341,
        0.00007482509787071212
      ],
      "rotation": [
        0.18160693850399165,
        0.01312188230708292,
        0.015495439659083732,
        0.9831615469706382
      ],
      "children": [
        15
      ]
    },
    {
      "name": "middle_03_l",
      "translation": [
        -0.0005147163072252072,
        0.027518027609842864,
        -0.0002834518560216326
      ],
      "rotation": [
        0.028767807030801583,
        -0.014434849467254667,
        0.009542585999022118,
        0.9994363348667826
      ]
    },
    {
      "name": "pinky_01_l",
      "translation": [
        0.03234714710855535,
        0.06646319835831999,
        0.013022380273303158
      ],
      "rotation": [
        0.16848617957066295,
        -0.16094003627382275,
        -0.19439483550066403,
        0.9528490751155362
      ],
      "children": [
        17
      ]
    },
    {
      "name": "pinky_02_l",
      "translation": [
        -0.00005270752872091333,
        0.02675489690997132,
        0.0019063632382420592
      ],
      "rotation": [
        0.17406289747324782,
        0.005353094421017163,
        -0.007801654827751907,
        0.9846890810226779
      ],
      "children": [
        18
      ]
    },
    {
      "name": "pinky_03_l",
      "translation": [
        0.00015274335370213388,
        0.015814728994523693,
        -0.00018999168182454174
      ],
      "rotation": [
        0.03279028313386444,
        0.0009655973020776559,
        0.005656457510716473,
        0.999445781141869
      ]
    },
    {
      "name": "ring_01_l",
      "translation": [
        0.015945640779347285,
        0.0722464164324762,
        0.002822620376470797
      ],
      "rotation": [
        0.14214613911321045,
        -0.057578679541977665,
        -0.1248719689161776,
        0.9802480105444781
      ],
      "children": [
        20
      ]
    },
    {
      "name": "ring_02_l",
      "translation": [
        0.0005417363978002382,
        0.03649446878404383,
        0.0013484442700362753
      ],
      "rotation": [
        0.21586963486342467,
        -0.03787671591818078,
        0.027077330308984546,
        0.9753114750265801
      ],
      "children": [
        21
      ]
    },
    {
      "name": "ring_03_l",
      "translation": [
        0.0000973854979329225,
        0.029818266180681167,
        0.00009671362043806031
      ],
      "rotation": [
        0.06013335291976079,
        0.013371550936161113,
        0.007825113594090048,
        0.9980701123114692
      ]
    },
    {
      "name": "thumb_01_l",
      "translation": [
        -0.025741131681414637,
        0.01784156285794064,
        0.011984505070999407
      ],
      "rotation": [
        -0.014163610081322948,
        0.5668958623317418,
        0.31101464292164943,
        0.7626915269681014
      ],
      "children": [
        23
      ]
    },
    {
      "name": "thumb_02_l",
      "translation": [
        -0.00023692151722465304,
        0.03960520392001343,
        -0.0001123687584365634
      ],
      "rotation": [
        0.1528556292684024,
        0.01929345038107624,
        -0.015761630563882415,
        0.9879344565179016
      ],
      "children": [
        24
      ]
    },
    {
      "name": "thumb_03_l",
      "translation": [
        0.00009630462346976731,
        0.0242459835140785,
        -0.00020296793351552017
      ],
      "rotation": [
        0.04930889094518708,
        0.009894389701790041,
        -0.0016413672871140343,
        0.9987332177511739
      ]
    },
    {
      "name": "clavicle_r",
      "translation": [
        -0.010802330911208895,
        0.22958812061538666,
        -0.005998477630821744
      ],
      "rotation": [
        0.06220375237110977,
        -0.08853530955362418,
        0.7489918908160438,
        0.6536844342991541
      ],
      "children": [
        26
      ]
    },
    {
      "name": "upperarm_r",
      "translation": [
        1.5612511283791264e-16,
        0.15637622833251952,
        1.734723475976807e-18
      ],
      "rotation": [
        0.011274799167467068,
        0.025993229939842415,
        0.3810382061109817,
        0.9241250545162991
      ],
      "children": [
        27
      ]
    },
    {
      "name": "lowerarm_r",
      "translation": [
        -1.5258789054506394e-7,
        0.25482452392578103,
        -1.0490417479223219e-7
      ],
      "rotation": [
        0.409673007949968,
        0.010391299888591141,
        -0.04713596459736392,
        0.9109545808026474
      ],
      "children": [
        28
      ]
    },
    {
      "name": "hand_r",
      "translation": [
        -0.02235027723401628,
        0.22783858483868952,
        -0.048066039253715845
      ],
      "rotation": [
        -0.029303833187853796,
        -0.7068839861959151,
        0.1011582352710295,
        0.6994450134621898
      ],
      "children": [
        29,
        32,
        35,
        38,
        41
      ]
    },
    {
      "name": "index_01_r",
      "translation": [
        0.02403476517823339,
        0.07837054133783078,
        0.00225958623473943
      ],
      "rotation": [
        0.1596013476141097,
        -0.10792211958669334,
        -0.00907605032134488,
        0.9812226308306592
      ],
      "children": [
        30
      ]
    },
    {
      "name": "index_02_r",
      "translation": [
        0.0010831421766142185,
        0.03801427146407188,
        0.0007892429481177188
      ],
      "rotation": [
        0.11019411941188433,
        0.016304351795837262,
        -0.03519763641284587,
        0.9931528334302361
      ],
      "children": [
        31
      ]
    },
    {
      "name": "index_03_r",
      "translation": [
        0.000257392545800067,
        0.02153033567814433,
        -0.00022129742931242813
      ],
      "rotation": [
        0.01974308249038353,
        0.00747230871197152,
        -0.0017462807919312855,
        0.9997756377306295
      ]
    },
    {
      "name": "middle_01_r",
      "translation": [
        0.0029261264426203755,
        0.07844366376691331,
        -0.0027283633376394834
      ],
      "rotation": [
        0.16056827079493768,
        -0.007459017614079159,
        0.033522593308595014,
        0.9864271028352896
      ],
      "children": [
        33
      ]
    },
    {
      "name": "middle_02_r",
      "translation": [
        0.000031811997209122,
        0.04218516939717565,
        0.00009509311779126728
      ],
      "rotation": [
        0.18206166487943734,
        -0.01315174361322504,
        -0.01558246778271589,
        0.9830756677484496
      ],
      "children": [
        34
      ]
    },
    {
      "name": "middle_03_r",
      "translation": [
        0.0005364224518217995,
        0.02743288556161809,
        -0.0003274171536984394
      ],
      "rotation": [
        0.02795789634461924,
        0.014924544009498135,
        -0.008868354941395012,
        0.9994583364496619
      ]
    },
    {
      "name": "pinky_01_r",
      "translation": [
        -0.03232722867525663,
        0.06633510123480146,
        0.012949744594001666
      ],
      "rotation": [
        0.16967121773649516,
        0.15964833366008893,
        0.19494071283206832,
        0.9527445648818454
      ],
      "children": [
        36
      ]
    },
    {
      "name": "pinky_02_r",
      "translation": [
        0.000059154558195329,
        0.02669225143833623,
        0.0019296447589520205
      ],
      "rotation": [
        0.17638003035888003,
        -0.003523289229469592,
        0.008494585633369611,
        0.9842791846516533
      ],
      "children": [
        37
      ]
    },
    {
      "name": "pinky_03_r",
      "translation": [
        -0.0001010853336844697,
        0.015599818989780606,
        -0.0002655699748981277
      ],
      "rotation": [
        0.0305971558759373,
        -0.0014913093031996827,
        -0.006427492022186903,
        0.999510018656727
      ]
    },
    {
      "name": "ring_01_r",
      "translation": [
        -0.01596232768828295,
        0.07210545175002575,
        0.002798140613244793
      ],
      "rotation": [
        0.14353878243517884,
        0.058280452329733085,
        0.12523099695902307,
        0.9799577563415258
      ],
      "children": [
        39
      ]
    },
    {
      "name": "ring_02_r",
      "translation": [
        -0.0005496732453285635,
        0.03644662938917195,
        0.0013439934996861136
      ],
      "rotation": [
        0.21622472459186015,
        0.03794733858217062,
        -0.027307179183881067,
        0.9752236594416297
      ],
      "children": [
        40
      ]
    },
    {
      "name": "ring_03_r",
      "translation": [
        -0.0001124846357886955,
        0.029770143911888633,
        0.000055214831513161755
      ],
      "rotation": [
        0.05913104183522092,
        -0.013396721326181703,
        -0.007252090704025504,
        0.9981339864615425
      ]
    },
    {
      "name": "thumb_01_r",
      "translation": [
        0.02583420878674617,
        0.017780701773382313,
        0.011922078462849373
      ],
      "rotation": [
        -0.012344887465034931,
        -0.5667463885933663,
        -0.3102046793830312,
        0.7631639349829914
      ],
      "children": [
        42
      ]
    },
    {
      "name": "thumb_02_r",
      "translation": [
        0.00025734527565707266,
        0.03950355778549716,
        -0.0001810786980604379
      ],
      "rotation": [
        0.15341494338381473,
        -0.01928955850503083,
        0.015931534094262147,
        0.9878451064314817
      ],
      "children": [
        43
      ]
    },
    {
      "name": "thumb_03_r",
      "translation": [
        -0.0001238754785692353,
        0.02418334184286372,
        -0.00023614660489573724
      ],
      "rotation": [
        0.04814820017745007,
        -0.01160527447675432,
        0.0016843937611919202,
        0.9987713608437362
      ]
    },
    {
      "name": "neck_01",
      "translation": [
        -0.0000027859277861699695,
        0.2875994301765056,
        0.009822404590984666
      ],
      "rotation": [
        0.21377359353865144,
        8.317020895056553e-8,
        -3.8320550320365614e-8,
        0.9768832328920193
      ],
      "children": [
        45
      ]
    },
    {
      "name": "head",
      "translation": [
        -9.510672558207313e-7,
        0.09706911946384662,
        -0.0008138953627871339
      ],
      "rotation": [
        -0.10739444995484307,
        -2.4913894014828486e-8,
        -6.893000116428458e-8,
        0.9942164915745922
      ]
    },
    {
      "name": "thigh_l",
      "translation": [
        0.09345643997192384,
        -0.013150863647461111,
        0.001681097745895397
      ],
      "rotation": [
        0.9969521262232773,
        0.022744893301479493,
        -0.07404637818578266,
        0.009287719050385066
      ],
      "children": [
        47
      ]
    },
    {
      "name": "calf_l",
      "translation": [
        -9.536743103555345e-9,
        0.4235156249999999,
        -0.0000019264221191445108
      ],
      "rotation": [
        -0.0207140568180748,
        0.002367537698729928,
        -0.06100993949776012,
        0.9979193904809458
      ],
      "children": [
        48
      ]
    },
    {
      "name": "foot_l",
      "translation": [
        -0.05064227402274862,
        0.40966089578081233,
        0.016987704611814005
      ],
      "rotation": [
        -0.6857809628169559,
        -0.0628971246224919,
        0.043128900730551326,
        0.7238012991656245
      ],
      "children": [
        49
      ]
    },
    {
      "name": "ball_l",
      "translation": [
        -0.001466455879710199,
        0.12253379298008973,
        0.06107728071091038
      ],
      "rotation": [
        -0.028363006671626046,
        0.015222167525551722,
        0.01989728967270432,
        0.9992837051268524
      ]
    },
    {
      "name": "thigh_r",
      "translation": [
        -0.09345643997192382,
        -0.013150863647460941,
        0.001681052446365336
      ],
      "rotation": [
        0.9969521257956953,
        -0.022744912019516908,
        0.07404638525455383,
        0.009287662752425515
      ],
      "children": [
        51
      ]
    },
    {
      "name": "calf_r",
      "translation": [
        1.907348633201078e-8,
        0.42330467224121104,
        -0.000001909732818598797
      ],
      "rotation": [
        -0.02068977596803769,
        -0.0023644056166137665,
        0.06096652102037222,
        0.997922555147014
      ],
      "children": [
        52
      ]
    },
    {
      "name": "foot_r",
      "translation": [
        0.05064151341346729,
        0.40990980730473026,
        0.016967551654201406
      ],
      "rotation": [
        -0.6857768468707565,
        0.06285417480515239,
        -0.043080154923057015,
        0.7238118327696582
      ],
      "children": [
        53
      ]
    },
    {
      "name": "ball_r",
      "translation": [
        0.0014656613423010278,
        0.1225372955977087,
        0.06107613769449204
      ],
      "rotation": [
        -0.028433337939718667,
        -0.015240287540897913,
        -0.019881665022787265,
        0.9992817412147579
      ]
    },
    {
      "name": "mh_hair:Hair_L_AfroCurly",
      "mesh": 0,
      "skin": 0
    }
  ],
  "skins": [
    {
      "inverseBindMatrices": 4,
      "skeleton": 1,
      "joints": [
        1,
        2,
        3,
        4,
        5,
        6,
        7,
        8,
        9,
        10,
        11,
        12,
        13,
        14,
        15,
        16,
        17,
        18,
        19,
        20,
        21,
        22,
        23,
        24,
        25,
        26,
        27,
        28,
        29,
        30,
        31,
        32,
        33,
        34,
        35,
        36,
        37,
        38,
        39,
        40,
        41,
        42,
        43,
        44,
        45,
        46,
        47,
        48,
        49,
        50,
        51,
        52,
        53
      ]
    }
  ],
  "scenes": [
    {
      "nodes": [
        0
      ]
    }
  ],
  "scene": 0,
  "extensionsUsed": [
    "EXT_meshopt_compression",
    "EXT_texture_webp",
    "KHR_mesh_quantization"
  ],
  "extensionsRequired": [
    "EXT_meshopt_compression",
    "EXT_texture_webp",
    "KHR_mesh_quantization"
  ]
}