{
  "asset": {
    "generator": "glTF-Transform v4.5.0",
    "version": "2.0"
  },
  "accessors": [
    {
      "type": "SCALAR",
      "componentType": 5123,
      "count": 102420,
      "normalized": false,
      "byteOffset": 0,
      "bufferView": 0
    },
    {
      "type": "VEC4",
      "componentType": 5121,
      "count": 41777,
      "normalized": false,
      "byteOffset": 0,
      "bufferView": 1
    },
    {
      "type": "VEC4",
      "componentType": 5121,
      "count": 41777,
      "normalized": true,
      "byteOffset": 0,
      "bufferView": 2
    },
    {
      "type": "VEC4",
      "componentType": 5121,
      "count": 41777,
      "normalized": true,
      "byteOffset": 0,
      "bufferView": 3
    },
    {
      "type": "MAT4",
      "componentType": 5126,
      "count": 53,
      "normalized": false,
      "byteOffset": 0,
      "bufferView": 4
    },
    {
      "type": "VEC3",
      "componentType": 5122,
      "count": 41777,
      "max": [
        6848,
        32767,
        7792
      ],
      "min": [
        -6848,
        16073,
        -7792
      ],
      "normalized": true,
      "byteOffset": 0,
      "bufferView": 5
    },
    {
      "type": "VEC3",
      "componentType": 5122,
      "count": 41777,
      "normalized": true,
      "byteOffset": 0,
      "bufferView": 6
    },
    {
      "type": "VEC2",
      "componentType": 5123,
      "count": 41777,
      "normalized": true,
      "byteOffset": 0,
      "bufferView": 7
    },
    {
      "type": "VEC4",
      "componentType": 5122,
      "count": 41777,
      "normalized": true,
      "byteOffset": 0,
      "bufferView": 8
    },
    {
      "type": "VEC3",
      "componentType": 5122,
      "count": 41777,
      "max": [
        0,
        8,
        160
      ],
      "min": [
        -64,
        -192,
        0
      ],
      "normalized": true,
      "byteOffset": 0,
      "bufferView": 9
    },
    {
      "type": "VEC3",
      "componentType": 5122,
      "count": 41777,
      "max": [
        64,
        0,
        168
      ],
      "min": [
        0,
        -184,
        0
      ],
      "normalized": true,
      "byteOffset": 0,
      "bufferView": 10
    },
    {
      "type": "VEC3",
      "componentType": 5122,
      "count": 41777,
      "max": [
        104,
        40,
        292
      ],
      "min": [
        -104,
        -228,
        0
      ],
      "normalized": true,
      "byteOffset": 0,
      "bufferView": 11
    },
    {
      "type": "VEC3",
      "componentType": 5122,
      "count": 41777,
      "max": [
        80,
        184,
        200
      ],
      "min": [
        0,
        -128,
        -96
      ],
      "normalized": true,
      "byteOffset": 0,
      "bufferView": 12
    },
    {
      "type": "VEC3",
      "componentType": 5122,
      "count": 41777,
      "max": [
        8,
        176,
        192
      ],
      "min": [
        -80,
        -120,
        -96
      ],
      "normalized": true,
      "byteOffset": 0,
      "bufferView": 13
    }
  ],
  "bufferViews": [
    {
      "buffer": 1,
      "byteOffset": 0,
      "byteLength": 204840,
      "target": 34963,
      "extensions": {
        "EXT_meshopt_compression": {
          "buffer": 0,
          "byteOffset": 0,
          "byteLength": 34167,
          "mode": "TRIANGLES",
          "byteStride": 2,
          "count": 102420
        }
      }
    },
    {
      "buffer": 1,
      "byteOffset": 204840,
      "byteLength": 167108,
      "target": 34962,
      "byteStride": 4,
      "extensions": {
        "EXT_meshopt_compression": {
          "buffer": 0,
          "byteOffset": 34168,
          "byteLength": 6048,
          "mode": "ATTRIBUTES",
          "byteStride": 4,
          "count": 41777
        }
      }
    },
    {
      "buffer": 1,
      "byteOffset": 371948,
      "byteLength": 167108,
      "target": 34962,
      "byteStride": 4,
      "extensions": {
        "EXT_meshopt_compression": {
          "buffer": 0,
          "byteOffset": 40216,
          "byteLength": 13407,
          "mode": "ATTRIBUTES",
          "byteStride": 4,
          "count": 41777
        }
      }
    },
    {
      "buffer": 1,
      "byteOffset": 539056,
      "byteLength": 167108,
      "target": 34962,
      "byteStride": 4,
      "extensions": {
        "EXT_meshopt_compression": {
          "buffer": 0,
          "byteOffset": 53624,
          "byteLength": 159849,
          "mode": "ATTRIBUTES",
          "byteStride": 4,
          "count": 41777
        }
      }
    },
    {
      "buffer": 1,
      "byteOffset": 706164,
      "byteLength": 3392,
      "extensions": {
        "EXT_meshopt_compression": {
          "buffer": 0,
          "byteOffset": 213476,
          "byteLength": 2529,
          "mode": "ATTRIBUTES",
          "byteStride": 64,
          "count": 53
        }
      }
    },
    {
      "buffer": 1,
      "byteOffset": 709556,
      "byteLength": 334216,
      "target": 34962,
      "byteStride": 8,
      "extensions": {
        "EXT_meshopt_compression": {
          "buffer": 0,
          "byteOffset": 216008,
          "byteLength": 193564,
          "mode": "ATTRIBUTES",
          "byteStride": 8,
          "count": 41777
        }
      }
    },
    {
      "buffer": 1,
      "byteOffset": 1043772,
      "byteLength": 334216,
      "target": 34962,
      "byteStride": 8,
      "extensions": {
        "EXT_meshopt_compression": {
          "buffer": 0,
          "byteOffset": 409572,
          "byteLength": 242961,
          "mode": "ATTRIBUTES",
          "byteStride": 8,
          "count": 41777
        }
      }
    },
    {
      "buffer": 1,
      "byteOffset": 1377988,
      "byteLength": 167108,
      "target": 34962,
      "byteStride": 4,
      "extensions": {
        "EXT_meshopt_compression": {
          "buffer": 0,
          "byteOffset": 652536,
          "byteLength": 124445,
          "mode": "ATTRIBUTES",
          "byteStride": 4,
          "count": 41777
        }
      }
    },
    {
      "buffer": 1,
      "byteOffset": 1545096,
      "byteLength": 334216,
      "target": 34962,
      "byteStride": 8,
      "extensions": {
        "EXT_meshopt_compression": {
          "buffer": 0,
          "byteOffset": 776984,
          "byteLength": 247048,
          "mode": "ATTRIBUTES",
          "byteStride": 8,
          "count": 41777
        }
      }
    },
    {
      "buffer": 1,
      "byteOffset": 1879312,
      "byteLength": 334216,
      "target": 34962,
      "byteStride": 8,
      "extensions": {
        "EXT_meshopt_compression": {
          "buffer": 0,
          "byteOffset": 1024032,
          "byteLength": 34462,
          "mode": "ATTRIBUTES",
          "byteStride": 8,
          "count": 41777
        }
      }
    },
    {
      "buffer": 1,
      "byteOffset": 2213528,
      "byteLength": 334216,
      "target": 34962,
      "byteStride": 8,
      "extensions": {
        "EXT_meshopt_compression": {
          "buffer": 0,
          "byteOffset": 1058496,
          "byteLength": 38416,
          "mode": "ATTRIBUTES",
          "byteStride": 8,
          "count": 41777
        }
      }
    },
    {
      "buffer": 1,
      "byteOffset": 2547744,
      "byteLength": 334216,
      "target": 34962,
      "byteStride": 8,
      "extensions": {
        "EXT_meshopt_compression": {
          "buffer": 0,
          "byteOffset": 1096912,
          "byteLength": 86526,
          "mode": "ATTRIBUTES",
          "byteStride": 8,
          "count": 41777
        }
      }
    },
    {
      "buffer": 1,
      "byteOffset": 2881960,
      "byteLength": 334216,
      "target": 34962,
      "byteStride": 8,
      "extensions": {
        "EXT_meshopt_compression": {
          "buffer": 0,
          "byteOffset": 1183440,
          "byteLength": 62171,
          "mode": "ATTRIBUTES",
          "byteStride": 8,
          "count": 41777
        }
      }
    },
    {
      "buffer": 1,
      "byteOffset": 3216176,
      "byteLength": 334216,
      "target": 34962,
      "byteStride": 8,
      "extensions": {
        "EXT_meshopt_compression": {
          "buffer": 0,
          "byteOffset": 1245612,
          "byteLength": 71905,
          "mode": "ATTRIBUTES",
          "byteStride": 8,
          "count": 41777
        }
      }
    }
  ],
  "samplers": [
    {
      "magFilter": 9729,
      "minFilter": 9987,
      "wrapS": 10497,
      "wrapT": 10497
    }
  ],
  "textures": [
    {
      "sampler": 0,
      "extensions": {
        "EXT_texture_webp": {
          "source": 0
        }
      }
    },
    {
      "sampler": 0,
      "extensions": {
        "EXT_texture_webp": {
          "source": 2
        }
      }
    },
    {
      "sampler": 0,
      "extensions": {
        "EXT_texture_webp": {
          "source": 1
        }
      }
    }
  ],
  "images": [
    {
      "name": "mh_hair:Hair_S_SweptUp.base",
      "mimeType": "image/webp",
      "uri": "textures/3beb24fdff556a3357d9.webp"
    },
    {
      "name": "mh_hair:Hair_S_SweptUp.attribute",
      "mimeType": "image/webp",
      "uri": "textures/766e20860efcbbd325eb.webp"
    },
    {
      "name": "mh_hair:Hair_S_SweptUp.tangent",
      "mimeType": "image/webp",
      "uri": "textures/c41ec413267e1684fa8f.webp"
    }
  ],
  "buffers": [
    {
      "uri": "paolo.hair-Hair_S_SweptUp.bin",
      "byteLength": 1317520
    },
    {
      "byteLength": 3550392,
      "extensions": {
        "EXT_meshopt_compression": {
          "fallback": true
        }
      }
    }
  ],
  "materials": [
    {
      "name": "mh_hair:Hair_S_SweptUp",
      "extras": {
        "groom": {
          "groom": "Hair_S_SweptUp",
          "slot": "Hair",
          "lod": 0,
          "layout": "Card Compact (EHairTextureLayout::Layout2)",
          "colour": {
            "melanin": 0.865,
            "redness": 0.021,
            "whiteness": 0,
            "white_seed_below": 0,
            "white_share": 0,
            "fibre_linear": [
              0.0086,
              0.0021,
              0.0002
            ],
            "fibre_white_linear": [
              0.1677,
              0.1598,
              0.1518
            ],
            "swatch_linear": [
              0.0085,
              0.0021,
              0.0003
            ],
            "white_linear": [
              0.1677,
              0.1598,
              0.1518
            ],
            "mean_linear": [
              0.0085,
              0.0021,
              0.0003
            ],
            "white_model": "absorption",
            "swatch_white_linear": [
              0.7758,
              0.7529,
              0.7084
            ],
            "model": "M_hair_v4: fibre = HairColor(melanin^2.2, redness) (GetHairColorFromMelanin, HairShadingCommon.ush), white strands where seed < 1.08·whiteness (soft 0.05) with fibre_white; swatch = T_HairColorImage at (melanin, redness) (= fibre to 0.001) for plain PBR, white_linear = fibre_white (white_model 'absorption', Phase 17) or #E4E1DB ('swatch', Phase 16); mean = the swatch and white mixed by white_share"
          },
          "channels": {
            "baseColorTexture": "sRGB, for plain PBR: RGB the mean colour (flat); A opacity = (2 coverage)^0.5 as M_hair_v4, at 2048 px (process-person.mjs keeps it; the runtime keeps only A, skin.ts coverageOf)",
            "occlusionTexture": "linear: Unreal's Coverage | Depth | Seed atlas: R coverage, G depth, B seed",
            "emissiveTexture": "linear data (emissiveFactor 0): Unreal's Tangent | CoordU atlas: RGB (t+1)/2 with t = (U·s, V·s, N·s), U = +u, V = +v = TANGENT.w·TANGENT.xyz, N = normal (t.y is about -1 here: stored tip → root); A CoordU (root 0 → tip 1)",
            "TANGENT": "xyz strand direction on the card, root → tip; w = +1 when xyz runs along +v of TEXCOORD_0, -1 along -v (some cards are mapped upside down)"
          },
          "shadow": true
        }
      },
      "alphaMode": "MASK",
      "alphaCutoff": 0.5,
      "doubleSided": true,
      "pbrMetallicRoughness": {
        "roughnessFactor": 0.5,
        "metallicFactor": 0,
        "baseColorTexture": {
          "index": 0
        }
      },
      "emissiveTexture": {
        "index": 1
      },
      "occlusionTexture": {
        "index": 2,
        "strength": 0
      }
    }
  ],
  "meshes": [
    {
      "name": "mh_hair:Hair_S_SweptUp",
      "extras": {
        "targetNames": [
          "browDownLeft",
          "browDownRight",
          "browInnerUp",
          "browOuterUpLeft",
          "browOuterUpRight"
        ]
      },
      "primitives": [
        {
          "attributes": {
            "JOINTS_0": 1,
            "WEIGHTS_0": 2,
            "COLOR_0": 3,
            "POSITION": 5,
            "NORMAL": 6,
            "TEXCOORD_0": 7,
            "TANGENT": 8
          },
          "mode": 4,
          "material": 0,
          "indices": 0,
          "targets": [
            {
              "POSITION": 9
            },
            {
              "POSITION": 10
            },
            {
              "POSITION": 11
            },
            {
              "POSITION": 12
            },
            {
              "POSITION": 13
            }
          ]
        }
      ],
      "weights": [
        0,
        0,
        0,
        0,
        0
      ]
    }
  ],
  "nodes": [
    {
      "name": "Armature",
      "children": [
        1,
        54
      ]
    },
    {
      "name": "Root",
      "rotation": [
        -0.7071067811865475,
        0,
        0,
        0.7071067811865476
      ],
      "children": [
        2
      ]
    },
    {
      "name": "pelvis",
      "translation": [
        5.385455733630806e-7,
        -0.0208236980438233,
        0.9369538116455078
      ],
      "rotation": [
        0.7196603727148619,
        4.6227566671025095e-8,
        4.7914287651261356e-8,
        0.6943262546842813
      ],
      "children": [
        3,
        46,
        50
      ]
    },
    {
      "name": "spine_01",
      "translation": [
        5.773108570891395e-10,
        0.019323654174804895,
        -0.0021491694450378428
      ],
      "rotation": [
        0.09541208926457635,
        6.331867860884517e-8,
        -0.0000019100210710416925,
        0.995437860048791
      ],
      "children": [
        4
      ]
    },
    {
      "name": "spine_02",
      "translation": [
        -3.5605687610621287e-7,
        0.09485706972595437,
        -0.007088026714461897
      ],
      "rotation": [
        -0.14631611340851777,
        -4.6161133307014754e-7,
        -0.000003136484730578493,
        0.989237885923793
      ],
      "children": [
        5
      ]
    },
    {
      "name": "spine_03",
      "translation": [
        -8.08570766838241e-7,
        0.0818341827392574,
        9.536743141719262e-9
      ],
      "rotation": [
        -0.07439452918320406,
        3.824911212434203e-8,
        -3.3761915526344403e-10,
        0.997228887481509
      ],
      "children": [
        6,
        25,
        44
      ]
    },
    {
      "name": "clavicle_l",
      "translation": [
        0.011661298419593515,
        0.23689367901399788,
        -0.006646274902263407
      ],
      "rotation": [
        0.062205160620606645,
        0.08853216695590417,
        -0.748975015961547,
        0.6537040606204438
      ],
      "children": [
        7
      ]
    },
    {
      "name": "upperarm_l",
      "translation": [
        -1.52587890607514e-7,
        0.1682992935180664,
        0
      ],
      "rotation": [
        0.011273329651574687,
        -0.025992481182717485,
        -0.3810530514699028,
        0.9241189722790073
      ],
      "children": [
        8
      ]
    },
    {
      "name": "lowerarm_l",
      "translation": [
        7.629394516150967e-8,
        0.25644233703613295,
        8.583068848017072e-8
      ],
      "rotation": [
        0.43382203424751853,
        -0.014474153784838498,
        0.0754846049103675,
        0.8977143286675798
      ],
      "children": [
        9
      ]
    },
    {
      "name": "hand_l",
      "translation": [
        0.03897218911770994,
        0.2433628412258239,
        -0.06577644756889683
      ],
      "rotation": [
        -0.03414340334017044,
        0.6979181698092615,
        -0.14036542930140336,
        0.7014570567864253
      ],
      "children": [
        10,
        13,
        16,
        19,
        22
      ]
    },
    {
      "name": "index_01_l",
      "translation": [
        -0.027537397195752853,
        0.08418754340234674,
        0.0023229062363507857
      ],
      "rotation": [
        0.15746086952348334,
        0.10195446888310986,
        0.01857005536450182,
        0.9820725603983806
      ],
      "children": [
        11
      ]
    },
    {
      "name": "index_02_l",
      "translation": [
        -0.0008243503129317098,
        0.04130546134529195,
        0.0010875690841196661
      ],
      "rotation": [
        0.11820645160213597,
        -0.024719195144034187,
        0.02026885481065225,
        0.9924743672839756
      ],
      "children": [
        12
      ]
    },
    {
      "name": "index_03_l",
      "translation": [
        -0.00012486851349693961,
        0.02483682324868819,
        -0.00009454743595560533
      ],
      "rotation": [
        0.021680911989895118,
        -0.0118836545573096,
        -0.004359352393572284,
        0.999684806754788
      ]
    },
    {
      "name": "middle_01_l",
      "translation": [
        -0.004108110175764512,
        0.0853740546834223,
        -0.002592043588724058
      ],
      "rotation": [
        0.1560704903003239,
        -0.003862068267928655,
        -0.032824884438332806,
        0.987192794467079
      ],
      "children": [
        14
      ]
    },
    {
      "name": "middle_02_l",
      "translation": [
        -0.0001047574373959333,
        0.04644549009610177,
        0.00047784994409100223
      ],
      "rotation": [
        0.18629050273833597,
        0.014219438207265664,
        0.007081590762582805,
        0.9823662795713416
      ],
      "children": [
        15
      ]
    },
    {
      "name": "middle_03_l",
      "translation": [
        -0.0006211430153406179,
        0.030202228717945555,
        -0.0001836976628873943
      ],
      "rotation": [
        0.03533972312994664,
        -0.009470139513249012,
        0.009338090759928603,
        0.9992868559566156
      ]
    },
    {
      "name": "pinky_01_l",
      "translation": [
        0.0358814154721631,
        0.07094659478143617,
        0.014387276181196451
      ],
      "rotation": [
        0.15875748401780132,
        -0.16756082348807752,
        -0.1908124643276495,
        0.9541016901554804
      ],
      "children": [
        17
      ]
    },
    {
      "name": "pinky_02_l",
      "translation": [
        0.00011860737523439191,
        0.03013082346681406,
        0.00260682439054738
      ],
      "rotation": [
        0.17786419487616,
        0.012841955115528145,
        -0.016175188010177685,
        0.9838382873535171
      ],
      "children": [
        18
      ]
    },
    {
      "name": "pinky_03_l",
      "translation": [
        0.0003077594803173045,
        0.01800238723655357,
        -0.00007482193468355547
      ],
      "rotation": [
        0.03859715187202806,
        0.004175760033473892,
        0.0032612393542190577,
        0.9992408054184861
      ]
    },
    {
      "name": "ring_01_l",
      "translation": [
        0.01751584831022434,
        0.07807809570432672,
        0.00354717145009259
      ],
      "rotation": [
        0.13525847519563827,
        -0.05125741364646952,
        -0.11316157806789195,
        0.9829914952242517
      ],
      "children": [
        20
      ]
    },
    {
      "name": "ring_02_l",
      "translation": [
        0.0007092827108662741,
        0.04042619232002376,
        0.0018307199254367634
      ],
      "rotation": [
        0.21838511225070703,
        -0.03673077196871501,
        0.014017513771244055,
        0.9750704089682455
      ],
      "children": [
        21
      ]
    },
    {
      "name": "ring_03_l",
      "translation": [
        0.00030666666790983566,
        0.0320271639123125,
        0.0004760600397463177
      ],
      "rotation": [
        0.06734930744959874,
        0.006749349860154403,
        0.006937989348667396,
        0.9976825052923012
      ]
    },
    {
      "name": "thumb_01_l",
      "translation": [
        -0.026806434445276285,
        0.017004971360152166,
        0.01289796677125804
      ],
      "rotation": [
        -0.018206454389959294,
        0.5765201311712996,
        0.33247731202572317,
        0.746158093409784
      ],
      "children": [
        23
      ]
    },
    {
      "name": "thumb_02_l",
      "translation": [
        0.0008948354073419207,
        0.04465758914150561,
        0.0005892836594310336
      ],
      "rotation": [
        0.15380913653316838,
        0.030226021286396607,
        -0.0238510695077394,
        0.9873501221144668
      ],
      "children": [
        24
      ]
    },
    {
      "name": "thumb_03_l",
      "translation": [
        -0.00007406209295496291,
        0.02760189347553163,
        0.0002613110913389522
      ],
      "rotation": [
        0.04673614407641327,
        0.017924944329891526,
        0.0029717824847160863,
        0.9987420075857942
      ]
    },
    {
      "name": "clavicle_r",
      "translation": [
        -0.01166581139300681,
        0.2368934544222512,
        -0.006646335560994948
      ],
      "rotation": [
        0.062205149789753965,
        -0.08853424591907112,
        0.7489813607935258,
        0.6536965104871328
      ],
      "children": [
        26
      ]
    },
    {
      "name": "upperarm_r",
      "translation": [
        -5.898059818321144e-17,
        0.1682993316650391,
        0
      ],
      "rotation": [
        0.011274410960333221,
        0.025993407706045496,
        0.3810531212344422,
        0.9241189042600602
      ],
      "children": [
        27
      ]
    },
    {
      "name": "lowerarm_r",
      "translation": [
        5.551115123125783e-17,
        0.25657760620117176,
        -1.0967254637436752e-7
      ],
      "rotation": [
        0.43391239595513387,
        0.014498858079898796,
        -0.07565910161792833,
        0.8976555665138061
      ],
      "children": [
        28
      ]
    },
    {
      "name": "hand_r",
      "translation": [
        -0.03921887346591918,
        0.24350096847436314,
        -0.06586474042384141
      ],
      "rotation": [
        -0.03456058712244232,
        -0.698019417608319,
        0.13978416998622795,
        0.7014519543637731
      ],
      "children": [
        29,
        32,
        35,
        38,
        41
      ]
    },
    {
      "name": "index_01_r",
      "translation": [
        0.027513395439555416,
        0.08414471873269191,
        0.002338724555034033
      ],
      "rotation": [
        0.15884118602630692,
        -0.10101082344635637,
        -0.017187070950211904,
        0.9819729608093075
      ],
      "children": [
        30
      ]
    },
    {
      "name": "index_02_r",
      "translation": [
        0.000882650960785894,
        0.04121988990401215,
        0.0010379665304890984
      ],
      "rotation": [
        0.11863747356518574,
        0.024492270189837226,
        -0.021326196036354855,
        0.9924064046194164
      ],
      "children": [
        31
      ]
    },
    {
      "name": "index_03_r",
      "translation": [
        0.00007098267619745635,
        0.02463814291402258,
        -0.00012657818772476848
      ],
      "rotation": [
        0.02106332914234015,
        0.012495424347934445,
        0.004989177592799452,
        0.9996876055262235
      ]
    },
    {
      "name": "middle_01_r",
      "translation": [
        0.004070706976802188,
        0.08526987806474118,
        -0.0026041512684154
      ],
      "rotation": [
        0.15700440139052504,
        0.00458000731352983,
        0.03277784301626694,
        0.9870431877502686
      ],
      "children": [
        33
      ]
    },
    {
      "name": "middle_02_r",
      "translation": [
        0.000016612894254548066,
        0.04641725608798808,
        0.0005012201735821731
      ],
      "rotation": [
        0.18671816958090268,
        -0.01471040812202054,
        -0.006815401658431376,
        0.9822797357888816
      ],
      "children": [
        34
      ]
    },
    {
      "name": "middle_03_r",
      "translation": [
        0.0006595905816924792,
        0.03014507411060565,
        -0.00023855039918774246
      ],
      "rotation": [
        0.03468896891290729,
        0.010015339777860543,
        -0.008662931212019031,
        0.9993104232558115
      ]
    },
    {
      "name": "pinky_01_r",
      "translation": [
        -0.03587707719766209,
        0.07082624776189256,
        0.014335172171499766
      ],
      "rotation": [
        0.15936443686478632,
        0.16693466324539238,
        0.19104061177679335,
        0.954064609511256
      ],
      "children": [
        36
      ]
    },
    {
      "name": "pinky_02_r",
      "translation": [
        -0.00011566480224928233,
        0.030099353121630312,
        0.0026514421885889816
      ],
      "rotation": [
        0.18011721482190685,
        -0.011667875829632619,
        0.016982770862382816,
        0.9834293238928049
      ],
      "children": [
        37
      ]
    },
    {
      "name": "pinky_03_r",
      "translation": [
        -0.00025334785695613204,
        0.017772345139922437,
        -0.00018100688565497736
      ],
      "rotation": [
        0.036801156792668106,
        -0.005060419437071037,
        -0.0036633472014395655,
        0.9993030806022386
      ]
    },
    {
      "name": "ring_01_r",
      "translation": [
        -0.017543837552960496,
        0.07796185074685252,
        0.003502089302995781
      ],
      "rotation": [
        0.1364076098649676,
        0.051607080633528306,
        0.11318324043909449,
        0.9828118982201617
      ],
      "children": [
        39
      ]
    },
    {
      "name": "ring_02_r",
      "translation": [
        -0.000710802864648169,
        0.04042800854751752,
        0.0018460023743657739
      ],
      "rotation": [
        0.21862731185848422,
        0.03701648823558228,
        -0.014130205893256594,
        0.9750037001928005
      ],
      "children": [
        40
      ]
    },
    {
      "name": "ring_03_r",
      "translation": [
        -0.00032543581262489685,
        0.03199069046770581,
        0.000427083744721779
      ],
      "rotation": [
        0.06642316689567945,
        -0.0069034519863128835,
        -0.00643652499986859,
        0.9977468999681971
      ]
    },
    {
      "name": "thumb_01_r",
      "translation": [
        0.0268453943964378,
        0.01700510540817013,
        0.012907598668909614
      ],
      "rotation": [
        -0.01743352158191885,
        -0.5758842016172506,
        -0.33184016559360147,
        0.7469508438657299
      ],
      "children": [
        42
      ]
    },
    {
      "name": "thumb_02_r",
      "translation": [
        -0.0008673133959131163,
        0.044613467323238565,
        0.0005437578029533659
      ],
      "rotation": [
        0.1546446628528537,
        -0.030066217580626237,
        0.024019539831346182,
        0.9872203971342023
      ],
      "children": [
        43
      ]
    },
    {
      "name": "thumb_03_r",
      "translation": [
        0.00003769035226014461,
        0.027563923524215717,
        0.00022295770524030645
      ],
      "rotation": [
        0.045731814458473796,
        -0.019757547641319092,
        -0.0030521909320693486,
        0.9987536856442889
      ]
    },
    {
      "name": "neck_01",
      "translation": [
        -0.0000028692907880114017,
        0.2959628352654146,
        0.01033705161454488
      ],
      "rotation": [
        0.21377358744118974,
        7.660765571102071e-8,
        -3.6986558431430955e-8,
        0.9768832342263414
      ],
      "children": [
        45
      ]
    },
    {
      "name": "head",
      "translation": [
        -0.0000010136424038671247,
        0.10338232937974927,
        -0.0008653254640169916
      ],
      "rotation": [
        -0.1073944499548431,
        -2.491389382142576e-8,
        -6.893000123731333e-8,
        0.9942164915745922
      ]
    },
    {
      "name": "thigh_l",
      "translation": [
        0.08513572692871095,
        -0.030273208618163988,
        -0.0010150229930877587
      ],
      "rotation": [
        0.9969521262232773,
        0.022744893301479493,
        -0.07404637818578266,
        0.009287719050385066
      ],
      "children": [
        47
      ]
    },
    {
      "name": "calf_l",
      "translation": [
        -9.53674313131092e-9,
        0.4168631744384764,
        -6.079673767894755e-8
      ],
      "rotation": [
        -0.010792253598134315,
        0.002349026284451458,
        -0.08136946685249512,
        0.9966228068842943
      ],
      "children": [
        48
      ]
    },
    {
      "name": "foot_l",
      "translation": [
        -0.06864353452387707,
        0.41290212915023283,
        0.008463733182891668
      ],
      "rotation": [
        -0.6939723661269442,
        -0.08514321112135782,
        0.0545075339343199,
        0.7128687939561624
      ],
      "children": [
        49
      ]
    },
    {
      "name": "ball_l",
      "translation": [
        -0.0023524572301714397,
        0.13074392883644403,
        0.061209143481423506
      ],
      "rotation": [
        -0.015823764457126254,
        0.01657166241051045,
        0.029357632371467393,
        0.9993063183553376
      ]
    },
    {
      "name": "thigh_r",
      "translation": [
        -0.08513572692871095,
        -0.03027320861816402,
        -0.0010150575637817467
      ],
      "rotation": [
        0.9969521257956953,
        -0.022744912019516908,
        0.07404638525455383,
        0.009287662752425515
      ],
      "children": [
        51
      ]
    },
    {
      "name": "calf_r",
      "translation": [
        9.536743117433133e-9,
        0.41687175750732425,
        -8.34465026904041e-8
      ],
      "rotation": [
        -0.010795069897221857,
        -0.002349472076480583,
        0.08137494764480295,
        0.9966223278367194
      ],
      "children": [
        52
      ]
    },
    {
      "name": "foot_r",
      "translation": [
        0.06865523062137312,
        0.41290265769612355,
        0.008434902688763068
      ],
      "rotation": [
        -0.6940476131756611,
        0.08514257526871373,
        -0.05448153213458007,
        0.7127975976236509
      ],
      "children": [
        53
      ]
    },
    {
      "name": "ball_r",
      "translation": [
        0.0023530230469374913,
        0.13072675400893544,
        0.06118811189927089
      ],
      "rotation": [
        -0.01578752028820748,
        -0.01664711101630905,
        -0.029320088735714542,
        0.999306739842422
      ]
    },
    {
      "name": "mh_hair:Hair_S_SweptUp",
      "mesh": 0,
      "skin": 0
    }
  ],
  "skins": [
    {
      "inverseBindMatrices": 4,
      "skeleton": 1,
      "joints": [
        1,
        2,
        3,
        4,
        5,
        6,
        7,
        8,
        9,
        10,
        11,
        12,
        13,
        14,
        15,
        16,
        17,
        18,
        19,
        20,
        21,
        22,
        23,
        24,
        25,
        26,
        27,
        28,
        29,
        30,
        31,
        32,
        33,
        34,
        35,
        36,
        37,
        38,
        39,
        40,
        41,
        42,
        43,
        44,
        45,
        46,
        47,
        48,
        49,
        50,
        51,
        52,
        53
      ]
    }
  ],
  "scenes": [
    {
      "nodes": [
        0
      ]
    }
  ],
  "scene": 0,
  "extensionsUsed": [
    "EXT_meshopt_compression",
    "EXT_texture_webp",
    "KHR_mesh_quantization"
  ],
  "extensionsRequired": [
    "EXT_meshopt_compression",
    "EXT_texture_webp",
    "KHR_mesh_quantization"
  ]
}