{
  "asset": {
    "generator": "glTF-Transform v4.5.0",
    "version": "2.0"
  },
  "accessors": [
    {
      "type": "SCALAR",
      "componentType": 5123,
      "count": 59988,
      "normalized": false,
      "byteOffset": 0,
      "bufferView": 0
    },
    {
      "type": "VEC4",
      "componentType": 5121,
      "count": 10989,
      "normalized": false,
      "byteOffset": 0,
      "bufferView": 1
    },
    {
      "type": "VEC4",
      "componentType": 5121,
      "count": 10989,
      "normalized": true,
      "byteOffset": 0,
      "bufferView": 2
    },
    {
      "type": "SCALAR",
      "componentType": 5123,
      "count": 88908,
      "normalized": false,
      "byteOffset": 119976,
      "bufferView": 0
    },
    {
      "type": "VEC4",
      "componentType": 5121,
      "count": 16655,
      "normalized": false,
      "byteOffset": 0,
      "bufferView": 3
    },
    {
      "type": "VEC4",
      "componentType": 5121,
      "count": 16655,
      "normalized": true,
      "byteOffset": 0,
      "bufferView": 4
    },
    {
      "type": "SCALAR",
      "componentType": 5123,
      "count": 12360,
      "normalized": false,
      "byteOffset": 297792,
      "bufferView": 0
    },
    {
      "type": "VEC4",
      "componentType": 5121,
      "count": 2416,
      "normalized": false,
      "byteOffset": 0,
      "bufferView": 5
    },
    {
      "type": "VEC4",
      "componentType": 5121,
      "count": 2416,
      "normalized": true,
      "byteOffset": 0,
      "bufferView": 6
    },
    {
      "type": "SCALAR",
      "componentType": 5123,
      "count": 32124,
      "normalized": false,
      "byteOffset": 322512,
      "bufferView": 0
    },
    {
      "type": "VEC4",
      "componentType": 5121,
      "count": 5759,
      "normalized": false,
      "byteOffset": 0,
      "bufferView": 7
    },
    {
      "type": "VEC4",
      "componentType": 5121,
      "count": 5759,
      "normalized": true,
      "byteOffset": 0,
      "bufferView": 8
    },
    {
      "type": "MAT4",
      "componentType": 5126,
      "count": 53,
      "normalized": false,
      "byteOffset": 0,
      "bufferView": 9
    },
    {
      "type": "VEC3",
      "componentType": 5122,
      "count": 10989,
      "max": [
        32767,
        12169,
        11341
      ],
      "min": [
        -32767,
        -12169,
        -11341
      ],
      "normalized": true,
      "byteOffset": 0,
      "bufferView": 10
    },
    {
      "type": "VEC3",
      "componentType": 5122,
      "count": 10989,
      "normalized": true,
      "byteOffset": 0,
      "bufferView": 11
    },
    {
      "type": "VEC2",
      "componentType": 5123,
      "count": 10989,
      "normalized": true,
      "byteOffset": 0,
      "bufferView": 12
    },
    {
      "type": "MAT4",
      "componentType": 5126,
      "count": 53,
      "normalized": false,
      "byteOffset": 3392,
      "bufferView": 9
    },
    {
      "type": "VEC3",
      "componentType": 5122,
      "count": 16655,
      "max": [
        27943,
        32767,
        10409
      ],
      "min": [
        -27943,
        -32767,
        -10409
      ],
      "normalized": true,
      "byteOffset": 0,
      "bufferView": 13
    },
    {
      "type": "VEC3",
      "componentType": 5122,
      "count": 16655,
      "normalized": true,
      "byteOffset": 0,
      "bufferView": 14
    },
    {
      "type": "VEC2",
      "componentType": 5123,
      "count": 16655,
      "normalized": true,
      "byteOffset": 0,
      "bufferView": 15
    },
    {
      "type": "MAT4",
      "componentType": 5126,
      "count": 53,
      "normalized": false,
      "byteOffset": 6784,
      "bufferView": 9
    },
    {
      "type": "VEC3",
      "componentType": 5122,
      "count": 2416,
      "max": [
        32767,
        13789,
        17934
      ],
      "min": [
        -32767,
        -13789,
        -17934
      ],
      "normalized": true,
      "byteOffset": 0,
      "bufferView": 16
    },
    {
      "type": "VEC3",
      "componentType": 5122,
      "count": 2416,
      "normalized": true,
      "byteOffset": 0,
      "bufferView": 17
    },
    {
      "type": "VEC2",
      "componentType": 5123,
      "count": 2416,
      "normalized": true,
      "byteOffset": 0,
      "bufferView": 18
    },
    {
      "type": "MAT4",
      "componentType": 5126,
      "count": 53,
      "normalized": false,
      "byteOffset": 10176,
      "bufferView": 9
    },
    {
      "type": "VEC3",
      "componentType": 5122,
      "count": 5759,
      "max": [
        12549,
        32767,
        7996
      ],
      "min": [
        -12549,
        -32767,
        -7996
      ],
      "normalized": true,
      "byteOffset": 0,
      "bufferView": 19
    },
    {
      "type": "VEC3",
      "componentType": 5122,
      "count": 5759,
      "normalized": true,
      "byteOffset": 0,
      "bufferView": 20
    },
    {
      "type": "VEC2",
      "componentType": 5123,
      "count": 5759,
      "normalized": true,
      "byteOffset": 0,
      "bufferView": 21
    }
  ],
  "bufferViews": [
    {
      "buffer": 1,
      "byteOffset": 0,
      "byteLength": 386760,
      "target": 34963,
      "extensions": {
        "EXT_meshopt_compression": {
          "buffer": 0,
          "byteOffset": 0,
          "byteLength": 72695,
          "mode": "TRIANGLES",
          "byteStride": 2,
          "count": 193380
        }
      }
    },
    {
      "buffer": 1,
      "byteOffset": 386760,
      "byteLength": 43956,
      "target": 34962,
      "byteStride": 4,
      "extensions": {
        "EXT_meshopt_compression": {
          "buffer": 0,
          "byteOffset": 72696,
          "byteLength": 10029,
          "mode": "ATTRIBUTES",
          "byteStride": 4,
          "count": 10989
        }
      }
    },
    {
      "buffer": 1,
      "byteOffset": 430716,
      "byteLength": 43956,
      "target": 34962,
      "byteStride": 4,
      "extensions": {
        "EXT_meshopt_compression": {
          "buffer": 0,
          "byteOffset": 82728,
          "byteLength": 22412,
          "mode": "ATTRIBUTES",
          "byteStride": 4,
          "count": 10989
        }
      }
    },
    {
      "buffer": 1,
      "byteOffset": 474672,
      "byteLength": 66620,
      "target": 34962,
      "byteStride": 4,
      "extensions": {
        "EXT_meshopt_compression": {
          "buffer": 0,
          "byteOffset": 105140,
          "byteLength": 17267,
          "mode": "ATTRIBUTES",
          "byteStride": 4,
          "count": 16655
        }
      }
    },
    {
      "buffer": 1,
      "byteOffset": 541292,
      "byteLength": 66620,
      "target": 34962,
      "byteStride": 4,
      "extensions": {
        "EXT_meshopt_compression": {
          "buffer": 0,
          "byteOffset": 122408,
          "byteLength": 38881,
          "mode": "ATTRIBUTES",
          "byteStride": 4,
          "count": 16655
        }
      }
    },
    {
      "buffer": 1,
      "byteOffset": 607912,
      "byteLength": 9664,
      "target": 34962,
      "byteStride": 4,
      "extensions": {
        "EXT_meshopt_compression": {
          "buffer": 0,
          "byteOffset": 161292,
          "byteLength": 1126,
          "mode": "ATTRIBUTES",
          "byteStride": 4,
          "count": 2416
        }
      }
    },
    {
      "buffer": 1,
      "byteOffset": 617576,
      "byteLength": 9664,
      "target": 34962,
      "byteStride": 4,
      "extensions": {
        "EXT_meshopt_compression": {
          "buffer": 0,
          "byteOffset": 162420,
          "byteLength": 2649,
          "mode": "ATTRIBUTES",
          "byteStride": 4,
          "count": 2416
        }
      }
    },
    {
      "buffer": 1,
      "byteOffset": 627240,
      "byteLength": 23036,
      "target": 34962,
      "byteStride": 4,
      "extensions": {
        "EXT_meshopt_compression": {
          "buffer": 0,
          "byteOffset": 165072,
          "byteLength": 4019,
          "mode": "ATTRIBUTES",
          "byteStride": 4,
          "count": 5759
        }
      }
    },
    {
      "buffer": 1,
      "byteOffset": 650276,
      "byteLength": 23036,
      "target": 34962,
      "byteStride": 4,
      "extensions": {
        "EXT_meshopt_compression": {
          "buffer": 0,
          "byteOffset": 169092,
          "byteLength": 10414,
          "mode": "ATTRIBUTES",
          "byteStride": 4,
          "count": 5759
        }
      }
    },
    {
      "buffer": 1,
      "byteOffset": 673312,
      "byteLength": 13568,
      "extensions": {
        "EXT_meshopt_compression": {
          "buffer": 0,
          "byteOffset": 179508,
          "byteLength": 9462,
          "mode": "ATTRIBUTES",
          "byteStride": 64,
          "count": 212
        }
      }
    },
    {
      "buffer": 1,
      "byteOffset": 686880,
      "byteLength": 87912,
      "target": 34962,
      "byteStride": 8,
      "extensions": {
        "EXT_meshopt_compression": {
          "buffer": 0,
          "byteOffset": 188972,
          "byteLength": 43418,
          "mode": "ATTRIBUTES",
          "byteStride": 8,
          "count": 10989
        }
      }
    },
    {
      "buffer": 1,
      "byteOffset": 774792,
      "byteLength": 87912,
      "target": 34962,
      "byteStride": 8,
      "extensions": {
        "EXT_meshopt_compression": {
          "buffer": 0,
          "byteOffset": 232392,
          "byteLength": 62999,
          "mode": "ATTRIBUTES",
          "byteStride": 8,
          "count": 10989
        }
      }
    },
    {
      "buffer": 1,
      "byteOffset": 862704,
      "byteLength": 43956,
      "target": 34962,
      "byteStride": 4,
      "extensions": {
        "EXT_meshopt_compression": {
          "buffer": 0,
          "byteOffset": 295392,
          "byteLength": 28734,
          "mode": "ATTRIBUTES",
          "byteStride": 4,
          "count": 10989
        }
      }
    },
    {
      "buffer": 1,
      "byteOffset": 906660,
      "byteLength": 133240,
      "target": 34962,
      "byteStride": 8,
      "extensions": {
        "EXT_meshopt_compression": {
          "buffer": 0,
          "byteOffset": 324128,
          "byteLength": 73275,
          "mode": "ATTRIBUTES",
          "byteStride": 8,
          "count": 16655
        }
      }
    },
    {
      "buffer": 1,
      "byteOffset": 1039900,
      "byteLength": 133240,
      "target": 34962,
      "byteStride": 8,
      "extensions": {
        "EXT_meshopt_compression": {
          "buffer": 0,
          "byteOffset": 397404,
          "byteLength": 97143,
          "mode": "ATTRIBUTES",
          "byteStride": 8,
          "count": 16655
        }
      }
    },
    {
      "buffer": 1,
      "byteOffset": 1173140,
      "byteLength": 66620,
      "target": 34962,
      "byteStride": 4,
      "extensions": {
        "EXT_meshopt_compression": {
          "buffer": 0,
          "byteOffset": 494548,
          "byteLength": 44517,
          "mode": "ATTRIBUTES",
          "byteStride": 4,
          "count": 16655
        }
      }
    },
    {
      "buffer": 1,
      "byteOffset": 1239760,
      "byteLength": 19328,
      "target": 34962,
      "byteStride": 8,
      "extensions": {
        "EXT_meshopt_compression": {
          "buffer": 0,
          "byteOffset": 539068,
          "byteLength": 11734,
          "mode": "ATTRIBUTES",
          "byteStride": 8,
          "count": 2416
        }
      }
    },
    {
      "buffer": 1,
      "byteOffset": 1259088,
      "byteLength": 19328,
      "target": 34962,
      "byteStride": 8,
      "extensions": {
        "EXT_meshopt_compression": {
          "buffer": 0,
          "byteOffset": 550804,
          "byteLength": 14578,
          "mode": "ATTRIBUTES",
          "byteStride": 8,
          "count": 2416
        }
      }
    },
    {
      "buffer": 1,
      "byteOffset": 1278416,
      "byteLength": 9664,
      "target": 34962,
      "byteStride": 4,
      "extensions": {
        "EXT_meshopt_compression": {
          "buffer": 0,
          "byteOffset": 565384,
          "byteLength": 7500,
          "mode": "ATTRIBUTES",
          "byteStride": 4,
          "count": 2416
        }
      }
    },
    {
      "buffer": 1,
      "byteOffset": 1288080,
      "byteLength": 46072,
      "target": 34962,
      "byteStride": 8,
      "extensions": {
        "EXT_meshopt_compression": {
          "buffer": 0,
          "byteOffset": 572884,
          "byteLength": 26035,
          "mode": "ATTRIBUTES",
          "byteStride": 8,
          "count": 5759
        }
      }
    },
    {
      "buffer": 1,
      "byteOffset": 1334152,
      "byteLength": 46072,
      "target": 34962,
      "byteStride": 8,
      "extensions": {
        "EXT_meshopt_compression": {
          "buffer": 0,
          "byteOffset": 598920,
          "byteLength": 32668,
          "mode": "ATTRIBUTES",
          "byteStride": 8,
          "count": 5759
        }
      }
    },
    {
      "buffer": 1,
      "byteOffset": 1380224,
      "byteLength": 23036,
      "target": 34962,
      "byteStride": 4,
      "extensions": {
        "EXT_meshopt_compression": {
          "buffer": 0,
          "byteOffset": 631588,
          "byteLength": 16919,
          "mode": "ATTRIBUTES",
          "byteStride": 4,
          "count": 5759
        }
      }
    }
  ],
  "samplers": [
    {
      "magFilter": 9729,
      "minFilter": 9987,
      "wrapS": 10497,
      "wrapT": 10497
    }
  ],
  "textures": [
    {
      "sampler": 0,
      "extensions": {
        "EXT_texture_webp": {
          "source": 0
        }
      }
    },
    {
      "sampler": 0,
      "extensions": {
        "EXT_texture_webp": {
          "source": 2
        }
      }
    },
    {
      "sampler": 0,
      "extensions": {
        "EXT_texture_webp": {
          "source": 1
        }
      }
    },
    {
      "sampler": 0,
      "extensions": {
        "EXT_texture_webp": {
          "source": 3
        }
      }
    },
    {
      "sampler": 0,
      "extensions": {
        "EXT_texture_webp": {
          "source": 4
        }
      }
    },
    {
      "sampler": 0,
      "extensions": {
        "EXT_texture_webp": {
          "source": 5
        }
      }
    },
    {
      "sampler": 0,
      "extensions": {
        "EXT_texture_webp": {
          "source": 6
        }
      }
    },
    {
      "sampler": 0,
      "extensions": {
        "EXT_texture_webp": {
          "source": 7
        }
      }
    },
    {
      "sampler": 0,
      "extensions": {
        "EXT_texture_webp": {
          "source": 8
        }
      }
    }
  ],
  "images": [
    {
      "name": "skin_body_albedo",
      "mimeType": "image/webp",
      "uri": "textures/402c7d4b436a930f035b.webp"
    },
    {
      "name": "skin_body_orm",
      "mimeType": "image/webp",
      "uri": "textures/5bd0a41114f6385f106d.webp"
    },
    {
      "name": "skin_body_normal",
      "mimeType": "image/webp",
      "uri": "textures/3a2eba648e013d271139.webp"
    },
    {
      "mimeType": "image/webp",
      "uri": "textures/938744f9f09b416897c8.webp"
    },
    {
      "name": "weave:wool:punkduck_winter_coat:in",
      "mimeType": "image/webp",
      "uri": "textures/752684672f8cd67b1b4a.webp"
    },
    {
      "mimeType": "image/webp",
      "uri": "textures/a15b6b38a5e2b9ef4f22.webp"
    },
    {
      "name": "weave:leather:toigo_ankle_boots_female",
      "mimeType": "image/webp",
      "uri": "textures/e4551d03f22499ed6ae4.webp"
    },
    {
      "mimeType": "image/webp",
      "uri": "textures/2a564bf16e597184473c.webp"
    },
    {
      "name": "weave:wool:toigo_wool_pants:r:in",
      "mimeType": "image/webp",
      "uri": "textures/2fb24e1a175f95eb4892.webp"
    }
  ],
  "buffers": [
    {
      "uri": "romy.dress-warm.bin",
      "byteLength": 648508
    },
    {
      "byteLength": 1403260,
      "extensions": {
        "EXT_meshopt_compression": {
          "fallback": true
        }
      }
    }
  ],
  "materials": [
    {
      "name": "mh_skin_body",
      "extras": {
        "orm": "R occlusion, G roughness, B specular level (Unreal: F0 = 0.08·B; metallicFactor 0 keeps glTF from reading it as metal)"
      },
      "pbrMetallicRoughness": {
        "metallicFactor": 0,
        "baseColorTexture": {
          "index": 0
        },
        "metallicRoughnessTexture": {
          "index": 2
        }
      },
      "normalTexture": {
        "index": 1
      },
      "occlusionTexture": {
        "index": 2
      }
    },
    {
      "name": "clothes:punkduck_winter_coat",
      "extras": {
        "weave": {
          "kind": "wool:punkduck_winter_coat:in",
          "tile_m": null,
          "metres_per_uv": 1.9767
        }
      },
      "alphaMode": "BLEND",
      "doubleSided": true,
      "pbrMetallicRoughness": {
        "roughnessFactor": 0.699999988079071,
        "metallicFactor": 0,
        "baseColorTexture": {
          "index": 3
        }
      },
      "normalTexture": {
        "index": 4,
        "extensions": {
          "KHR_texture_transform": {}
        }
      }
    },
    {
      "name": "clothes:toigo_ankle_boots_female",
      "extras": {
        "weave": {
          "kind": "leather:toigo_ankle_boots_female",
          "tile_m": null,
          "metres_per_uv": 0.4968
        }
      },
      "alphaMode": "BLEND",
      "doubleSided": true,
      "pbrMetallicRoughness": {
        "roughnessFactor": 0.699999988079071,
        "metallicFactor": 0,
        "baseColorTexture": {
          "index": 5
        }
      },
      "normalTexture": {
        "index": 6,
        "extensions": {
          "KHR_texture_transform": {}
        }
      }
    },
    {
      "name": "clothes:toigo_wool_pants",
      "extras": {
        "weave": {
          "kind": "wool:toigo_wool_pants:r:in",
          "tile_m": null,
          "metres_per_uv": 1.5278
        }
      },
      "alphaMode": "BLEND",
      "doubleSided": true,
      "pbrMetallicRoughness": {
        "roughnessFactor": 0.8039000034332275,
        "metallicFactor": 0,
        "baseColorTexture": {
          "index": 7
        }
      },
      "normalTexture": {
        "index": 8,
        "extensions": {
          "KHR_texture_transform": {}
        }
      }
    }
  ],
  "meshes": [
    {
      "name": "body",
      "primitives": [
        {
          "attributes": {
            "JOINTS_0": 1,
            "WEIGHTS_0": 2,
            "POSITION": 13,
            "NORMAL": 14,
            "TEXCOORD_0": 15
          },
          "mode": 4,
          "material": 0,
          "indices": 0
        }
      ]
    },
    {
      "name": "clothes:punkduck_winter_coat",
      "primitives": [
        {
          "attributes": {
            "JOINTS_0": 4,
            "WEIGHTS_0": 5,
            "POSITION": 17,
            "NORMAL": 18,
            "TEXCOORD_0": 19
          },
          "mode": 4,
          "material": 1,
          "indices": 3
        }
      ]
    },
    {
      "name": "clothes:toigo_ankle_boots_female",
      "primitives": [
        {
          "attributes": {
            "JOINTS_0": 7,
            "WEIGHTS_0": 8,
            "POSITION": 21,
            "NORMAL": 22,
            "TEXCOORD_0": 23
          },
          "mode": 4,
          "material": 2,
          "indices": 6
        }
      ]
    },
    {
      "name": "clothes:toigo_wool_pants",
      "primitives": [
        {
          "attributes": {
            "JOINTS_0": 10,
            "WEIGHTS_0": 11,
            "POSITION": 25,
            "NORMAL": 26,
            "TEXCOORD_0": 27
          },
          "mode": 4,
          "material": 3,
          "indices": 9
        }
      ]
    }
  ],
  "nodes": [
    {
      "name": "Armature",
      "children": [
        1,
        54,
        55,
        56,
        57
      ]
    },
    {
      "name": "Root",
      "rotation": [
        -0.7071067811865475,
        0,
        0,
        0.7071067811865476
      ],
      "children": [
        2
      ]
    },
    {
      "name": "pelvis",
      "translation": [
        -0.000004046490648761392,
        -0.02979236841201788,
        0.9307796478271485
      ],
      "rotation": [
        0.7196603727148619,
        4.6227566671025095e-8,
        4.7914287651261356e-8,
        0.6943262546842813
      ],
      "children": [
        3,
        46,
        50
      ]
    },
    {
      "name": "spine_01",
      "translation": [
        4.819594325480956e-10,
        0.03461654663085932,
        -0.001571467220783232
      ],
      "rotation": [
        0.09541208926457635,
        6.331867860884517e-8,
        -0.0000019100210710416925,
        0.995437860048791
      ],
      "children": [
        4
      ]
    },
    {
      "name": "spine_02",
      "translation": [
        -4.929498700223547e-7,
        0.1310828229895735,
        -0.008882678162951796
      ],
      "rotation": [
        -0.14631611340851777,
        -4.6161133307014754e-7,
        -0.000003136484730578493,
        0.989237885923793
      ],
      "children": [
        5
      ]
    },
    {
      "name": "spine_03",
      "translation": [
        -8.23792070167432e-7,
        0.08337471008300798,
        6.938893903907228e-18
      ],
      "rotation": [
        -0.07439452918320406,
        3.824911212434203e-8,
        -3.3761915526344403e-10,
        0.997228887481509
      ],
      "children": [
        6,
        25,
        44
      ]
    },
    {
      "name": "clavicle_l",
      "translation": [
        0.010572550240082067,
        0.22985068649704185,
        -0.005789482598036317
      ],
      "rotation": [
        0.06220904540024257,
        0.08852956602411116,
        -0.7489465971715915,
        0.6537366023063624
      ],
      "children": [
        7
      ]
    },
    {
      "name": "upperarm_l",
      "translation": [
        1.2836953722228372e-16,
        0.1578503322601318,
        5.960464500437412e-10
      ],
      "rotation": [
        0.011272249253797323,
        -0.02599291158914922,
        -0.38109332526925743,
        0.9241023657469443
      ],
      "children": [
        8
      ]
    },
    {
      "name": "lowerarm_l",
      "translation": [
        1.525878904895528e-7,
        0.25817260742187487,
        8.583068847756864e-8
      ],
      "rotation": [
        0.3830320714937522,
        -0.01032033388963215,
        0.04107421939174347,
        0.9227636920777554
      ],
      "children": [
        9
      ]
    },
    {
      "name": "hand_l",
      "translation": [
        0.01940329913169786,
        0.2312593708365071,
        -0.034770231390001
      ],
      "rotation": [
        -0.011643413788515272,
        0.7102878160202115,
        -0.07789231023140604,
        0.6994915563002903
      ],
      "children": [
        10,
        13,
        16,
        19,
        22
      ]
    },
    {
      "name": "index_01_l",
      "translation": [
        -0.023848753786311794,
        0.07811451467786268,
        0.002275587142825497
      ],
      "rotation": [
        0.15796825506188578,
        0.10944132075053306,
        0.010706793745085028,
        0.9813021921267588
      ],
      "children": [
        11
      ]
    },
    {
      "name": "index_02_l",
      "translation": [
        -0.0010271178026042271,
        0.03792981834893355,
        0.0007481361416232235
      ],
      "rotation": [
        0.10848961498942074,
        -0.015530864383396044,
        0.03345899500276889,
        0.9934129510653446
      ],
      "children": [
        12
      ]
    },
    {
      "name": "index_03_l",
      "translation": [
        -0.0002760230863422253,
        0.021756659516651844,
        -0.00018062101676219466
      ],
      "rotation": [
        0.020594213660374904,
        -0.007790997595512692,
        0.0013075887099855633,
        0.9997567048697114
      ]
    },
    {
      "name": "middle_01_l",
      "translation": [
        -0.0028133944892200433,
        0.07826937048250654,
        -0.0026957506928373953
      ],
      "rotation": [
        0.159021086324734,
        0.008034300266248516,
        -0.032591393074770235,
        0.9867043859336895
      ],
      "children": [
        14
      ]
    },
    {
      "name": "middle_02_l",
      "translation": [
        -0.00008864690015081278,
        0.04213598489507833,
        0.000025212619728876007
      ],
      "rotation": [
        0.18170692624166834,
        0.014226255360630914,
        0.015130798157244876,
        0.9831333915402038
      ],
      "children": [
        15
      ]
    },
    {
      "name": "middle_03_l",
      "translation": [
        -0.0005313664024544432,
        0.027443105825283053,
        -0.0002755241828985566
      ],
      "rotation": [
        0.027750701489074426,
        -0.013224400193576659,
        0.009603490427884826,
        0.9994812588427989
      ]
    },
    {
      "name": "pinky_01_l",
      "translation": [
        0.03225333841862759,
        0.06620355334941824,
        0.012959639172626713
      ],
      "rotation": [
        0.16795590600435448,
        -0.1613495543049211,
        -0.19435949772361777,
        0.952880643422083
      ],
      "children": [
        17
      ]
    },
    {
      "name": "pinky_02_l",
      "translation": [
        -0.000028232470759198547,
        0.02663267738267,
        0.0018791091030901375
      ],
      "rotation": [
        0.17424027982632628,
        0.0015349446898977727,
        -0.0059159017150931005,
        0.9846841985823374
      ],
      "children": [
        18
      ]
    },
    {
      "name": "pinky_03_l",
      "translation": [
        0.00015547234798382603,
        0.01577957620377009,
        -0.0002047934243917804
      ],
      "rotation": [
        0.033107958599516506,
        0.0007660536711487047,
        0.004532472417827008,
        0.9994412103435235
      ]
    },
    {
      "name": "ring_01_l",
      "translation": [
        0.01596219788888082,
        0.07199343138777031,
        0.002801921069815305
      ],
      "rotation": [
        0.14222323735106662,
        -0.06115840316762709,
        -0.12635312477088287,
        0.9798301323903047
      ],
      "children": [
        20
      ]
    },
    {
      "name": "ring_02_l",
      "translation": [
        0.0005250738408133504,
        0.036317791460154514,
        0.0012656369993214178
      ],
      "rotation": [
        0.21576898028783428,
        -0.03773539744419353,
        0.027732628183472354,
        0.9753208129940191
      ],
      "children": [
        21
      ]
    },
    {
      "name": "ring_03_l",
      "translation": [
        0.00007213116522211682,
        0.029803646769805788,
        0.00008990216298121467
      ],
      "rotation": [
        0.05871827772671533,
        0.014335325571946961,
        0.007826975260527133,
        0.998140972388082
      ]
    },
    {
      "name": "thumb_01_l",
      "translation": [
        -0.025913415023422735,
        0.017735561068671413,
        0.011999037777603139
      ],
      "rotation": [
        -0.013174091608364986,
        0.5678515622159361,
        0.3069204497843074,
        0.7636562604362083
      ],
      "children": [
        23
      ]
    },
    {
      "name": "thumb_02_l",
      "translation": [
        -0.00045973944149685364,
        0.03907116999126792,
        -0.0002274157686167422
      ],
      "rotation": [
        0.1525971786447239,
        0.018591428565465567,
        -0.015367705548192586,
        0.9879940756298843
      ],
      "children": [
        24
      ]
    },
    {
      "name": "thumb_03_l",
      "translation": [
        0.00007444013465862653,
        0.024063602419691132,
        -0.0002893909183749113
      ],
      "rotation": [
        0.04704371007253544,
        0.011170541620871272,
        -0.0027844301625933477,
        0.998826489081651
      ]
    },
    {
      "name": "clavicle_r",
      "translation": [
        -0.01057692652550957,
        0.2298504819319331,
        -0.005789523608308412
      ],
      "rotation": [
        0.06220899320088423,
        -0.08853154822211862,
        0.7489529085733161,
        0.6537291081739418
      ],
      "children": [
        26
      ]
    },
    {
      "name": "upperarm_r",
      "translation": [
        1.942890293094024e-16,
        0.1578503799438476,
        0
      ],
      "rotation": [
        0.011273288906884971,
        0.025993955856032272,
        0.3810932734030172,
        0.9241023450804298
      ],
      "children": [
        27
      ]
    },
    {
      "name": "lowerarm_r",
      "translation": [
        -2.2888183592861822e-7,
        0.25823730468749995,
        -1.1920928954817916e-7
      ],
      "rotation": [
        0.38317927404409974,
        0.010369860283408644,
        -0.04130161330496694,
        0.9226918698455874
      ],
      "children": [
        28
      ]
    },
    {
      "name": "hand_r",
      "translation": [
        -0.01968522348585333,
        0.2314105034896234,
        -0.03488646210880712
      ],
      "rotation": [
        -0.012167992127508843,
        -0.7103633546216073,
        0.07713492241667701,
        0.699489848476799
      ],
      "children": [
        29,
        32,
        35,
        38,
        41
      ]
    },
    {
      "name": "index_01_r",
      "translation": [
        0.023829704788621214,
        0.07806634490813741,
        0.0022740645864623432
      ],
      "rotation": [
        0.15953519494226803,
        -0.1084279014949285,
        -0.00933574807847421,
        0.9811751910642431
      ],
      "children": [
        30
      ]
    },
    {
      "name": "index_02_r",
      "translation": [
        0.001072031921915087,
        0.03787481258646558,
        0.0007199263659277699
      ],
      "rotation": [
        0.10916450745310728,
        0.015812623569854335,
        -0.034155757356224184,
        0.9933108554162596
      ],
      "children": [
        31
      ]
    },
    {
      "name": "index_03_r",
      "translation": [
        0.00025719806162780023,
        0.021536719500244467,
        -0.00020752793507838874
      ],
      "rotation": [
        0.01938287172539042,
        0.007566736801805073,
        -0.0012671673993532894,
        0.9997826979222192
      ]
    },
    {
      "name": "middle_01_r",
      "translation": [
        0.0027698515249113334,
        0.07821189557567221,
        -0.0026967549449768424
      ],
      "rotation": [
        0.16019773917196214,
        -0.007704186613763268,
        0.03250632714535846,
        0.9865194719661297
      ],
      "children": [
        33
      ]
    },
    {
      "name": "middle_02_r",
      "translation": [
        0.00002554702451227405,
        0.04210701084793492,
        0.00005075577221974603
      ],
      "rotation": [
        0.1821604699532614,
        -0.014167236242801357,
        -0.014983499935488446,
        0.9830525659054713
      ],
      "children": [
        34
      ]
    },
    {
      "name": "middle_03_r",
      "translation": [
        0.0005543500914631152,
        0.027380593355026794,
        -0.00031924303877872706
      ],
      "rotation": [
        0.02704693259011427,
        0.01361218967065073,
        -0.009056137191302632,
        0.9995004542815418
      ]
    },
    {
      "name": "pinky_01_r",
      "translation": [
        -0.03225007545404369,
        0.06612920054153326,
        0.012926434461671799
      ],
      "rotation": [
        0.1689242081140914,
        0.16061855846469378,
        0.19501216507080668,
        0.9526996095643934
      ],
      "children": [
        36
      ]
    },
    {
      "name": "pinky_02_r",
      "translation": [
        0.000035035135573263654,
        0.026610490265939757,
        0.0019013138709697563
      ],
      "rotation": [
        0.17692098773366016,
        -0.0005532682504002401,
        0.00687948607961438,
        0.9842008589027291
      ],
      "children": [
        37
      ]
    },
    {
      "name": "pinky_03_r",
      "translation": [
        -0.0001032275129506377,
        0.015566952875159842,
        -0.0002827604768284586
      ],
      "rotation": [
        0.03061272942884435,
        -0.0012219611385060323,
        -0.005417496749211696,
        0.9995158919881488
      ]
    },
    {
      "name": "ring_01_r",
      "translation": [
        -0.01598805387571952,
        0.07191914351875806,
        0.002786655618016054
      ],
      "rotation": [
        0.14340780525686372,
        0.0615464242637083,
        0.1265317112262859,
        0.9796101087197442
      ],
      "children": [
        39
      ]
    },
    {
      "name": "ring_02_r",
      "translation": [
        -0.0005328121539248387,
        0.0363104062970496,
        0.0012705614951718514
      ],
      "rotation": [
        0.2162838906482923,
        0.037953162213491924,
        -0.02782395024806192,
        0.9751957054441059
      ],
      "children": [
        40
      ]
    },
    {
      "name": "ring_03_r",
      "translation": [
        -0.00009204742615423478,
        0.02977051205176815,
        0.000056276037284974656
      ],
      "rotation": [
        0.05774404833595997,
        -0.014363815591490792,
        -0.00717037356332173,
        0.9982023299043088
      ]
    },
    {
      "name": "thumb_01_r",
      "translation": [
        0.02594227362778892,
        0.01772253704901494,
        0.01194045193744242
      ],
      "rotation": [
        -0.012008847991150741,
        -0.5674964381268186,
        -0.3070243519108879,
        0.7638976551979976
      ],
      "children": [
        42
      ]
    },
    {
      "name": "thumb_02_r",
      "translation": [
        0.0004592543490299916,
        0.039038784813367366,
        -0.0002574015454497973
      ],
      "rotation": [
        0.1531650693473115,
        -0.018899554205182866,
        0.0158873205043152,
        0.9878921304625682
      ],
      "children": [
        43
      ]
    },
    {
      "name": "thumb_03_r",
      "translation": [
        -0.0000963717588995383,
        0.024033899896258815,
        -0.0003168063510022509
      ],
      "rotation": [
        0.04648668276024903,
        -0.012138781452178555,
        0.002655671078374578,
        0.9988416219411003
      ]
    },
    {
      "name": "neck_01",
      "translation": [
        -0.0000027853015899999224,
        0.28754639588655884,
        0.009761685845530634
      ],
      "rotation": [
        0.21377370329354076,
        8.322958893478371e-8,
        -3.833265327365274e-8,
        0.9768832088740992
      ],
      "children": [
        45
      ]
    },
    {
      "name": "head",
      "translation": [
        -9.91846036597853e-7,
        0.10118185347926033,
        -0.0008472999663046935
      ],
      "rotation": [
        -0.10739444995484312,
        -2.4913893958219352e-8,
        -6.893000106377626e-8,
        0.9942164915745924
      ]
    },
    {
      "name": "thigh_l",
      "translation": [
        0.09607842445373535,
        -0.010739440917968721,
        0.0020840357244014777
      ],
      "rotation": [
        0.9969521262232773,
        0.022744893301479493,
        -0.07404637818578266,
        0.009287719050385066
      ],
      "children": [
        47
      ]
    },
    {
      "name": "calf_l",
      "translation": [
        5.551115123125783e-17,
        0.42896427154540984,
        -0.0000027418136596749076
      ],
      "rotation": [
        -0.018765753979882765,
        0.0019050451181372302,
        -0.051710383359519246,
        0.9984839776047867
      ],
      "children": [
        48
      ]
    },
    {
      "name": "foot_l",
      "translation": [
        -0.043276592252366713,
        0.419219653778068,
        0.015235963690728632
      ],
      "rotation": [
        -0.6875051541477175,
        -0.057617573888021675,
        0.03819042093229539,
        0.722881988950199
      ],
      "children": [
        49
      ]
    },
    {
      "name": "ball_l",
      "translation": [
        -0.0015166701801101745,
        0.12390429436636347,
        0.06164408526604092
      ],
      "rotation": [
        -0.02787294985528301,
        0.01597864232081385,
        0.022517562638280298,
        0.9992300741214606
      ]
    },
    {
      "name": "thigh_r",
      "translation": [
        -0.09607842445373536,
        -0.010739440917968756,
        0.00208399042487142
      ],
      "rotation": [
        0.9969521257956953,
        -0.022744912019516908,
        0.07404638525455383,
        0.009287662752425515
      ],
      "children": [
        51
      ]
    },
    {
      "name": "calf_r",
      "translation": [
        9.53674313131092e-9,
        0.4289151000976564,
        -0.000002753734588634149
      ],
      "rotation": [
        -0.01872808874057223,
        -0.001902997242109009,
        0.0517066197925111,
        0.9984848835927636
      ],
      "children": [
        52
      ]
    },
    {
      "name": "foot_r",
      "translation": [
        0.04327576472538816,
        0.41927800600342824,
        0.015202426270722096
      ],
      "rotation": [
        -0.6874233815663788,
        0.05757383656364966,
        -0.03814383932156163,
        0.7229656944426878
      ],
      "children": [
        53
      ]
    },
    {
      "name": "ball_r",
      "translation": [
        0.0015141755494734732,
        0.12393334008487883,
        0.06168512222064883
      ],
      "rotation": [
        -0.02797751352938373,
        -0.01582237849933554,
        -0.022612737608420145,
        0.9992274892001269
      ]
    },
    {
      "name": "body",
      "mesh": 0,
      "skin": 0
    },
    {
      "name": "clothes:punkduck_winter_coat",
      "mesh": 1,
      "skin": 1
    },
    {
      "name": "clothes:toigo_ankle_boots_female",
      "mesh": 2,
      "skin": 2
    },
    {
      "name": "clothes:toigo_wool_pants",
      "mesh": 3,
      "skin": 3
    }
  ],
  "skins": [
    {
      "inverseBindMatrices": 12,
      "skeleton": 1,
      "joints": [
        1,
        2,
        3,
        4,
        5,
        6,
        7,
        8,
        9,
        10,
        11,
        12,
        13,
        14,
        15,
        16,
        17,
        18,
        19,
        20,
        21,
        22,
        23,
        24,
        25,
        26,
        27,
        28,
        29,
        30,
        31,
        32,
        33,
        34,
        35,
        36,
        37,
        38,
        39,
        40,
        41,
        42,
        43,
        44,
        45,
        46,
        47,
        48,
        49,
        50,
        51,
        52,
        53
      ]
    },
    {
      "inverseBindMatrices": 16,
      "skeleton": 1,
      "joints": [
        1,
        2,
        3,
        4,
        5,
        6,
        7,
        8,
        9,
        10,
        11,
        12,
        13,
        14,
        15,
        16,
        17,
        18,
        19,
        20,
        21,
        22,
        23,
        24,
        25,
        26,
        27,
        28,
        29,
        30,
        31,
        32,
        33,
        34,
        35,
        36,
        37,
        38,
        39,
        40,
        41,
        42,
        43,
        44,
        45,
        46,
        47,
        48,
        49,
        50,
        51,
        52,
        53
      ]
    },
    {
      "inverseBindMatrices": 20,
      "skeleton": 1,
      "joints": [
        1,
        2,
        3,
        4,
        5,
        6,
        7,
        8,
        9,
        10,
        11,
        12,
        13,
        14,
        15,
        16,
        17,
        18,
        19,
        20,
        21,
        22,
        23,
        24,
        25,
        26,
        27,
        28,
        29,
        30,
        31,
        32,
        33,
        34,
        35,
        36,
        37,
        38,
        39,
        40,
        41,
        42,
        43,
        44,
        45,
        46,
        47,
        48,
        49,
        50,
        51,
        52,
        53
      ]
    },
    {
      "inverseBindMatrices": 24,
      "skeleton": 1,
      "joints": [
        1,
        2,
        3,
        4,
        5,
        6,
        7,
        8,
        9,
        10,
        11,
        12,
        13,
        14,
        15,
        16,
        17,
        18,
        19,
        20,
        21,
        22,
        23,
        24,
        25,
        26,
        27,
        28,
        29,
        30,
        31,
        32,
        33,
        34,
        35,
        36,
        37,
        38,
        39,
        40,
        41,
        42,
        43,
        44,
        45,
        46,
        47,
        48,
        49,
        50,
        51,
        52,
        53
      ]
    }
  ],
  "scenes": [
    {
      "nodes": [
        0
      ]
    }
  ],
  "scene": 0,
  "extensionsUsed": [
    "EXT_meshopt_compression",
    "EXT_texture_webp",
    "KHR_mesh_quantization",
    "KHR_texture_transform"
  ],
  "extensionsRequired": [
    "EXT_meshopt_compression",
    "EXT_texture_webp",
    "KHR_mesh_quantization"
  ]
}