{
  "asset": {
    "generator": "glTF-Transform v4.5.0",
    "version": "2.0"
  },
  "accessors": [
    {
      "type": "SCALAR",
      "componentType": 5123,
      "count": 70182,
      "normalized": false,
      "byteOffset": 0,
      "bufferView": 0
    },
    {
      "type": "VEC4",
      "componentType": 5121,
      "count": 12846,
      "normalized": false,
      "byteOffset": 0,
      "bufferView": 1
    },
    {
      "type": "VEC4",
      "componentType": 5121,
      "count": 12846,
      "normalized": true,
      "byteOffset": 0,
      "bufferView": 2
    },
    {
      "type": "SCALAR",
      "componentType": 5123,
      "count": 58830,
      "normalized": false,
      "byteOffset": 140364,
      "bufferView": 0
    },
    {
      "type": "VEC4",
      "componentType": 5121,
      "count": 13310,
      "normalized": false,
      "byteOffset": 0,
      "bufferView": 3
    },
    {
      "type": "VEC4",
      "componentType": 5121,
      "count": 13310,
      "normalized": true,
      "byteOffset": 0,
      "bufferView": 4
    },
    {
      "type": "SCALAR",
      "componentType": 5123,
      "count": 61686,
      "normalized": false,
      "byteOffset": 258024,
      "bufferView": 0
    },
    {
      "type": "VEC4",
      "componentType": 5121,
      "count": 11283,
      "normalized": false,
      "byteOffset": 0,
      "bufferView": 5
    },
    {
      "type": "VEC4",
      "componentType": 5121,
      "count": 11283,
      "normalized": true,
      "byteOffset": 0,
      "bufferView": 6
    },
    {
      "type": "SCALAR",
      "componentType": 5123,
      "count": 12360,
      "normalized": false,
      "byteOffset": 381396,
      "bufferView": 0
    },
    {
      "type": "VEC4",
      "componentType": 5121,
      "count": 2416,
      "normalized": false,
      "byteOffset": 0,
      "bufferView": 7
    },
    {
      "type": "VEC4",
      "componentType": 5121,
      "count": 2416,
      "normalized": true,
      "byteOffset": 0,
      "bufferView": 8
    },
    {
      "type": "MAT4",
      "componentType": 5126,
      "count": 53,
      "normalized": false,
      "byteOffset": 0,
      "bufferView": 9
    },
    {
      "type": "VEC3",
      "componentType": 5122,
      "count": 12846,
      "max": [
        32767,
        16734,
        11185
      ],
      "min": [
        -32767,
        -16734,
        -11185
      ],
      "normalized": true,
      "byteOffset": 0,
      "bufferView": 10
    },
    {
      "type": "VEC3",
      "componentType": 5122,
      "count": 12846,
      "normalized": true,
      "byteOffset": 0,
      "bufferView": 11
    },
    {
      "type": "VEC2",
      "componentType": 5123,
      "count": 12846,
      "normalized": true,
      "byteOffset": 0,
      "bufferView": 12
    },
    {
      "type": "MAT4",
      "componentType": 5126,
      "count": 53,
      "normalized": false,
      "byteOffset": 3392,
      "bufferView": 9
    },
    {
      "type": "VEC3",
      "componentType": 5122,
      "count": 13310,
      "max": [
        32767,
        21046,
        12717
      ],
      "min": [
        -32767,
        -21046,
        -12717
      ],
      "normalized": true,
      "byteOffset": 0,
      "bufferView": 13
    },
    {
      "type": "VEC3",
      "componentType": 5122,
      "count": 13310,
      "normalized": true,
      "byteOffset": 0,
      "bufferView": 14
    },
    {
      "type": "VEC2",
      "componentType": 5123,
      "count": 13310,
      "normalized": true,
      "byteOffset": 0,
      "bufferView": 15
    },
    {
      "type": "MAT4",
      "componentType": 5126,
      "count": 53,
      "normalized": false,
      "byteOffset": 6784,
      "bufferView": 9
    },
    {
      "type": "VEC3",
      "componentType": 5122,
      "count": 11283,
      "max": [
        12285,
        32767,
        7920
      ],
      "min": [
        -12285,
        -32767,
        -7920
      ],
      "normalized": true,
      "byteOffset": 0,
      "bufferView": 16
    },
    {
      "type": "VEC3",
      "componentType": 5122,
      "count": 11283,
      "normalized": true,
      "byteOffset": 0,
      "bufferView": 17
    },
    {
      "type": "VEC2",
      "componentType": 5123,
      "count": 11283,
      "normalized": true,
      "byteOffset": 0,
      "bufferView": 18
    },
    {
      "type": "MAT4",
      "componentType": 5126,
      "count": 53,
      "normalized": false,
      "byteOffset": 10176,
      "bufferView": 9
    },
    {
      "type": "VEC3",
      "componentType": 5122,
      "count": 2416,
      "max": [
        32767,
        15361,
        22758
      ],
      "min": [
        -32767,
        -15361,
        -22758
      ],
      "normalized": true,
      "byteOffset": 0,
      "bufferView": 19
    },
    {
      "type": "VEC3",
      "componentType": 5122,
      "count": 2416,
      "normalized": true,
      "byteOffset": 0,
      "bufferView": 20
    },
    {
      "type": "VEC2",
      "componentType": 5123,
      "count": 2416,
      "normalized": true,
      "byteOffset": 0,
      "bufferView": 21
    }
  ],
  "bufferViews": [
    {
      "buffer": 1,
      "byteOffset": 0,
      "byteLength": 406116,
      "target": 34963,
      "extensions": {
        "EXT_meshopt_compression": {
          "buffer": 0,
          "byteOffset": 0,
          "byteLength": 76461,
          "mode": "TRIANGLES",
          "byteStride": 2,
          "count": 203058
        }
      }
    },
    {
      "buffer": 1,
      "byteOffset": 406116,
      "byteLength": 51384,
      "target": 34962,
      "byteStride": 4,
      "extensions": {
        "EXT_meshopt_compression": {
          "buffer": 0,
          "byteOffset": 76464,
          "byteLength": 12103,
          "mode": "ATTRIBUTES",
          "byteStride": 4,
          "count": 12846
        }
      }
    },
    {
      "buffer": 1,
      "byteOffset": 457500,
      "byteLength": 51384,
      "target": 34962,
      "byteStride": 4,
      "extensions": {
        "EXT_meshopt_compression": {
          "buffer": 0,
          "byteOffset": 88568,
          "byteLength": 27132,
          "mode": "ATTRIBUTES",
          "byteStride": 4,
          "count": 12846
        }
      }
    },
    {
      "buffer": 1,
      "byteOffset": 508884,
      "byteLength": 53240,
      "target": 34962,
      "byteStride": 4,
      "extensions": {
        "EXT_meshopt_compression": {
          "buffer": 0,
          "byteOffset": 115700,
          "byteLength": 15120,
          "mode": "ATTRIBUTES",
          "byteStride": 4,
          "count": 13310
        }
      }
    },
    {
      "buffer": 1,
      "byteOffset": 562124,
      "byteLength": 53240,
      "target": 34962,
      "byteStride": 4,
      "extensions": {
        "EXT_meshopt_compression": {
          "buffer": 0,
          "byteOffset": 130820,
          "byteLength": 33120,
          "mode": "ATTRIBUTES",
          "byteStride": 4,
          "count": 13310
        }
      }
    },
    {
      "buffer": 1,
      "byteOffset": 615364,
      "byteLength": 45132,
      "target": 34962,
      "byteStride": 4,
      "extensions": {
        "EXT_meshopt_compression": {
          "buffer": 0,
          "byteOffset": 163940,
          "byteLength": 6730,
          "mode": "ATTRIBUTES",
          "byteStride": 4,
          "count": 11283
        }
      }
    },
    {
      "buffer": 1,
      "byteOffset": 660496,
      "byteLength": 45132,
      "target": 34962,
      "byteStride": 4,
      "extensions": {
        "EXT_meshopt_compression": {
          "buffer": 0,
          "byteOffset": 170672,
          "byteLength": 19839,
          "mode": "ATTRIBUTES",
          "byteStride": 4,
          "count": 11283
        }
      }
    },
    {
      "buffer": 1,
      "byteOffset": 705628,
      "byteLength": 9664,
      "target": 34962,
      "byteStride": 4,
      "extensions": {
        "EXT_meshopt_compression": {
          "buffer": 0,
          "byteOffset": 190512,
          "byteLength": 1219,
          "mode": "ATTRIBUTES",
          "byteStride": 4,
          "count": 2416
        }
      }
    },
    {
      "buffer": 1,
      "byteOffset": 715292,
      "byteLength": 9664,
      "target": 34962,
      "byteStride": 4,
      "extensions": {
        "EXT_meshopt_compression": {
          "buffer": 0,
          "byteOffset": 191732,
          "byteLength": 2480,
          "mode": "ATTRIBUTES",
          "byteStride": 4,
          "count": 2416
        }
      }
    },
    {
      "buffer": 1,
      "byteOffset": 724956,
      "byteLength": 13568,
      "extensions": {
        "EXT_meshopt_compression": {
          "buffer": 0,
          "byteOffset": 194212,
          "byteLength": 9444,
          "mode": "ATTRIBUTES",
          "byteStride": 64,
          "count": 212
        }
      }
    },
    {
      "buffer": 1,
      "byteOffset": 738524,
      "byteLength": 102768,
      "target": 34962,
      "byteStride": 8,
      "extensions": {
        "EXT_meshopt_compression": {
          "buffer": 0,
          "byteOffset": 203656,
          "byteLength": 51313,
          "mode": "ATTRIBUTES",
          "byteStride": 8,
          "count": 12846
        }
      }
    },
    {
      "buffer": 1,
      "byteOffset": 841292,
      "byteLength": 102768,
      "target": 34962,
      "byteStride": 8,
      "extensions": {
        "EXT_meshopt_compression": {
          "buffer": 0,
          "byteOffset": 254972,
          "byteLength": 73025,
          "mode": "ATTRIBUTES",
          "byteStride": 8,
          "count": 12846
        }
      }
    },
    {
      "buffer": 1,
      "byteOffset": 944060,
      "byteLength": 51384,
      "target": 34962,
      "byteStride": 4,
      "extensions": {
        "EXT_meshopt_compression": {
          "buffer": 0,
          "byteOffset": 328000,
          "byteLength": 33957,
          "mode": "ATTRIBUTES",
          "byteStride": 4,
          "count": 12846
        }
      }
    },
    {
      "buffer": 1,
      "byteOffset": 995444,
      "byteLength": 106480,
      "target": 34962,
      "byteStride": 8,
      "extensions": {
        "EXT_meshopt_compression": {
          "buffer": 0,
          "byteOffset": 361960,
          "byteLength": 61565,
          "mode": "ATTRIBUTES",
          "byteStride": 8,
          "count": 13310
        }
      }
    },
    {
      "buffer": 1,
      "byteOffset": 1101924,
      "byteLength": 106480,
      "target": 34962,
      "byteStride": 8,
      "extensions": {
        "EXT_meshopt_compression": {
          "buffer": 0,
          "byteOffset": 423528,
          "byteLength": 79196,
          "mode": "ATTRIBUTES",
          "byteStride": 8,
          "count": 13310
        }
      }
    },
    {
      "buffer": 1,
      "byteOffset": 1208404,
      "byteLength": 53240,
      "target": 34962,
      "byteStride": 4,
      "extensions": {
        "EXT_meshopt_compression": {
          "buffer": 0,
          "byteOffset": 502724,
          "byteLength": 39993,
          "mode": "ATTRIBUTES",
          "byteStride": 4,
          "count": 13310
        }
      }
    },
    {
      "buffer": 1,
      "byteOffset": 1261644,
      "byteLength": 90264,
      "target": 34962,
      "byteStride": 8,
      "extensions": {
        "EXT_meshopt_compression": {
          "buffer": 0,
          "byteOffset": 542720,
          "byteLength": 49590,
          "mode": "ATTRIBUTES",
          "byteStride": 8,
          "count": 11283
        }
      }
    },
    {
      "buffer": 1,
      "byteOffset": 1351908,
      "byteLength": 90264,
      "target": 34962,
      "byteStride": 8,
      "extensions": {
        "EXT_meshopt_compression": {
          "buffer": 0,
          "byteOffset": 592312,
          "byteLength": 64719,
          "mode": "ATTRIBUTES",
          "byteStride": 8,
          "count": 11283
        }
      }
    },
    {
      "buffer": 1,
      "byteOffset": 1442172,
      "byteLength": 45132,
      "target": 34962,
      "byteStride": 4,
      "extensions": {
        "EXT_meshopt_compression": {
          "buffer": 0,
          "byteOffset": 657032,
          "byteLength": 33062,
          "mode": "ATTRIBUTES",
          "byteStride": 4,
          "count": 11283
        }
      }
    },
    {
      "buffer": 1,
      "byteOffset": 1487304,
      "byteLength": 19328,
      "target": 34962,
      "byteStride": 8,
      "extensions": {
        "EXT_meshopt_compression": {
          "buffer": 0,
          "byteOffset": 690096,
          "byteLength": 12159,
          "mode": "ATTRIBUTES",
          "byteStride": 8,
          "count": 2416
        }
      }
    },
    {
      "buffer": 1,
      "byteOffset": 1506632,
      "byteLength": 19328,
      "target": 34962,
      "byteStride": 8,
      "extensions": {
        "EXT_meshopt_compression": {
          "buffer": 0,
          "byteOffset": 702256,
          "byteLength": 14524,
          "mode": "ATTRIBUTES",
          "byteStride": 8,
          "count": 2416
        }
      }
    },
    {
      "buffer": 1,
      "byteOffset": 1525960,
      "byteLength": 9664,
      "target": 34962,
      "byteStride": 4,
      "extensions": {
        "EXT_meshopt_compression": {
          "buffer": 0,
          "byteOffset": 716780,
          "byteLength": 7534,
          "mode": "ATTRIBUTES",
          "byteStride": 4,
          "count": 2416
        }
      }
    }
  ],
  "samplers": [
    {
      "magFilter": 9729,
      "minFilter": 9987,
      "wrapS": 10497,
      "wrapT": 10497
    }
  ],
  "textures": [
    {
      "sampler": 0,
      "extensions": {
        "EXT_texture_webp": {
          "source": 0
        }
      }
    },
    {
      "sampler": 0,
      "extensions": {
        "EXT_texture_webp": {
          "source": 2
        }
      }
    },
    {
      "sampler": 0,
      "extensions": {
        "EXT_texture_webp": {
          "source": 1
        }
      }
    },
    {
      "sampler": 0,
      "extensions": {
        "EXT_texture_webp": {
          "source": 3
        }
      }
    },
    {
      "sampler": 0,
      "extensions": {
        "EXT_texture_webp": {
          "source": 4
        }
      }
    },
    {
      "sampler": 0,
      "extensions": {
        "EXT_texture_webp": {
          "source": 5
        }
      }
    },
    {
      "sampler": 0,
      "extensions": {
        "EXT_texture_webp": {
          "source": 6
        }
      }
    },
    {
      "sampler": 0,
      "extensions": {
        "EXT_texture_webp": {
          "source": 7
        }
      }
    },
    {
      "sampler": 0,
      "extensions": {
        "EXT_texture_webp": {
          "source": 8
        }
      }
    }
  ],
  "images": [
    {
      "name": "skin_body_albedo",
      "mimeType": "image/webp",
      "uri": "textures/29600c629019649d1ff1.webp"
    },
    {
      "name": "skin_body_orm",
      "mimeType": "image/webp",
      "uri": "textures/a7f32157a5ed84af6ec4.webp"
    },
    {
      "name": "skin_body_normal",
      "mimeType": "image/webp",
      "uri": "textures/3a2eba648e013d271139.webp"
    },
    {
      "mimeType": "image/webp",
      "uri": "textures/adde57af960dc5ebab03.webp"
    },
    {
      "name": "weave:wool:elvs_hooded_sweat_jacket1:in",
      "mimeType": "image/webp",
      "uri": "textures/f207dbe8dc1a3898335d.webp"
    },
    {
      "mimeType": "image/webp",
      "uri": "textures/6741cffe54c2e5cd4cdf.webp"
    },
    {
      "name": "weave:denim:punkduck_male_classic_jeans:in",
      "mimeType": "image/webp",
      "uri": "textures/7f0a1ae180e6d743c3c8.webp"
    },
    {
      "mimeType": "image/webp",
      "uri": "textures/ed4dd968e9d6367d863b.webp"
    },
    {
      "name": "weave:leather:toigo_ankle_boots_male",
      "mimeType": "image/webp",
      "uri": "textures/4b0b72b51c764d840fec.webp"
    }
  ],
  "buffers": [
    {
      "uri": "yonas.dress-warm.bin",
      "byteLength": 724316
    },
    {
      "byteLength": 1535624,
      "extensions": {
        "EXT_meshopt_compression": {
          "fallback": true
        }
      }
    }
  ],
  "materials": [
    {
      "name": "mh_skin_body",
      "extras": {
        "orm": "R occlusion, G roughness, B specular level (Unreal: F0 = 0.08·B; metallicFactor 0 keeps glTF from reading it as metal)"
      },
      "pbrMetallicRoughness": {
        "metallicFactor": 0,
        "baseColorTexture": {
          "index": 0
        },
        "metallicRoughnessTexture": {
          "index": 2
        }
      },
      "normalTexture": {
        "index": 1
      },
      "occlusionTexture": {
        "index": 2
      }
    },
    {
      "name": "clothes:elvs_hooded_sweat_jacket1",
      "extras": {
        "weave": {
          "kind": "wool:elvs_hooded_sweat_jacket1:in",
          "tile_m": null,
          "metres_per_uv": 1.8542
        }
      },
      "alphaMode": "BLEND",
      "doubleSided": true,
      "pbrMetallicRoughness": {
        "roughnessFactor": 0.5,
        "metallicFactor": 0,
        "baseColorTexture": {
          "index": 3
        }
      },
      "normalTexture": {
        "index": 4,
        "extensions": {
          "KHR_texture_transform": {}
        }
      }
    },
    {
      "name": "clothes:punkduck_male_classic_jeans",
      "extras": {
        "weave": {
          "kind": "denim:punkduck_male_classic_jeans:in",
          "tile_m": null,
          "metres_per_uv": 1.3804
        }
      },
      "alphaMode": "BLEND",
      "doubleSided": true,
      "pbrMetallicRoughness": {
        "roughnessFactor": 0.8039000034332275,
        "metallicFactor": 0,
        "baseColorTexture": {
          "index": 5
        }
      },
      "normalTexture": {
        "index": 6,
        "extensions": {
          "KHR_texture_transform": {}
        }
      }
    },
    {
      "name": "clothes:toigo_ankle_boots_male",
      "extras": {
        "weave": {
          "kind": "leather:toigo_ankle_boots_male",
          "tile_m": null,
          "metres_per_uv": 0.7009
        }
      },
      "alphaMode": "BLEND",
      "doubleSided": true,
      "pbrMetallicRoughness": {
        "roughnessFactor": 0.699999988079071,
        "metallicFactor": 0,
        "baseColorTexture": {
          "index": 7
        }
      },
      "normalTexture": {
        "index": 8,
        "extensions": {
          "KHR_texture_transform": {}
        }
      }
    }
  ],
  "meshes": [
    {
      "name": "body",
      "primitives": [
        {
          "attributes": {
            "JOINTS_0": 1,
            "WEIGHTS_0": 2,
            "POSITION": 13,
            "NORMAL": 14,
            "TEXCOORD_0": 15
          },
          "mode": 4,
          "material": 0,
          "indices": 0
        }
      ]
    },
    {
      "name": "clothes:elvs_hooded_sweat_jacket1",
      "primitives": [
        {
          "attributes": {
            "JOINTS_0": 4,
            "WEIGHTS_0": 5,
            "POSITION": 17,
            "NORMAL": 18,
            "TEXCOORD_0": 19
          },
          "mode": 4,
          "material": 1,
          "indices": 3
        }
      ]
    },
    {
      "name": "clothes:punkduck_male_classic_jeans",
      "primitives": [
        {
          "attributes": {
            "JOINTS_0": 7,
            "WEIGHTS_0": 8,
            "POSITION": 21,
            "NORMAL": 22,
            "TEXCOORD_0": 23
          },
          "mode": 4,
          "material": 2,
          "indices": 6
        }
      ]
    },
    {
      "name": "clothes:toigo_ankle_boots_male",
      "primitives": [
        {
          "attributes": {
            "JOINTS_0": 10,
            "WEIGHTS_0": 11,
            "POSITION": 25,
            "NORMAL": 26,
            "TEXCOORD_0": 27
          },
          "mode": 4,
          "material": 3,
          "indices": 9
        }
      ]
    }
  ],
  "nodes": [
    {
      "name": "Armature",
      "children": [
        1,
        54,
        55,
        56,
        57
      ]
    },
    {
      "name": "Root",
      "rotation": [
        -0.7071067811865475,
        0,
        0,
        0.7071067811865476
      ],
      "children": [
        2
      ]
    },
    {
      "name": "pelvis",
      "translation": [
        0.000007543438696302474,
        -0.0317994403839112,
        1.0582351684570312
      ],
      "rotation": [
        0.7196603727148619,
        4.6227566671025095e-8,
        4.7914287651261356e-8,
        0.6943262546842813
      ],
      "children": [
        3,
        46,
        50
      ]
    },
    {
      "name": "spine_01",
      "translation": [
        6.199115889364592e-10,
        0.0231806945800781,
        -0.0022815769910812453
      ],
      "rotation": [
        0.09541208926457635,
        6.331867860884517e-8,
        -0.0000019100210710416925,
        0.995437860048791
      ],
      "children": [
        4
      ]
    },
    {
      "name": "spine_02",
      "translation": [
        -4.071701009611796e-7,
        0.1084679665122999,
        -0.007991115319000305
      ],
      "rotation": [
        -0.14631611340851777,
        -4.6161133307014754e-7,
        -0.000003136484730578493,
        0.989237885923793
      ],
      "children": [
        5
      ]
    },
    {
      "name": "spine_03",
      "translation": [
        -8.46663024294025e-7,
        0.08568939208984389,
        -6.938893903907228e-18
      ],
      "rotation": [
        -0.07439452918320406,
        3.824911212434203e-8,
        -3.3761915526344403e-10,
        0.997228887481509
      ],
      "children": [
        6,
        25,
        44
      ]
    },
    {
      "name": "clavicle_l",
      "translation": [
        0.013742335020324176,
        0.25651788377342455,
        -0.008217673676206929
      ],
      "rotation": [
        0.06221447589222915,
        0.08852561892342727,
        -0.7489062981322143,
        0.6537827853359113
      ],
      "children": [
        7
      ]
    },
    {
      "name": "upperarm_l",
      "translation": [
        1.5258789055200284e-7,
        0.1915546035766601,
        0
      ],
      "rotation": [
        0.01127053183360031,
        -0.025993597643156854,
        -0.38115026282756126,
        0.9240788846955841
      ],
      "children": [
        8
      ]
    },
    {
      "name": "lowerarm_l",
      "translation": [
        7.629394521702082e-8,
        0.28374183654785134,
        9.536743163836986e-8
      ],
      "rotation": [
        0.4424148523314666,
        -0.01409566955531285,
        0.07755862593523039,
        0.8933392804972549
      ],
      "children": [
        9
      ]
    },
    {
      "name": "hand_l",
      "translation": [
        0.04648196824261447,
        0.2773103391970808,
        -0.0810450598516125
      ],
      "rotation": [
        -0.040924207629818465,
        0.6959225954350049,
        -0.14865900035548615,
        0.7013682713141405
      ],
      "children": [
        10,
        13,
        16,
        19,
        22
      ]
    },
    {
      "name": "index_01_l",
      "translation": [
        -0.031222372299163796,
        0.09117017856809667,
        0.0025313572346819524
      ],
      "rotation": [
        0.15707330158211252,
        0.10636138583585486,
        0.020660415222871518,
        0.9816253770028512
      ],
      "children": [
        11
      ]
    },
    {
      "name": "index_02_l",
      "translation": [
        -0.000983778787798012,
        0.04478457457429885,
        0.0012554825641267753
      ],
      "rotation": [
        0.12033112380948027,
        -0.028772446899075522,
        0.019680100747045372,
        0.9921215956609217
      ],
      "children": [
        12
      ]
    },
    {
      "name": "index_03_l",
      "translation": [
        -0.00006435579165374461,
        0.028295754259198502,
        -0.00010418204274664777
      ],
      "rotation": [
        0.02230756044992482,
        -0.011582760323395643,
        -0.0034081367808371154,
        0.9996782467442947
      ]
    },
    {
      "name": "middle_01_l",
      "translation": [
        -0.004971417679687947,
        0.09319168456728727,
        -0.0031448124919161158
      ],
      "rotation": [
        0.15667218864207577,
        -0.00298285800902381,
        -0.03223009066671187,
        0.9871201290216989
      ],
      "children": [
        14
      ]
    },
    {
      "name": "middle_02_l",
      "translation": [
        -0.00014864620862639968,
        0.050516338166495145,
        0.0009081374719812629
      ],
      "rotation": [
        0.1861579550138351,
        0.014795951534931923,
        0.007963337930297815,
        0.9823761402091619
      ],
      "children": [
        15
      ]
    },
    {
      "name": "middle_03_l",
      "translation": [
        -0.0007022058162922326,
        0.03375808758935679,
        -0.00013281142012810943
      ],
      "rotation": [
        0.0371158691074464,
        -0.011667007684184246,
        0.009684058376941189,
        0.9991959328407257
      ]
    },
    {
      "name": "pinky_01_l",
      "translation": [
        0.03986706513383047,
        0.07578632525923823,
        0.015955881333362065
      ],
      "rotation": [
        0.15750195924389399,
        -0.16822378423071174,
        -0.18893031794314946,
        0.9545675597962326
      ],
      "children": [
        17
      ]
    },
    {
      "name": "pinky_02_l",
      "translation": [
        0.0002622555748161004,
        0.03290162226807711,
        0.003230570543895972
      ],
      "rotation": [
        0.17898693631555337,
        0.017003125135119694,
        -0.016796920500660086,
        0.9835610981661007
      ],
      "children": [
        18
      ]
    },
    {
      "name": "pinky_03_l",
      "translation": [
        0.0003185455958260308,
        0.02083053651555268,
        -0.00008397397536752393
      ],
      "rotation": [
        0.03912546170046873,
        0.004477777213482034,
        0.0009236444768157346,
        0.9992238461119871
      ]
    },
    {
      "name": "ring_01_l",
      "translation": [
        0.01950700369479102,
        0.08487073499249409,
        0.0038330889828506742
      ],
      "rotation": [
        0.13485604046131996,
        -0.0516311900399688,
        -0.11175034501444076,
        0.9831886537970752
      ],
      "children": [
        20
      ]
    },
    {
      "name": "ring_02_l",
      "translation": [
        0.0007455595849449742,
        0.04418499469905496,
        0.002392059700491722
      ],
      "rotation": [
        0.2190548388583443,
        -0.03645782769322024,
        0.013246114353643323,
        0.9749412007024663
      ],
      "children": [
        21
      ]
    },
    {
      "name": "ring_03_l",
      "translation": [
        0.0005060117914719442,
        0.035519517866725484,
        0.0005707443401700152
      ],
      "rotation": [
        0.06816947302675462,
        0.004758368274284287,
        0.005693890483027301,
        0.9976461599634353
      ]
    },
    {
      "name": "thumb_01_l",
      "translation": [
        -0.030910886478207753,
        0.016908277772969882,
        0.014883691333694493
      ],
      "rotation": [
        -0.018657765790001068,
        0.5778095227774115,
        0.3327502470261392,
        0.7450270574063126
      ],
      "children": [
        23
      ]
    },
    {
      "name": "thumb_02_l",
      "translation": [
        0.001441886841561768,
        0.048878670294184495,
        0.0008085171673140393
      ],
      "rotation": [
        0.1503134180170788,
        0.029988826583093375,
        -0.023251354041980737,
        0.9879098750287936
      ],
      "children": [
        24
      ]
    },
    {
      "name": "thumb_03_l",
      "translation": [
        -0.0002555794244138987,
        0.0307730301441157,
        0.0006715017921133867
      ],
      "rotation": [
        0.04939627737055249,
        0.0152567498461949,
        0.001982183878039487,
        0.9986607583724995
      ]
    },
    {
      "name": "clavicle_r",
      "translation": [
        -0.013747217476250392,
        0.25651761846919796,
        -0.008217735053954487
      ],
      "rotation": [
        0.06221452296848692,
        -0.08852766713387387,
        0.7489123823993323,
        0.6537755339354586
      ],
      "children": [
        26
      ]
    },
    {
      "name": "upperarm_r",
      "translation": [
        1.5258789079139468e-7,
        0.19155462265014656,
        0
      ],
      "rotation": [
        0.011271620948025977,
        0.025994688187966027,
        0.38115055347792187,
        0.9240787208515778
      ],
      "children": [
        27
      ]
    },
    {
      "name": "lowerarm_r",
      "translation": [
        -1.5258789043404164e-7,
        0.28405014038085935,
        -1.2874603270898038e-7
      ],
      "rotation": [
        0.44274459897543256,
        0.014091724161512765,
        -0.07770457672982986,
        0.893163278546245
      ],
      "children": [
        28
      ]
    },
    {
      "name": "hand_r",
      "translation": [
        -0.04667646162813377,
        0.2774097571498657,
        -0.08127674552351669
      ],
      "rotation": [
        -0.04119370432942621,
        -0.6959713818553502,
        0.14854628075698567,
        0.7013279666712579
      ],
      "children": [
        29,
        32,
        35,
        38,
        41
      ]
    },
    {
      "name": "index_01_r",
      "translation": [
        0.031164912002349186,
        0.09104943774955504,
        0.0025284773863720744
      ],
      "rotation": [
        0.15825262969666185,
        -0.10523465930795203,
        -0.01885113534823067,
        0.9815938092564119
      ],
      "children": [
        30
      ]
    },
    {
      "name": "index_02_r",
      "translation": [
        0.0010618816723283742,
        0.044587065005673665,
        0.0011632332734569095
      ],
      "rotation": [
        0.12097924980712987,
        0.02802869100284936,
        -0.02084684025031676,
        0.9920402324746456
      ],
      "children": [
        31
      ]
    },
    {
      "name": "index_03_r",
      "translation": [
        -0.000002813897144723909,
        0.028072247046587923,
        -0.00015660382682636254
      ],
      "rotation": [
        0.02111290980877076,
        0.01166287260890546,
        0.003749317312531914,
        0.9997020381401677
      ]
    },
    {
      "name": "middle_01_r",
      "translation": [
        0.004920199863118622,
        0.09299366047609503,
        -0.003185835163445505
      ],
      "rotation": [
        0.15745650788438675,
        0.003430795845300429,
        0.031979893978881756,
        0.987002008177198
      ],
      "children": [
        33
      ]
    },
    {
      "name": "middle_02_r",
      "translation": [
        0.00001902056763104093,
        0.05039559913229935,
        0.0009088672157028244
      ],
      "rotation": [
        0.18661592394207263,
        -0.015057267093533782,
        -0.00762676544491676,
        0.9822879456085007
      ],
      "children": [
        34
      ]
    },
    {
      "name": "middle_03_r",
      "translation": [
        0.0007522451623377269,
        0.03368382441247597,
        -0.00020870295224917346
      ],
      "rotation": [
        0.03631337449473322,
        0.011986434050563705,
        -0.00901550481585262,
        0.9992278943786909
      ]
    },
    {
      "name": "pinky_01_r",
      "translation": [
        -0.039858529217767634,
        0.07567163700005664,
        0.015817218863208138
      ],
      "rotation": [
        0.15850758446099097,
        0.16737254566355245,
        0.18886460799205806,
        0.9545637414413195
      ],
      "children": [
        36
      ]
    },
    {
      "name": "pinky_02_r",
      "translation": [
        -0.0002637775318068969,
        0.03280961521347306,
        0.0032835246932667594
      ],
      "rotation": [
        0.1803520250562428,
        -0.015344946634427476,
        0.017541025586179225,
        0.9833259846522332
      ],
      "children": [
        37
      ]
    },
    {
      "name": "pinky_03_r",
      "translation": [
        -0.0002543818897827177,
        0.020573738459851994,
        -0.0002262938771424583
      ],
      "rotation": [
        0.037575645438956286,
        -0.005507772698152023,
        -0.0014130839773068696,
        0.9992776083268475
      ]
    },
    {
      "name": "ring_01_r",
      "translation": [
        -0.01953820903269208,
        0.08469978106834891,
        0.0037276840478729367
      ],
      "rotation": [
        0.1360061590666109,
        0.05246223581156969,
        0.11177327834679844,
        0.9829836075729891
      ],
      "children": [
        39
      ]
    },
    {
      "name": "ring_02_r",
      "translation": [
        -0.0007423022181274608,
        0.04412140908942935,
        0.0024022543414491393
      ],
      "rotation": [
        0.21912663416057357,
        0.03638842053044726,
        -0.013373845208342894,
        0.9749259158095557
      ],
      "children": [
        40
      ]
    },
    {
      "name": "ring_03_r",
      "translation": [
        -0.0005300501094800958,
        0.035461356586424624,
        0.0004911605729149837
      ],
      "rotation": [
        0.06714464625544439,
        -0.004974133302819271,
        -0.005277031142604972,
        0.9977168974310484
      ]
    },
    {
      "name": "thumb_01_r",
      "translation": [
        0.031079630521480717,
        0.016924853761608627,
        0.014887513892284765
      ],
      "rotation": [
        -0.01630668735727636,
        -0.577483926463341,
        -0.3305160865638218,
        0.7463280265047338
      ],
      "children": [
        42
      ]
    },
    {
      "name": "thumb_02_r",
      "translation": [
        -0.0013778149666118233,
        0.04867733056423382,
        0.0006644411166896874
      ],
      "rotation": [
        0.14999423778166965,
        -0.02932025196526029,
        0.023586772848117884,
        0.9879705034076681
      ],
      "children": [
        43
      ]
    },
    {
      "name": "thumb_03_r",
      "translation": [
        0.00020593574967475714,
        0.030679609001098174,
        0.0005867858642700438
      ],
      "rotation": [
        0.04786886107064399,
        -0.018553076719490153,
        -0.0022738777304201073,
        0.9986787195910942
      ]
    },
    {
      "name": "neck_01",
      "translation": [
        -0.0000030999083486237084,
        0.3194960029882914,
        0.011480335969869292
      ],
      "rotation": [
        0.21377358947369524,
        7.50822518152695e-8,
        -3.6677823508294075e-8,
        0.9768832337815636
      ],
      "children": [
        45
      ]
    },
    {
      "name": "head",
      "translation": [
        -0.0000011201172979421938,
        0.1142244829030607,
        -0.0009557341443367237
      ],
      "rotation": [
        -0.1073944499548431,
        -2.4913893914663998e-8,
        -6.893000125370122e-8,
        0.9942164915745922
      ]
    },
    {
      "name": "thigh_l",
      "translation": [
        0.09675006866455078,
        -0.030288696289062403,
        -0.0005743509531021054
      ],
      "rotation": [
        0.9969521262232773,
        0.022744893301479493,
        -0.07404637818578266,
        0.009287719050385066
      ],
      "children": [
        47
      ]
    },
    {
      "name": "calf_l",
      "translation": [
        -1.9073486248744054e-8,
        0.464991340637207,
        -0.0000020527839660750002
      ],
      "rotation": [
        -0.008821148442772733,
        0.002255657690124927,
        -0.08388115415571293,
        0.9964341680843954
      ],
      "children": [
        48
      ]
    },
    {
      "name": "foot_l",
      "translation": [
        -0.08206636966664677,
        0.48207117065989624,
        0.0012983849312206697
      ],
      "rotation": [
        -0.6937472190291767,
        -0.08696004113733291,
        0.05515637036239651,
        0.7128187161846434
      ],
      "children": [
        49
      ]
    },
    {
      "name": "ball_l",
      "translation": [
        -0.001264202225936678,
        0.14521604835708357,
        0.06463859626646434
      ],
      "rotation": [
        -0.02096490010561632,
        0.021078793160094606,
        0.028892281372291242,
        0.9991403272411639
      ]
    },
    {
      "name": "thigh_r",
      "translation": [
        -0.09675006866455077,
        -0.030288696289062486,
        -0.0005743938684463733
      ],
      "rotation": [
        0.9969521257956953,
        -0.022744912019516908,
        0.07404638525455383,
        0.009287662752425515
      ],
      "children": [
        51
      ]
    },
    {
      "name": "calf_r",
      "translation": [
        1.907348633201078e-8,
        0.46501220703125,
        -0.0000020790100097659026
      ],
      "rotation": [
        -0.008862596476227107,
        -0.002259649165054822,
        0.08389789499060248,
        0.9964323818430915
      ],
      "children": [
        52
      ]
    },
    {
      "name": "foot_r",
      "translation": [
        0.08208244014121538,
        0.4820006984909234,
        0.0013450462232419413
      ],
      "rotation": [
        -0.6938020404473529,
        0.08703388011603769,
        -0.05520985361437014,
        0.7127522040982524
      ],
      "children": [
        53
      ]
    },
    {
      "name": "ball_r",
      "translation": [
        0.001256038663605158,
        0.1451741557874493,
        0.0645894064411044
      ],
      "rotation": [
        -0.02085393734410647,
        -0.021151569542238395,
        -0.028874193574453297,
        0.9991416342784306
      ]
    },
    {
      "name": "body",
      "mesh": 0,
      "skin": 0
    },
    {
      "name": "clothes:elvs_hooded_sweat_jacket1",
      "mesh": 1,
      "skin": 1
    },
    {
      "name": "clothes:punkduck_male_classic_jeans",
      "mesh": 2,
      "skin": 2
    },
    {
      "name": "clothes:toigo_ankle_boots_male",
      "mesh": 3,
      "skin": 3
    }
  ],
  "skins": [
    {
      "inverseBindMatrices": 12,
      "skeleton": 1,
      "joints": [
        1,
        2,
        3,
        4,
        5,
        6,
        7,
        8,
        9,
        10,
        11,
        12,
        13,
        14,
        15,
        16,
        17,
        18,
        19,
        20,
        21,
        22,
        23,
        24,
        25,
        26,
        27,
        28,
        29,
        30,
        31,
        32,
        33,
        34,
        35,
        36,
        37,
        38,
        39,
        40,
        41,
        42,
        43,
        44,
        45,
        46,
        47,
        48,
        49,
        50,
        51,
        52,
        53
      ]
    },
    {
      "inverseBindMatrices": 16,
      "skeleton": 1,
      "joints": [
        1,
        2,
        3,
        4,
        5,
        6,
        7,
        8,
        9,
        10,
        11,
        12,
        13,
        14,
        15,
        16,
        17,
        18,
        19,
        20,
        21,
        22,
        23,
        24,
        25,
        26,
        27,
        28,
        29,
        30,
        31,
        32,
        33,
        34,
        35,
        36,
        37,
        38,
        39,
        40,
        41,
        42,
        43,
        44,
        45,
        46,
        47,
        48,
        49,
        50,
        51,
        52,
        53
      ]
    },
    {
      "inverseBindMatrices": 20,
      "skeleton": 1,
      "joints": [
        1,
        2,
        3,
        4,
        5,
        6,
        7,
        8,
        9,
        10,
        11,
        12,
        13,
        14,
        15,
        16,
        17,
        18,
        19,
        20,
        21,
        22,
        23,
        24,
        25,
        26,
        27,
        28,
        29,
        30,
        31,
        32,
        33,
        34,
        35,
        36,
        37,
        38,
        39,
        40,
        41,
        42,
        43,
        44,
        45,
        46,
        47,
        48,
        49,
        50,
        51,
        52,
        53
      ]
    },
    {
      "inverseBindMatrices": 24,
      "skeleton": 1,
      "joints": [
        1,
        2,
        3,
        4,
        5,
        6,
        7,
        8,
        9,
        10,
        11,
        12,
        13,
        14,
        15,
        16,
        17,
        18,
        19,
        20,
        21,
        22,
        23,
        24,
        25,
        26,
        27,
        28,
        29,
        30,
        31,
        32,
        33,
        34,
        35,
        36,
        37,
        38,
        39,
        40,
        41,
        42,
        43,
        44,
        45,
        46,
        47,
        48,
        49,
        50,
        51,
        52,
        53
      ]
    }
  ],
  "scenes": [
    {
      "nodes": [
        0
      ]
    }
  ],
  "scene": 0,
  "extensionsUsed": [
    "EXT_meshopt_compression",
    "EXT_texture_webp",
    "KHR_mesh_quantization",
    "KHR_texture_transform"
  ],
  "extensionsRequired": [
    "EXT_meshopt_compression",
    "EXT_texture_webp",
    "KHR_mesh_quantization"
  ]
}